<svg width="270" height="247" viewBox="0 0 270 247" fill="none" xmlns="http://www.w3.org/2000/svg">
<path d="M93.5177 238.89C78.065 243.299 62.6461 244.818 46.5587 240.704C28.6276 236.118 13.8603 219.602 5.93668 203.558C2.99253 197.599 0.764416 191.006 1.52312 184.404C3.28152 169.152 17.8446 168.348 29.9605 171.591C36.7904 173.416 42.9433 176.982 49.026 180.514C59.1245 186.38 71.1928 189.71 80.0865 197.521C83.0704 200.149 85.2427 203.218 88.7762 205.216C94.2727 208.325 100.662 210.031 106.328 212.902C111.164 215.364 116.499 219.25 116.167 224.665C115.82 230.218 109.806 233.393 104.577 235.285C100.876 236.634 97.1985 237.846 93.5177 238.89Z" fill="url(#paint0_linear)"/>
<path d="M50.2389 38.0287C77.2896 3.0845 129.416 -8.36136 170.064 7.96031C189.665 15.8341 205.576 30.6697 220.151 45.9487C232.998 59.4153 245.377 73.8474 253.674 90.6446C259.34 102.11 263.061 115.662 265.499 128.248C269.142 147.094 263.282 170.714 239.419 167.462C233.82 166.7 229.081 164.372 223.932 162.273C219.767 160.572 215.543 161.172 211.17 160.194C200.16 157.737 189.705 152.972 179.876 147.543C159.845 136.468 141.815 121.998 121.122 112.096C104.163 103.992 85.8104 99.2058 67.0533 97.9974C59.14 97.4887 50.784 97.5213 43.9263 93.5391C27.0245 83.7161 36.3456 60.6673 43.6917 47.8333C45.639 44.4141 47.827 41.1377 50.2389 38.0287V38.0287Z" fill="url(#paint1_linear)"/>
<path d="M244.06 55.7003C247.906 59.6483 263.293 70.7324 264.342 58.922C264.6 55.9795 263.443 53.0343 261.759 50.7621C259.832 48.1544 257.554 46.7072 256.11 43.7193C254.339 40.11 252.281 36.693 249.961 33.5127C245.225 26.8991 239.6 20.71 232.495 17.6644C227.511 15.5304 218.853 15.4462 216.022 21.8272C211.899 31.1159 226.873 33.8032 231.255 37.5571C235.415 41.1109 237.534 46.9023 240.712 51.5986C241.716 53.0795 242.837 54.4526 244.06 55.7003V55.7003Z" fill="url(#paint2_linear)"/>
<path d="M169.394 39.4105C177.712 45.0358 183.713 53.052 191.203 59.6744C203.672 70.6984 221.509 73.9113 236.097 81.9483C250.971 90.1479 261.84 102.124 266.058 118.667C271.507 140.021 270.59 164.952 263.499 186.11C255.69 209.4 239.85 224.203 217.473 233.335C195.11 242.461 170.757 245.849 146.712 245.356C144.391 245.31 142.077 245.219 139.757 245.089C87.6371 242.128 19.4368 219.445 5.20476 162.364C5.0742 161.843 4.95041 161.322 4.82662 160.793C3.38946 154.443 2.7177 147.944 2.82567 141.434C3.15146 118.353 8.77001 93.2057 18.1891 72.1388C24.5251 57.9554 36.9789 46.4073 49.8394 38.4288C67.9083 27.22 89.2119 25.4051 110.312 25.2462C125.937 25.1292 143.457 25.8264 157.795 32.6982C161.824 34.6427 165.701 36.8864 169.394 39.4105Z" fill="url(#paint3_linear)"/>
<defs>
<linearGradient id="paint0_linear" x1="0.0489009" y1="186.432" x2="12.3219" y2="241.874" gradientUnits="userSpaceOnUse">
<stop stop-color="#FFD0D0"/>
<stop offset="1" stop-color="#FFF8F8"/>
</linearGradient>
<linearGradient id="paint1_linear" x1="302.134" y1="59.1449" x2="129.126" y2="7.61218" gradientUnits="userSpaceOnUse">
<stop stop-color="#FFF8F8"/>
<stop offset="1" stop-color="#FFD0D0"/>
</linearGradient>
<linearGradient id="paint2_linear" x1="264.771" y1="58.7406" x2="206.155" y2="29.2434" gradientUnits="userSpaceOnUse">
<stop stop-color="#FFD0D0"/>
<stop offset="1" stop-color="#FFF7F7"/>
</linearGradient>
<linearGradient id="paint3_linear" x1="240.552" y1="227.528" x2="7.21539" y2="72.1505" gradientUnits="userSpaceOnUse">
<stop stop-color="#FFCFCF"/>
<stop offset="1" stop-color="#FFF8F8"/>
</linearGradient>
</defs>
</svg>
