<svg width="266" height="259" viewBox="0 0 266 259" fill="none" xmlns="http://www.w3.org/2000/svg">
<g filter="url(#filter0_d)">
<g clip-path="url(#clip0)">
<rect x="-829" y="-2171" width="1920" height="8133" fill="white"/>
<g filter="url(#filter1_d)">
<rect x="-99" y="-55.0005" width="460" height="575" rx="10" fill="white"/>
</g>
<path d="M89.5177 244.89C74.065 249.299 58.6461 250.818 42.5587 246.704C24.6276 242.118 9.86027 225.602 1.93668 209.558C-1.00747 203.599 -3.23558 197.006 -2.47688 190.404C-0.718485 175.152 13.8446 174.348 25.9605 177.591C32.7904 179.416 38.9433 182.982 45.026 186.514C55.1245 192.38 67.1928 195.71 76.0865 203.521C79.0704 206.149 81.2427 209.218 84.7762 211.216C90.2727 214.325 96.6621 216.031 102.328 218.902C107.164 221.364 112.499 225.25 112.167 230.665C111.82 236.218 105.806 239.393 100.577 241.285C96.8756 242.634 93.1985 243.846 89.5177 244.89Z" fill="url(#paint0_linear)"/>
<path d="M46.2389 44.0287C73.2896 9.0845 125.416 -2.36136 166.064 13.9603C185.665 21.8341 201.576 36.6697 216.151 51.9487C228.998 65.4153 241.377 79.8475 249.674 96.6446C255.34 108.11 259.061 121.662 261.499 134.248C265.142 153.094 259.282 176.714 235.419 173.462C229.82 172.7 225.081 170.372 219.932 168.273C215.767 166.572 211.543 167.172 207.17 166.194C196.16 163.737 185.705 158.972 175.876 153.543C155.845 142.468 137.815 127.998 117.122 118.096C100.163 109.992 81.8104 105.206 63.0533 103.997C55.14 103.489 46.784 103.521 39.9263 99.5391C23.0245 89.7161 32.3456 66.6673 39.6917 53.8333C41.639 50.4141 43.827 47.1377 46.2389 44.0287Z" fill="url(#paint1_linear)"/>
<path d="M240.06 61.7003C243.906 65.6483 259.293 76.7324 260.342 64.922C260.6 61.9795 259.443 59.0343 257.759 56.7621C255.832 54.1544 253.554 52.7072 252.11 49.7193C250.339 46.11 248.281 42.693 245.961 39.5127C241.225 32.8991 235.6 26.71 228.495 23.6644C223.511 21.5304 214.853 21.4462 212.022 27.8272C207.899 37.1159 222.873 39.8032 227.255 43.5571C231.415 47.1109 233.534 52.9023 236.712 57.5986C237.716 59.0795 238.837 60.4526 240.06 61.7003V61.7003Z" fill="url(#paint2_linear)"/>
<path d="M165.394 45.4105C173.712 51.0358 179.713 59.052 187.203 65.6744C199.672 76.6984 217.509 79.9113 232.097 87.9483C246.971 96.1479 257.84 108.124 262.058 124.667C267.507 146.021 266.59 170.952 259.499 192.11C251.69 215.4 235.85 230.203 213.473 239.335C191.11 248.461 166.757 251.849 142.712 251.356C140.391 251.31 138.077 251.219 135.757 251.089C83.6371 248.128 15.4368 225.445 1.20476 168.364C1.0742 167.843 0.950408 167.322 0.826619 166.793C-0.610541 160.443 -1.2823 153.944 -1.17433 147.434C-0.848535 124.353 4.77001 99.2057 14.1891 78.1388C20.5251 63.9554 32.9789 52.4073 45.8394 44.4288C63.9083 33.22 85.2119 31.4051 106.312 31.2462C121.937 31.1292 139.457 31.8264 153.795 38.6982C157.824 40.6427 161.701 42.8864 165.394 45.4105Z" fill="url(#paint3_linear)"/>
<path d="M62.3902 78.7599C62.3902 78.7599 115.466 149.627 128.743 155.487C142.024 161.35 158.672 160.03 160.128 166.828C161.584 173.63 132.255 162.125 136.934 172.617C141.612 183.113 159.846 195.093 159.932 205.659C160.021 216.229 130.917 182.972 130.917 182.972C130.917 182.972 158.339 213.399 149.259 214.118C140.175 214.838 116.688 185.09 116.688 185.09C116.688 185.09 142.961 224.114 134.252 220.549C125.546 216.985 44.8046 123.617 32.3535 113.737C19.9025 103.861 62.3902 78.7599 62.3902 78.7599Z" fill="#E27B5A"/>
<path d="M216.787 95.9623C216.787 95.9623 156.251 160.554 142.407 164.919C128.563 169.281 112.163 166.139 109.966 172.734C107.773 179.331 138.187 171.128 132.382 181.045C126.581 190.958 107.143 200.857 105.894 211.353C104.65 221.845 137.228 191.997 137.228 191.997C137.228 191.997 106.628 219.219 115.574 220.933C124.525 222.65 151.138 195.669 151.138 195.669C151.138 195.669 120.735 231.566 129.781 228.981C138.828 226.396 229.338 142.485 242.797 134.036C256.259 125.588 216.787 95.9623 216.787 95.9623Z" fill="#FFCEB0"/>
<path d="M165.25 140.812C165.25 140.812 183.869 176.069 200.985 179.82C218.099 183.571 255.071 150.104 263.138 133.527C271.208 116.953 231.877 66.7967 223.46 59.5826C211.301 58.0982 156.618 109.385 165.25 140.812Z" fill="#FB4C47"/>
<path d="M49.721 44.5534C49.721 44.5534 110.959 104.906 108.057 120.577C105.159 136.251 81.7756 155.026 62.917 161.174C44.0585 167.32 2.82979 142.563 2.82979 124.51C-0.17659 93.8497 15.4547 61.9875 49.721 44.5534Z" fill="#128E5A"/>
</g>
</g>
<defs>
<filter id="filter0_d" x="-833" y="-2171" width="1928" height="8141" filterUnits="userSpaceOnUse" color-interpolation-filters="sRGB">
<feFlood flood-opacity="0" result="BackgroundImageFix"/>
<feColorMatrix in="SourceAlpha" type="matrix" values="0 0 0 0 0 0 0 0 0 0 0 0 0 0 0 0 0 0 127 0"/>
<feOffset dy="4"/>
<feGaussianBlur stdDeviation="2"/>
<feColorMatrix type="matrix" values="0 0 0 0 0 0 0 0 0 0 0 0 0 0 0 0 0 0 0.25 0"/>
<feBlend mode="normal" in2="BackgroundImageFix" result="effect1_dropShadow"/>
<feBlend mode="normal" in="SourceGraphic" in2="effect1_dropShadow" result="shape"/>
</filter>
<filter id="filter1_d" x="-179" y="-130" width="620" height="735" filterUnits="userSpaceOnUse" color-interpolation-filters="sRGB">
<feFlood flood-opacity="0" result="BackgroundImageFix"/>
<feColorMatrix in="SourceAlpha" type="matrix" values="0 0 0 0 0 0 0 0 0 0 0 0 0 0 0 0 0 0 127 0"/>
<feOffset dy="5"/>
<feGaussianBlur stdDeviation="40"/>
<feColorMatrix type="matrix" values="0 0 0 0 0 0 0 0 0 0 0 0 0 0 0 0 0 0 0.08 0"/>
<feBlend mode="normal" in2="BackgroundImageFix" result="effect1_dropShadow"/>
<feBlend mode="normal" in="SourceGraphic" in2="effect1_dropShadow" result="shape"/>
</filter>
<linearGradient id="paint0_linear" x1="-3.9511" y1="192.432" x2="8.32188" y2="247.874" gradientUnits="userSpaceOnUse">
<stop stop-color="#FFD0D0"/>
<stop offset="1" stop-color="#FFF8F8"/>
</linearGradient>
<linearGradient id="paint1_linear" x1="298.134" y1="65.1449" x2="125.126" y2="13.6122" gradientUnits="userSpaceOnUse">
<stop stop-color="#FFF8F8"/>
<stop offset="1" stop-color="#FFD0D0"/>
</linearGradient>
<linearGradient id="paint2_linear" x1="260.771" y1="64.7406" x2="202.155" y2="35.2434" gradientUnits="userSpaceOnUse">
<stop stop-color="#FFD0D0"/>
<stop offset="1" stop-color="#FFF7F7"/>
</linearGradient>
<linearGradient id="paint3_linear" x1="236.552" y1="233.528" x2="3.21539" y2="78.1505" gradientUnits="userSpaceOnUse">
<stop stop-color="#FFCFCF"/>
<stop offset="1" stop-color="#FFF8F8"/>
</linearGradient>
<clipPath id="clip0">
<rect x="-829" y="-2171" width="1920" height="8133" fill="white"/>
</clipPath>
</defs>
</svg>
