<svg width="1171" height="873" viewBox="0 0 1171 873" fill="none" xmlns="http://www.w3.org/2000/svg">
<path d="M541.104 722.831C505.933 743.162 469.065 756.386 427.087 756.213C380.298 756.016 333.915 724.621 304.603 690.165C293.712 677.367 284.188 662.576 281.98 645.921C276.894 607.444 312.105 596.499 343.809 596.987C361.679 597.253 378.962 602.206 396.052 607.116C424.425 615.277 456.066 616.005 482.685 629.678C491.62 634.283 498.837 640.469 508.731 643.19C524.123 647.426 540.84 647.672 556.5 651.221C569.875 654.278 585.35 660.518 587.872 673.999C590.443 687.827 577.653 699.319 565.999 707.178C557.754 712.767 549.485 718.002 541.104 722.831Z" fill="url(#paint0_linear)"/>
<path d="M292.8 267.685C333.798 157.432 457.155 86.9831 573.386 96.1937C629.435 100.644 681.635 125.711 730.793 152.964C774.122 176.984 817.026 203.829 851.439 239.921C874.934 264.556 895.142 296.035 911.325 326.079C935.538 371.07 939.394 435.736 876.184 446.41C861.354 448.916 847.466 446.764 832.717 445.517C820.784 444.501 810.529 449.375 798.64 450.363C768.718 452.857 738.371 449.048 709.089 443.054C649.407 430.812 592.113 408.355 531.679 399.621C482.158 392.487 431.73 394.892 383.114 406.708C362.604 411.695 341.399 418.41 320.815 413.734C270.076 402.19 275.467 336.231 283.946 297.793C286.181 287.56 289.14 277.499 292.8 267.685V267.685Z" fill="url(#paint1_linear)"/>
<path d="M792.509 161.679C804.569 168.201 849.33 183.109 843.062 154.285C841.491 147.107 836.558 140.971 830.873 136.825C824.365 132.061 817.882 130.314 812.235 124.29C805.354 117.033 797.931 110.445 790.063 104.614C773.912 92.4214 755.963 81.8969 736.832 79.9346C723.415 78.5635 702.791 84.7857 700.803 102.038C697.901 127.154 735.452 122.429 748.644 128.092C761.158 133.446 770.486 145.627 781.515 154.422C784.998 157.194 788.679 159.623 792.509 161.679V161.679Z" fill="url(#paint2_linear)"/>
<path d="M588.693 174.827C614.29 182.519 635.899 198.124 660.184 209.006C700.615 227.12 748.483 221.127 791.926 229.97C836.226 238.999 873.347 260.801 897.191 299.487C927.983 349.418 945.44 413.489 944.213 472.875C942.855 538.246 914.357 588.428 864.751 629.388C815.174 670.325 755.988 698.257 694.502 716.089C688.57 717.814 682.619 719.419 676.619 720.929C541.845 754.768 350.563 751.261 269.103 617.528C268.357 616.306 267.629 615.08 266.895 613.836C258.204 598.843 251.339 582.863 246.447 566.237C228.958 507.334 223.276 438.982 230.489 377.981C235.331 336.916 260.321 304.898 286.665 274.42C323.678 231.601 373.853 202.877 427.337 185.728C466.943 173.031 512.012 160.897 553.895 166.978C565.674 168.721 577.306 171.345 588.693 174.827Z" fill="url(#paint3_linear)"/>
<path d="M902.258 591.85C878.601 624.876 850.466 652.125 812.152 669.277C769.445 688.392 714.243 678.916 673.331 659.613C658.132 652.445 643.356 642.897 634.477 628.635C613.977 595.678 641.541 571.187 670.626 558.559C687.016 551.433 704.803 548.818 722.397 546.245C751.612 541.979 780.737 529.595 810.625 531.075C820.665 531.586 829.79 534.246 839.926 532.645C855.695 530.157 871.026 523.488 886.756 520.264C900.202 517.533 916.873 516.838 924.73 528.078C932.774 539.616 925.86 555.36 918.484 567.325C913.278 575.816 907.903 583.996 902.258 591.85Z" fill="url(#paint4_linear)"/>
<path d="M506.432 412.303C506.091 412.303 505.748 412.194 505.455 411.969C505.188 411.759 498.859 406.76 494.026 396.563C489.594 387.211 485.658 371.535 492.066 349.922C496.412 335.26 500.768 324.837 504.609 315.635C511.583 298.941 516.623 286.879 517.03 261.307C517.043 260.432 517.689 259.681 518.643 259.742C519.525 259.758 520.225 260.477 520.212 261.358C519.795 287.54 514.389 300.481 507.545 316.863C503.734 325.989 499.416 336.329 495.117 350.828C483.431 390.231 507.17 409.27 507.412 409.455C508.102 409.996 508.226 410.995 507.689 411.689C507.374 412.093 506.906 412.303 506.432 412.303Z" fill="#000C3E"/>
<path d="M636.799 161.036C636.561 178.37 622.316 192.233 604.979 191.994C587.645 191.756 573.785 177.511 574.021 160.174C574.259 142.84 588.507 128.98 605.841 129.216C623.175 129.454 637.038 143.702 636.799 161.036Z" fill="#000C3E"/>
<path d="M503.394 401.09C503.394 401.09 513.051 419.859 550.808 425.646C588.563 431.431 617.749 417.125 647.024 426.963C676.299 436.805 717.907 422.092 725.928 409.699C733.952 397.306 729.001 262.283 705.577 240.18C682.153 218.076 561.792 202.021 536.433 229.139C511.075 256.26 486.55 386.269 503.394 401.09Z" fill="#000C3E"/>
<path d="M717.938 289.381C717.155 346.509 670.209 392.186 613.078 391.403C555.95 390.62 510.273 343.671 511.055 286.543C511.841 229.415 558.788 183.738 615.916 184.52C673.044 185.306 718.721 232.253 717.938 289.381Z" fill="#000C3E"/>
<path d="M529.966 286.087C529.966 286.087 537.198 411.521 622.201 414.925C707.201 418.33 702.915 241.46 671.801 225.364C640.687 209.271 512.587 215.472 529.966 286.087Z" fill="#FFCEB0"/>
<path d="M617.744 310.892C617.744 310.892 634.871 349.146 630.761 351.806C626.65 354.462 614.432 354.297 611.075 351.535C607.719 348.773 611.012 306.727 617.744 310.892Z" fill="#F5A473"/>
<path d="M592.633 324.427C592.522 328.83 588.863 332.311 584.46 332.2C580.056 332.092 576.575 328.433 576.687 324.029C576.795 319.626 580.454 316.145 584.86 316.253C589.264 316.364 592.745 320.023 592.633 324.427Z" fill="#41294A"/>
<path d="M661.01 319.046C660.899 323.449 657.24 326.93 652.836 326.819C648.433 326.711 644.952 323.052 645.064 318.648C645.172 314.244 648.831 310.764 653.237 310.872C657.641 310.983 661.122 314.642 661.01 319.046Z" fill="#41294A"/>
<path d="M595.202 217.554C595.202 217.554 565.118 232.995 559.986 260.759C554.851 288.523 559.525 359.192 527.205 356.714C527.205 356.714 461.451 218.197 595.202 217.554" fill="#41294A"/>
<path d="M611.256 217.774C608.542 219.817 642.679 218.923 662.759 242.121C682.842 265.319 688.881 324.343 691.926 325.368C694.971 326.396 705.257 251.736 683.329 229.9C661.4 208.067 626.7 206.152 611.256 217.774Z" fill="#41294A"/>
<path d="M684.725 330.584C684.725 330.584 692.103 298.964 706.542 309.814C720.98 320.664 708.938 353.808 694.998 357.12C681.062 360.432 677.372 346.967 684.725 330.584Z" fill="#FFCEB0"/>
<path d="M550.746 328.747C550.746 328.747 544.236 296.936 529.505 307.385C514.777 317.834 525.906 351.299 539.747 354.993C553.591 358.684 557.647 345.327 550.746 328.747Z" fill="#FFCEB0"/>
<path d="M649.183 290.911C649.183 290.911 664.195 282.992 673.444 294.37C681.58 304.373 663.011 296.266 656.177 297.561C649.339 298.859 640.31 298.293 649.183 290.911Z" fill="#41294A"/>
<path d="M589.527 293.794C589.527 293.794 574.13 286.651 565.473 298.484C557.859 308.891 575.989 299.845 582.883 300.794C589.775 301.739 598.767 300.711 589.527 293.794Z" fill="#41294A"/>
<path d="M643.732 375.181C643.732 375.181 633.939 360.382 623.344 361.315C612.745 362.25 604.622 375.89 603.197 376.463C603.197 376.463 619.736 384.229 643.732 375.181" fill="#41294A"/>
<path d="M584.172 306.668C570.914 306.668 559.979 317.461 559.794 330.722C559.708 337.232 562.158 343.392 566.702 348.062C571.245 352.73 577.332 355.349 583.845 355.438L584.185 355.441C597.443 355.441 608.379 344.652 608.56 331.39C608.745 317.947 597.959 306.859 584.513 306.671L584.172 306.668ZM584.185 358.623L583.8 358.619C576.438 358.521 569.556 355.555 564.42 350.28C559.285 345.002 556.514 338.04 556.612 330.677C556.819 315.685 569.183 303.486 584.172 303.486L584.557 303.49C599.757 303.7 611.949 316.236 611.742 331.432C611.539 346.424 599.174 358.623 584.185 358.623Z" fill="#FFFCF6"/>
<path d="M653.038 301.156C639.777 301.156 628.841 311.949 628.66 325.21C628.475 338.65 639.264 349.741 652.707 349.926L653.048 349.929C666.309 349.929 677.245 339.14 677.426 325.878C677.515 319.365 675.062 313.206 670.522 308.535C665.978 303.87 659.891 301.249 653.378 301.159L653.038 301.156ZM653.048 353.111L652.666 353.108C637.463 352.898 625.271 340.362 625.478 325.166C625.685 310.173 638.046 297.975 653.038 297.975L653.423 297.978C660.786 298.076 667.668 301.042 672.8 306.317C677.938 311.596 680.71 318.557 680.608 325.92C680.401 340.912 668.037 353.111 653.048 353.111Z" fill="#FFFCF6"/>
<path d="M558.887 326.728C558.705 326.728 558.517 326.696 558.339 326.632L548.135 322.884C547.311 322.579 546.888 321.666 547.191 320.838C547.493 320.017 548.412 319.601 549.233 319.896L559.434 323.641C560.261 323.947 560.681 324.86 560.379 325.687C560.143 326.33 559.536 326.728 558.887 326.728Z" fill="#FFFCF6"/>
<path d="M677.873 319.497C677.196 319.497 676.566 319.061 676.356 318.38C676.092 317.544 676.559 316.65 677.399 316.385L691.345 312.033C692.178 311.766 693.076 312.24 693.337 313.076C693.601 313.916 693.133 314.807 692.293 315.071L678.347 319.427C678.192 319.475 678.029 319.497 677.873 319.497Z" fill="#FFFCF6"/>
<path d="M610.759 246.943C610.759 246.943 610.788 278.674 629.69 284.404C648.59 290.138 697.21 287.608 696.717 279.854C692.265 209.847 659.357 213.369 631.873 204.409C583.673 188.701 544.251 267.401 550.153 286.002C556.055 304.599 596.737 287.233 605.445 284.617C614.151 281.999 609.327 260.436 610.759 246.943" fill="#000C3E"/>
<g opacity="0.210007">
<g opacity="0.210007">
<path opacity="0.210007" d="M562.015 354.112C562.015 354.112 604.895 329.371 623.715 332.83C642.535 336.291 675.565 336.832 677.06 343.584C678.559 350.332 635.185 347.291 621.844 348.589C608.503 349.887 557.287 365.245 562.015 354.112Z" fill="#DB5C5D"/>
</g>
</g>
<path d="M586.013 337.556C585.386 337.556 584.791 337.184 584.539 336.564C584.209 335.752 584.6 334.823 585.414 334.492C589.726 332.736 590.524 331.352 590.531 331.339C590.814 330.506 591.686 330.118 592.526 330.413C593.356 330.697 593.773 331.664 593.49 332.498C593.289 333.083 592.204 335.164 586.611 337.439C586.413 337.518 586.213 337.556 586.013 337.556Z" fill="#DB5C5D"/>
<path d="M651.524 334.188C650.242 334.188 648.078 333.8 644.68 332.143C643.888 331.761 643.56 330.809 643.945 330.017C644.327 329.228 645.284 328.904 646.07 329.285C650.261 331.325 651.82 330.984 651.839 330.984C652.65 330.644 653.516 331.042 653.859 331.85C654.203 332.658 653.764 333.613 652.952 333.959C652.742 334.048 652.291 334.188 651.524 334.188Z" fill="#DB5C5D"/>
<path d="M610.128 331.541C609.323 331.541 608.629 330.934 608.546 330.113C608.457 329.238 609.094 328.455 609.969 328.369L627.042 326.626C627.898 326.517 628.696 327.17 628.785 328.045C628.875 328.92 628.238 329.702 627.363 329.788L610.29 331.532C610.236 331.538 610.182 331.541 610.128 331.541Z" fill="#FFFCF6"/>
<path d="M586.487 191.566C586.255 191.566 586.016 191.515 585.794 191.404C576.767 187.016 571.307 180.758 569.557 172.8C565.676 155.132 581.46 135.584 582.135 134.759C582.695 134.079 583.694 133.98 584.371 134.537C585.052 135.094 585.154 136.093 584.597 136.774C584.441 136.964 569.112 155.969 572.666 172.126C574.196 179.081 579.08 184.605 587.184 188.547C587.973 188.929 588.304 189.883 587.919 190.672C587.645 191.235 587.079 191.566 586.487 191.566Z" fill="#000C3E"/>
<path d="M622.817 196.295C622.375 196.295 621.936 196.11 621.621 195.754C621.041 195.092 621.105 194.09 621.767 193.507C621.951 193.345 640.196 177.122 639.343 160.599C638.977 153.488 635.067 147.236 627.72 142.014C627.004 141.508 626.835 140.516 627.345 139.797C627.854 139.084 628.846 138.915 629.562 139.424C637.742 145.234 642.105 152.307 642.521 160.446C643.444 178.509 624.665 195.197 623.864 195.9C623.561 196.164 623.189 196.295 622.817 196.295Z" fill="#000C3E"/>
<path d="M717.447 405.181C716.986 405.181 716.528 404.984 716.213 404.593C715.659 403.915 715.761 402.913 716.442 402.356C716.652 402.184 737.578 384.707 731.517 357.058C729.181 346.399 725.087 334.671 720.75 322.256C713.231 300.725 705.455 278.459 704.822 256.874C704.797 255.993 705.49 255.265 706.368 255.236C707.192 255.265 707.978 255.901 708.004 256.779C708.624 277.874 716.315 299.904 723.753 321.206C728.122 333.717 732.249 345.53 734.625 356.374C741.113 385.98 718.679 404.641 718.449 404.825C718.154 405.064 717.8 405.181 717.447 405.181Z" fill="#000C3E"/>
<path d="M723.098 291.552C723.047 291.552 722.993 291.549 722.939 291.546C722.067 291.46 721.428 290.68 721.513 289.805C724.262 261.968 718.405 239.375 704.109 222.642C681.09 195.709 643.691 193.236 643.319 193.214C642.441 193.163 641.77 192.412 641.824 191.531C641.871 190.656 642.626 189.962 643.501 190.039C643.892 190.061 682.639 192.619 706.527 220.574C721.408 237.991 727.517 261.389 724.679 290.117C724.6 290.941 723.906 291.552 723.098 291.552Z" fill="#000C3E"/>
<path d="M609.154 378.321C609.154 378.321 625.008 367.198 639.167 376.734C639.167 376.734 622.635 382.929 609.154 378.321Z" fill="#DB5C5D"/>
<path d="M619.644 389.741C618.079 389.741 616.733 389.725 615.903 389.713C615.025 389.7 614.325 388.978 614.337 388.096C614.35 387.218 614.951 386.505 615.954 386.531C621.961 386.61 629.139 386.464 630.256 386.041C631.073 385.729 631.996 386.136 632.311 386.954C632.626 387.775 632.225 388.688 631.407 389.006C629.816 389.624 623.911 389.741 619.644 389.741Z" fill="#DB5C5D"/>
<path d="M542.48 346.204C542.337 346.204 542.194 346.185 542.051 346.144C541.204 345.908 540.711 345.033 540.946 344.184C545.299 328.584 533.743 318.539 533.625 318.437C532.957 317.871 532.874 316.865 533.444 316.194C534.01 315.526 535.016 315.443 535.687 316.016C536.228 316.474 548.907 327.499 544.01 345.043C543.813 345.743 543.177 346.204 542.48 346.204Z" fill="#DB5C5D"/>
<path d="M690.92 350.004C690.885 350.004 690.853 350.004 690.815 350.001C689.94 349.943 689.275 349.186 689.329 348.311C690.519 329.847 699.367 319.978 699.746 319.567C700.338 318.918 701.343 318.874 701.989 319.465C702.638 320.057 702.683 321.063 702.094 321.712C702.008 321.807 693.618 331.235 692.508 348.515C692.45 349.358 691.75 350.004 690.92 350.004Z" fill="#DB5C5D"/>
<path d="M658.972 401.942C658.972 401.942 664.031 458.535 657.318 467.485C650.604 476.439 608.084 469.722 596.893 467.485C585.703 465.249 585.681 371.648 587.94 377.97C606.623 430.186 657.684 383.978 658.972 401.942Z" fill="#FFCEB0"/>
<path d="M591.986 407.539C591.986 407.539 622.152 422.039 656.445 404.488C656.445 404.488 659.111 425.57 656.445 430.432C653.782 435.294 599.46 438.768 588.766 414.806C588.766 414.806 588.9 406.499 591.986 407.539" fill="#F5A473"/>
<path d="M427.249 850.877H817.622C817.622 850.877 837.562 511.475 788.662 474.567C739.759 437.656 524.486 456.094 473.804 487.622C423.122 519.149 427.249 850.877 427.249 850.877Z" fill="#FB4C47"/>
<path d="M622.153 460.778C622.153 460.778 607.106 591.242 613.674 609.4C620.237 627.558 611.828 708.066 609.155 718.531C606.48 728.995 525.374 733.44 504.445 725.069C483.515 716.698 509.777 491.046 521.492 449.299C533.211 407.548 620.864 432.146 622.153 460.778Z" fill="#05BA6E"/>
<path d="M383.969 300.933C383.969 300.933 416.598 363.425 439.465 364.004C462.335 364.584 539.454 270.668 567.889 269.701C596.328 268.737 620.747 271.496 620.859 264.718C620.97 257.938 581.307 250.537 581.307 250.537C581.307 250.537 638.667 254.19 626.802 247.916C614.941 241.641 586.515 236 586.515 236C586.515 236 627.741 237.664 628.04 233.254C628.339 228.844 585.118 222.35 585.118 222.35C585.118 222.35 637.712 220.671 628.094 213.435C618.472 206.2 600.365 209.34 551.389 216.821C502.409 224.301 391.602 289.689 383.969 300.933Z" fill="#FFCEB0"/>
<path d="M441.214 297.939C441.214 297.939 493.41 329.031 470.683 364.266C446.483 401.785 447.838 390.639 443.654 405.819C439.467 420.999 508.441 450.564 511.578 463.558C514.715 476.549 482.201 636.332 451.745 629.775C425.235 624.07 277.915 540.467 256.743 456.921C240.332 392.15 374.102 233.722 441.214 297.939Z" fill="#FB4C47"/>
<path d="M577.845 662.399C577.845 662.399 520.011 789.802 541.274 806.862C562.538 823.92 579.672 812.806 598.476 823.878C617.283 834.951 635.323 829.415 650.43 819.78C665.537 810.143 626.22 683.392 609.958 671.324C593.697 659.252 580.776 655.778 577.845 662.399Z" fill="white"/>
<path d="M770.001 465.501C770.001 465.501 801.099 469.297 825.51 514.001C843.824 547.541 879.304 743.53 825.51 771.455C771.716 799.378 721.261 784.772 701.736 765.954C682.209 747.136 716.95 650.155 740.108 642.916C763.268 635.68 770.001 465.501 770.001 465.501Z" fill="#FB4C47"/>
<path d="M780.071 462.497C780.071 462.497 781.525 453.435 736.742 434.055C701.004 418.589 670.393 444.692 615.88 447.501C561.368 450.314 566.287 428.707 527.727 438.748C468.222 454.24 515.598 493.245 534.772 497.623C553.945 502.001 618.181 609.986 780.071 462.497Z" fill="#05BA6E"/>
<path d="M623.78 353.601C623.78 353.601 623.614 357.292 625.733 357.626C627.852 357.96 631.769 356.776 630.76 351.803C630.76 351.803 625.447 353.512 623.78 353.601Z" fill="white"/>
<path d="M844.514 659.319C844.365 659.319 844.212 659.31 844.059 659.287C842.589 659.077 841.501 657.894 841.345 656.484C838.695 653.42 820.899 647.003 809.028 642.72C785.509 634.234 774.961 630.038 772.693 625.446C770.768 621.555 771.63 615.942 772.721 608.838C774.449 597.593 776.603 583.594 769.463 570.11C757.134 546.823 758.308 512.282 758.365 510.824C758.435 509.068 759.953 507.662 761.665 507.767C763.421 507.834 764.789 509.313 764.726 511.066C764.71 511.41 763.564 545.372 775.089 567.132C783.212 582.48 780.784 598.271 779.012 609.802C778.162 615.322 777.364 620.537 778.398 622.627C780.326 625.602 798.898 632.303 811.185 636.735C838.879 646.726 848.494 650.744 847.658 656.589C847.432 658.177 846.07 659.319 844.514 659.319Z" fill="#B31B1F"/>
<path d="M761.5 633.159C761.223 633.159 760.943 633.124 760.66 633.048C750.148 630.181 733.816 627.197 733.654 627.165C731.923 626.853 730.777 625.195 731.092 623.468C731.407 621.737 733.059 620.572 734.793 620.906C735.47 621.027 751.554 623.967 762.334 626.907C764.03 627.372 765.029 629.119 764.567 630.814C764.182 632.23 762.9 633.159 761.5 633.159Z" fill="#B31B1F"/>
<path d="M818.653 790.54C818.602 790.54 818.555 790.54 818.507 790.537C759.613 787.868 700.935 762.78 697.763 738.917C696.767 731.417 696.048 727.666 695.603 725.811C694.413 725.219 693.691 723.953 693.904 722.569C694.308 719.947 696.083 719.018 697.493 719.018H697.528C700.732 719.053 701.795 720.93 704.073 738.08C706.535 756.604 759.957 781.514 818.793 784.18C820.55 784.26 821.908 785.746 821.829 787.502C821.752 789.21 820.343 790.54 818.653 790.54Z" fill="#B31B1F"/>
<path d="M713.077 734.227C712.845 734.227 712.609 734.201 712.371 734.15C710.659 733.762 709.583 732.057 709.972 730.342C710.108 729.728 724.025 668.384 737.032 624.256C737.529 622.57 739.31 621.603 740.984 622.105C742.67 622.602 743.634 624.371 743.135 626.057C730.185 669.987 716.316 731.134 716.179 731.748C715.842 733.224 714.531 734.227 713.077 734.227Z" fill="#B31B1F"/>
<path d="M437 600.995C436.844 600.995 436.682 600.982 436.523 600.96C434.786 600.699 433.59 599.077 433.85 597.343C434.178 595.147 442.034 543.301 452.814 519.04C463.294 495.463 468.659 471.559 468.713 471.32C469.088 469.605 470.784 468.533 472.508 468.902C474.223 469.284 475.305 470.986 474.923 472.701C474.704 473.7 469.365 497.468 458.63 521.627C448.2 545.098 440.22 597.756 440.141 598.284C439.905 599.866 438.547 600.995 437 600.995Z" fill="#B31B1F"/>
<path d="M388.497 419.978C380.027 419.978 370.536 419.462 360.088 418.132C358.344 417.91 357.109 416.319 357.332 414.575C357.552 412.832 359.184 411.619 360.889 411.82C392.707 415.873 415.31 412.141 426.961 409.599C421.158 407.744 413.028 405.937 404.915 406.379C386.658 407.238 359.944 390.929 358.815 390.229C357.319 389.306 356.858 387.346 357.781 385.851C358.703 384.355 360.667 383.887 362.159 384.817C362.42 384.976 388.351 400.817 404.587 400.022C420.054 399.207 438.371 406.096 440.035 409.052C440.63 410.105 440.582 411.473 439.904 412.475C439.274 413.401 437.97 413.958 436.825 413.888C436.322 413.945 434.833 414.302 433.385 414.645C426.427 416.312 411.091 419.975 388.497 419.978Z" fill="#B31B1F"/>
<path d="M466.708 351.595C465.525 351.595 464.389 350.933 463.841 349.8C463.762 349.638 455.817 333.5 442.288 327.105C426.93 319.841 409.561 294.524 408.829 293.452C407.84 291.998 408.215 290.015 409.666 289.029C411.123 288.043 413.099 288.421 414.085 289.866C414.257 290.114 431.213 314.823 445.012 321.349C460.602 328.727 469.212 346.287 469.572 347.029C470.335 348.613 469.67 350.51 468.089 351.273C467.644 351.493 467.173 351.595 466.708 351.595Z" fill="#B31B1F"/>
<path d="M614.497 536.502C614.379 536.502 614.258 536.489 614.141 536.46C613.285 536.266 612.747 535.41 612.944 534.558C613.021 534.22 620.609 501.048 622.83 484.197C626.289 457.926 614.522 448.762 614.405 448.673C613.702 448.145 613.555 447.152 614.077 446.449C614.599 445.743 615.585 445.593 616.292 446.112C616.842 446.516 629.709 456.319 625.983 484.611C623.746 501.614 616.123 534.933 616.047 535.264C615.878 536.005 615.222 536.502 614.497 536.502Z" fill="#08824F"/>
<path d="M520.663 488.658L517.503 488.292C517.503 488.292 519.972 466.812 521.261 456.252C522.562 445.599 525.601 438.326 525.731 438.02C526.072 437.206 527.007 436.837 527.815 437.171C528.623 437.514 529.002 438.45 528.662 439.258C528.63 439.328 525.661 446.455 524.42 456.64C523.132 467.19 520.663 488.654 520.663 488.658Z" fill="#08824F"/>
<path d="M611.008 841.386C592.863 841.386 582.885 840.788 569.076 839.961C551.312 838.895 526.988 837.438 470.143 836.553C468.387 836.528 466.984 835.083 467.012 833.324C467.041 831.568 468.587 830.104 470.242 830.19C527.227 831.074 551.634 832.541 569.455 833.61C583.155 834.428 593.05 835.023 611.008 835.023C633.487 835.023 653.653 832.56 673.157 830.18C690.278 828.087 706.447 826.114 723.778 825.729C760.747 824.915 788.374 825.726 788.647 825.729C790.404 825.786 791.785 827.253 791.73 829.006C791.676 830.763 790.194 832.064 788.456 832.092C788.183 832.083 760.712 831.268 723.921 832.092C706.905 832.468 690.885 834.425 673.927 836.496C654.235 838.901 633.875 841.386 611.008 841.386Z" fill="#B31B1F"/>
<path d="M755.143 798.933C753.562 798.933 751.977 798.224 750.597 796.136C746.298 789.642 745 789.108 736.689 790.387C729.171 791.561 726.202 786.232 724.236 782.709C723.58 781.532 722.957 780.422 722.413 779.992C720.949 778.837 717.293 780.224 715.747 781.077L714.204 778.296C714.878 777.921 720.873 774.723 724.385 777.495C725.426 778.319 726.161 779.636 727.014 781.157C728.913 784.552 730.879 788.048 736.202 787.243C745.716 785.773 748.258 786.846 753.25 794.38C754.574 796.385 755.719 796.111 759.248 794.052C761.927 792.481 765.99 790.11 769.019 794.342L766.435 796.194C765.255 794.555 764.186 794.851 760.851 796.798C759.257 797.73 757.202 798.933 755.143 798.933Z" fill="white"/>
<path d="M718.124 649.085C718.124 649.085 642.125 621.605 609.153 635.662C576.181 649.715 549.009 685.949 554.042 688.345C559.076 690.744 586.012 669.852 586.012 669.852C586.012 669.852 558.544 697.61 563.638 700.388C568.732 703.165 595.201 688.345 595.201 688.345C595.201 688.345 576.725 708.097 584.66 709.608C592.595 711.12 609.608 694.845 627.349 694.234C645.094 693.62 667.455 707.642 689.638 711.59C711.818 715.536 718.124 649.085 718.124 649.085Z" fill="#FFCEB0"/>
<path d="M832.818 634.841C832.621 634.841 832.423 634.821 832.223 634.783C832 634.745 809.62 630.513 782.865 625.073C781.143 624.723 780.03 623.043 780.38 621.321C780.727 619.6 782.403 618.486 784.131 618.84C810.842 624.268 833.184 628.49 833.407 628.534C835.134 628.859 836.267 630.523 835.939 632.251C835.653 633.778 834.317 634.841 832.818 634.841Z" fill="#B31B1F"/>
<path fill-rule="evenodd" clip-rule="evenodd" d="M620.41 134.77C619.579 134.77 618.676 134.867 617.697 135.06C615.312 135.539 613.767 136.698 612.839 138.709C608.702 147.662 617.424 168.987 623.656 181.586C627.507 167.61 632.122 144.248 625.601 136.887C624.345 135.471 622.636 134.77 620.41 134.77ZM623.839 192.049C623.939 192.068 624.04 192.082 624.142 192.091C624.474 192.219 624.828 192.284 625.186 192.284C625.517 192.284 625.849 192.23 626.172 192.112C630.422 190.563 667.844 176.528 672.505 160.356C673.626 156.467 672.837 152.633 670.225 149.274C665.782 143.554 660.982 142.874 657.735 143.306C648.524 144.535 639.457 156.435 632.808 167.74C635.16 154.863 636.066 139.993 629.922 133.057C627.755 130.608 623.673 127.984 616.568 129.399C612.398 130.23 609.294 132.616 607.598 136.29C601.32 149.887 615.762 179.17 620.575 188.244C614.506 189.416 608.402 189.68 602.563 189.283C589.984 188.428 578.834 184.517 572.177 180.237L569.798 183.938C577.164 188.674 589.052 192.775 602.265 193.673C609.194 194.144 616.543 193.737 623.839 192.049ZM659.327 148.971C659.054 148.971 658.777 148.988 658.5 149.03C648.744 150.328 636.957 171.018 630.725 184.108C643.68 178.653 664.228 168.234 666.957 158.76C667.571 156.627 667.159 154.741 665.668 152.818C663.661 150.235 661.582 148.971 659.327 148.971Z" fill="#FFD310"/>
<path d="M197.27 243.75H310.515C317.784 243.75 324.662 247.045 329.218 252.711L362.458 294.048C367.173 299.911 374.363 303.224 381.883 302.998L594.85 296.597" stroke="#FFB2B1" stroke-width="5" stroke-linejoin="round"/>
<path d="M209.361 244.266C209.361 249.302 205.279 253.384 200.243 253.384C195.207 253.384 191.124 249.302 191.124 244.266C191.124 239.23 195.207 235.148 200.243 235.148C205.279 235.148 209.361 239.23 209.361 244.266Z" fill="#FF383D"/>
<path d="M11.0007 244.367C11.0007 205.357 42.625 173.733 81.6348 173.733C120.645 173.733 152.266 205.357 152.266 244.367C152.266 283.377 120.645 315.001 81.6348 315.001C42.625 315.001 11.0007 283.377 11.0007 244.367Z" fill="#FFE1E2"/>
<path d="M81.3303 156.491C130.103 156.491 169.64 196.029 169.64 244.801C169.64 293.573 130.103 333.114 81.3303 333.114V376.725" stroke="#FFD6D7" stroke-width="2.4" stroke-miterlimit="10"/>
<path d="M74.0679 378.928C74.0679 374.917 77.3185 371.666 81.3301 371.666C85.3418 371.666 88.5924 374.917 88.5924 378.928C88.5924 382.94 85.3418 386.19 81.3301 386.19C77.3185 386.19 74.0679 382.94 74.0679 378.928Z" fill="#F2AEB0"/>
<path d="M650.77 358.046H819.584C828.398 358.046 836.503 362.878 840.695 370.631L871.944 428.42C876.136 436.173 884.241 441.004 893.055 441.004H975.84" stroke="#FFB2B1" stroke-width="5" stroke-linejoin="round"/>
<path d="M979.944 440.905C979.944 445.941 975.862 450.024 970.826 450.024C965.79 450.024 961.708 445.941 961.708 440.905C961.708 435.869 965.79 431.787 970.826 431.787C975.862 431.787 979.944 435.869 979.944 440.905Z" fill="#FF383D"/>
<path opacity="0.15" d="M1005.73 459.367C1005.73 420.357 1037.36 388.733 1076.37 388.733C1115.38 388.733 1147 420.357 1147 459.367C1147 498.377 1115.38 530.001 1076.37 530.001C1037.36 530.001 1005.73 498.377 1005.73 459.367Z" fill="#FF383D"/>
<path d="M1081.03 371.266C1129.8 371.266 1169.34 410.804 1169.34 459.579C1169.34 508.351 1129.8 547.889 1081.03 547.889V591.502" stroke="#FFD6D7" stroke-width="2.4" stroke-miterlimit="10"/>
<path d="M1073.77 593.705C1073.77 589.693 1077.02 586.443 1081.03 586.443C1085.04 586.443 1088.29 589.693 1088.29 593.705C1088.29 597.717 1085.04 600.967 1081.03 600.967C1077.02 600.967 1073.77 597.717 1073.77 593.705Z" fill="#F2AEB0"/>
<path opacity="0.15" d="M11.0007 730.367C11.0007 691.357 42.625 659.733 81.6348 659.733C120.645 659.733 152.266 691.357 152.266 730.367C152.266 769.377 120.645 801.001 81.6348 801.001C42.625 801.001 11.0007 769.377 11.0007 730.367Z" fill="#FF383D"/>
<path d="M81.3325 642.643C130.105 642.643 169.643 682.181 169.643 730.953C169.643 779.728 130.105 819.266 81.3325 819.266V862.877" stroke="#FFD6D7" stroke-width="2.4" stroke-miterlimit="10"/>
<path d="M74.0701 865.081C74.0701 861.069 77.3207 857.819 81.3323 857.819C85.344 857.819 88.5946 861.069 88.5946 865.081C88.5946 869.09 85.344 872.343 81.3323 872.343C77.3207 872.343 74.0701 869.09 74.0701 865.081Z" fill="#F2AEB0"/>
<path d="M186.74 742.835H365.033C374.666 742.835 383.365 737.075 387.127 728.208L443.54 595.234C447.302 586.366 456.002 580.607 465.634 580.607H672.809" stroke="#FFB2B1" stroke-width="5" stroke-linejoin="round"/>
<path d="M201.987 743.241C201.987 748.277 197.904 752.36 192.868 752.36C187.832 752.36 183.75 748.277 183.75 743.241C183.75 738.205 187.832 734.123 192.868 734.123C197.904 734.123 201.987 738.205 201.987 743.241Z" fill="#FF383D"/>
<path opacity="0.15" d="M159.268 488.367C159.268 449.357 127.644 417.733 88.6338 417.733C49.624 417.733 17.9998 449.357 17.9998 488.367C17.9998 527.377 49.624 559.001 88.6338 559.001C127.644 559.001 159.268 527.377 159.268 488.367Z" fill="#FF383D"/>
<path d="M89.9726 400.026C41.2003 400.026 1.6626 439.564 1.6626 488.339C1.6626 537.111 41.2003 576.649 89.9726 576.649V620.263" stroke="#FFD6D7" stroke-width="2.4" stroke-miterlimit="10"/>
<path d="M97.4327 622.546C97.4327 618.534 94.1821 615.283 90.1705 615.283C86.1615 615.283 82.9082 618.534 82.9082 622.546C82.9082 626.557 86.1615 629.808 90.1705 629.808C94.1821 629.808 97.4327 626.557 97.4327 622.546Z" fill="#F2AEB0"/>
<path d="M190.511 503.071H393.822C401.243 503.071 408.246 499.638 412.792 493.773L455.528 438.63C460.074 432.764 467.077 429.331 474.498 429.331H631.721" stroke="#FFB2B1" stroke-width="5" stroke-linejoin="round"/>
<path d="M200.761 503.587C200.761 508.623 196.678 512.705 191.642 512.705C186.606 512.705 182.524 508.623 182.524 503.587C182.524 498.551 186.606 494.468 191.642 494.468C196.678 494.468 200.761 498.551 200.761 503.587Z" fill="#FF383D"/>
<path opacity="0.13" d="M1160 700.367C1160 661.357 1128.38 629.733 1089.37 629.733C1050.36 629.733 1018.74 661.357 1018.74 700.367C1018.74 739.376 1050.36 771.001 1089.37 771.001C1128.38 771.001 1160 739.376 1160 700.367Z" fill="#FF383D"/>
<path d="M1089.87 613.802C1041.1 613.802 1001.56 653.34 1001.56 702.112C1001.56 750.887 1041.1 790.425 1089.87 790.425V834.036" stroke="#FFD6D7" stroke-width="2.4" stroke-miterlimit="10"/>
<path d="M1097.13 836.239C1097.13 832.228 1093.88 828.977 1089.86 828.977C1085.85 828.977 1082.6 832.228 1082.6 836.239C1082.6 840.248 1085.85 843.502 1089.86 843.502C1093.88 843.502 1097.13 840.248 1097.13 836.239Z" fill="#F2AEB0"/>
<path d="M725.738 754.401H816.846C824.124 754.401 831.009 751.099 835.565 745.422L861.096 713.606C865.651 707.93 872.536 704.627 879.814 704.627H973.995" stroke="#FFA6A6" stroke-width="5" stroke-linejoin="round"/>
<path d="M979.943 703.913C979.943 708.949 975.861 713.032 970.825 713.032C965.789 713.032 961.706 708.949 961.706 703.913C961.706 698.877 965.789 694.795 970.825 694.795C975.861 694.795 979.943 698.877 979.943 703.913Z" fill="#FF383D"/>
<path opacity="0.15" d="M1160 214.367C1160 175.357 1128.38 143.733 1089.37 143.733C1050.36 143.733 1018.74 175.357 1018.74 214.367C1018.74 253.377 1050.36 285.001 1089.37 285.001C1128.38 285.001 1160 253.377 1160 214.367Z" fill="#FF383D"/>
<path d="M1089.87 127.65C1041.1 127.65 1001.56 167.188 1001.56 215.96C1001.56 264.733 1041.1 304.273 1089.87 304.273V347.884" stroke="#FFD6D7" stroke-width="2.4" stroke-miterlimit="10"/>
<path d="M1097.13 350.088C1097.13 346.076 1093.88 342.826 1089.87 342.826C1085.86 342.826 1082.61 346.076 1082.61 350.088C1082.61 354.1 1085.86 357.35 1089.87 357.35C1093.88 357.35 1097.13 354.1 1097.13 350.088Z" fill="#F2AEB0"/>
<path d="M975.839 222.86H849.559C843.442 222.86 837.555 225.196 833.102 229.391L804.567 256.272C800.114 260.466 794.228 262.802 788.11 262.802H674.12" stroke="#FFB2B1" stroke-width="5" stroke-linejoin="round"/>
<path d="M979.941 222.146C979.941 227.182 975.859 231.265 970.822 231.265C965.786 231.265 961.704 227.182 961.704 222.146C961.704 217.11 965.786 213.028 970.822 213.028C975.859 213.028 979.941 217.11 979.941 222.146Z" fill="#FF383D"/>
<defs>
<linearGradient id="paint0_linear" x1="279.615" y1="651.802" x2="343.866" y2="780.176" gradientUnits="userSpaceOnUse">
<stop stop-color="#FFC8C8"/>
<stop offset="1" stop-color="#FFF2F5"/>
</linearGradient>
<linearGradient id="paint1_linear" x1="911.18" y1="248.5" x2="389.511" y2="38.2379" gradientUnits="userSpaceOnUse">
<stop stop-color="white"/>
<stop offset="1" stop-color="#FFD5D5"/>
</linearGradient>
<linearGradient id="paint2_linear" x1="843.946" y1="153.536" x2="682.873" y2="126.968" gradientUnits="userSpaceOnUse">
<stop stop-color="#FFD3D3"/>
<stop offset="1" stop-color="#FFF6F6"/>
</linearGradient>
<linearGradient id="paint3_linear" x1="205.431" y1="428.026" x2="962.765" y2="428.026" gradientUnits="userSpaceOnUse">
<stop stop-color="#FFF8F5"/>
<stop offset="1" stop-color="#FFDEDE"/>
</linearGradient>
<linearGradient id="paint4_linear" x1="893.009" y1="609.535" x2="694.623" y2="627.819" gradientUnits="userSpaceOnUse">
<stop stop-color="#FFC2C2"/>
<stop offset="1" stop-color="white"/>
</linearGradient>
</defs>
</svg>
