<svg width="904" height="797" viewBox="0 0 904 797" fill="none" xmlns="http://www.w3.org/2000/svg">
<g opacity="0.62">
<path d="M363.162 686.584C323.292 695.918 283.863 697.897 243.42 685.461C198.342 671.596 162.776 627.754 144.571 585.949C137.806 570.421 132.941 553.369 135.679 536.658C142.02 498.054 179.184 497.787 209.625 507.524C226.785 513.005 242.01 522.834 257.059 532.565C282.045 548.731 312.354 558.681 334.035 579.651C341.308 586.705 346.462 594.781 355.211 600.297C368.821 608.883 384.875 614.006 398.943 622.006C410.952 628.865 424.056 639.408 422.549 653.149C420.987 667.239 405.29 674.586 391.751 678.761C382.165 681.743 372.658 684.376 363.162 686.584Z" fill="url(#paint0_linear)"/>
<path d="M277.559 170.06C350.681 84.4272 484.752 61.669 586.215 108.181C635.139 130.618 673.822 170.323 709.05 210.994C740.103 246.84 769.843 285.086 788.908 328.852C801.927 358.727 809.74 393.674 814.406 426.007C821.375 474.418 803.571 533.821 743.234 522.625C729.077 520 717.3 513.497 704.451 507.526C694.058 502.687 683.234 503.696 672.222 500.673C644.501 493.073 618.473 479.666 594.119 464.645C544.492 434.009 500.371 394.975 448.914 367.244C406.741 344.542 360.615 330.117 313.022 324.748C292.943 322.486 271.672 321.547 254.704 310.573C212.887 283.505 239.429 225.981 259.696 194.214C265.07 185.749 271.04 177.678 277.559 170.06V170.06Z" fill="url(#paint1_linear)"/>
<path d="M768.721 238.738C778.026 249.256 815.834 279.349 819.949 249.417C820.964 241.96 818.378 234.322 814.37 228.333C809.787 221.46 804.165 217.498 800.854 209.717C796.789 200.314 791.968 191.366 786.451 182.987C775.207 165.575 761.646 149.135 743.935 140.515C731.512 134.474 709.485 133.201 701.5 149.095C689.87 172.233 727.653 180.904 738.348 190.994C748.501 200.548 753.187 215.547 760.7 227.889C763.075 231.781 765.76 235.412 768.721 238.738V238.738Z" fill="url(#paint2_linear)"/>
<path d="M580.668 188.148C601.149 203.482 615.443 224.619 633.696 242.39C664.085 271.973 709.09 282.331 745.237 304.571C782.092 327.259 808.293 359.069 817.004 401.691C828.263 456.707 822.881 520.05 802.244 573.035C779.521 631.356 737.395 667.096 679.326 687.603C621.291 708.097 558.895 713.741 497.753 709.546C491.853 709.147 485.975 708.632 480.084 708.016C347.792 694.106 176.982 628.034 147.738 481.014C147.47 479.67 147.218 478.329 146.968 476.969C144.086 460.631 143.171 444.007 144.242 427.451C147.894 368.744 165.269 305.427 191.818 252.959C209.679 217.634 242.788 189.765 276.496 171.03C323.856 144.711 378.3 142.697 432.023 144.872C471.805 146.485 516.314 150.402 551.966 169.645C561.982 175.087 571.577 181.272 580.668 188.148Z" fill="url(#paint3_linear)"/>
</g>
<path d="M470.332 385.382C471.242 389.413 475.248 391.943 479.279 391.033L495.88 387.286C504.331 385.378 513.117 385.431 521.522 387.534C524.027 388.162 526.74 388.148 529.43 387.349C536.557 385.232 541.095 378.022 539.923 370.68C538.548 362.06 530.224 356.52 521.844 358.412C519.574 358.924 517.542 359.927 515.835 361.285C508.985 366.732 501.119 370.761 492.582 372.688L475.984 376.435C471.953 377.344 469.422 381.35 470.332 385.382Z" fill="#FB4C47"/>
<path d="M382.123 455.1C379.235 453.276 375.414 454.138 373.589 457.027L366.074 468.923C362.249 474.979 357.082 480.084 350.939 483.768C349.107 484.866 347.53 486.46 346.425 488.499C343.495 493.904 345.057 500.772 350.035 504.379C355.878 508.614 363.983 506.987 367.776 500.982C368.804 499.355 369.405 497.581 369.61 495.79C370.43 488.6 372.673 481.647 376.537 475.529L384.05 463.636C385.874 460.746 385.012 456.925 382.123 455.1V455.1Z" fill="#C63F3B"/>
<path d="M449.9 347.811C452.923 349.72 456.921 348.818 458.83 345.795L466.694 333.347C470.697 327.01 476.104 321.667 482.532 317.813C484.448 316.663 486.099 314.996 487.256 312.861C490.321 307.206 488.687 300.019 483.478 296.244C477.363 291.813 468.882 293.515 464.912 299.799C463.837 301.501 463.208 303.358 462.994 305.232C462.135 312.755 459.789 320.032 455.745 326.434L447.883 338.88C445.974 341.903 446.877 345.901 449.9 347.811V347.811Z" fill="#C63F3B"/>
<path d="M430.449 448.531C426.418 449.44 423.888 453.446 424.798 457.478L428.545 474.078C430.453 482.529 430.4 491.315 428.296 499.72C427.669 502.225 427.683 504.938 428.482 507.628C430.599 514.755 437.809 519.293 445.151 518.121C453.771 516.746 459.311 508.422 457.419 500.042C456.907 497.772 455.904 495.74 454.546 494.033C449.099 487.183 445.07 479.318 443.143 470.78L439.396 454.182C438.486 450.151 434.48 447.621 430.449 448.531V448.531Z" fill="#FB4C47"/>
<path d="M454.544 494.033C449.096 487.183 445.067 479.318 443.14 470.78L439.393 454.182C438.483 450.151 434.478 447.62 430.446 448.53C426.415 449.44 423.884 453.446 424.794 457.477L428.541 474.076C430.468 482.613 434.497 490.478 439.945 497.329C441.302 499.035 442.305 501.067 442.818 503.337C444.037 508.736 442.167 514.109 438.381 517.618C440.519 518.29 442.827 518.492 445.148 518.122C453.768 516.746 459.308 508.423 457.417 500.042C456.904 497.772 455.901 495.74 454.544 494.033V494.033Z" fill="#C63F3B"/>
<path d="M357.536 379.164C370.705 376.191 378.971 363.105 375.998 349.936C373.026 336.767 359.94 328.502 346.771 331.474C333.602 334.447 325.336 347.532 328.309 360.701C331.282 373.87 344.367 382.136 357.536 379.164Z" fill="#FF8F8C"/>
<path d="M346.776 331.474C344.23 332.049 341.869 333.006 339.735 334.265C350.028 335.182 359.007 342.61 361.404 353.232C363.802 363.854 358.885 374.419 349.984 379.669C352.452 379.889 354.994 379.739 357.541 379.164C370.71 376.191 378.976 363.106 376.003 349.937C373.031 336.767 359.945 328.502 346.776 331.474V331.474Z" fill="#FB4C47"/>
<path d="M436.393 474.87C479.393 465.164 506.383 422.437 496.677 379.437C486.97 336.436 444.243 309.447 401.243 319.153C358.243 328.86 331.253 371.587 340.959 414.587C350.666 457.587 393.393 484.577 436.393 474.87Z" fill="#FB4C47"/>
<path d="M401.243 319.153C398.782 319.708 396.375 320.377 394.022 321.144C434.429 315.891 472.928 342.193 482.079 382.731C491.23 423.269 467.763 463.56 429.017 476.174C431.471 475.855 433.932 475.426 436.394 474.87C479.395 465.163 506.384 422.436 496.678 379.436C486.971 336.436 444.244 309.446 401.243 319.153V319.153Z" fill="#C63F3B"/>
<path d="M445.579 379.622C454.314 377.65 459.796 368.971 457.824 360.237C455.853 351.502 447.174 346.02 438.439 347.992C429.705 349.963 424.222 358.642 426.194 367.377C428.166 376.111 436.845 381.594 445.579 379.622Z" fill="#C63F3B"/>
<path d="M438.438 347.992C435.804 348.586 433.469 349.794 431.541 351.426C437.196 352.922 441.847 357.432 443.224 363.532C444.601 369.633 442.339 375.703 437.875 379.483C440.316 380.129 442.944 380.216 445.578 379.622C454.312 377.65 459.794 368.971 457.823 360.237C455.851 351.502 447.172 346.02 438.438 347.992V347.992Z" fill="white"/>
<path d="M400.271 444.415C406.183 443.081 409.894 437.206 408.56 431.293C407.225 425.38 401.35 421.669 395.437 423.004C389.525 424.338 385.813 430.214 387.148 436.126C388.483 442.039 394.358 445.75 400.271 444.415Z" fill="white"/>
<path d="M488.117 457.398C496.18 455.578 501.24 447.567 499.42 439.504C497.6 431.441 489.589 426.381 481.526 428.201C473.464 430.021 468.403 438.032 470.223 446.095C472.043 454.157 480.055 459.218 488.117 457.398Z" fill="#FB4C47"/>
<path d="M481.525 428.201C478.865 428.802 476.535 430.079 474.668 431.807C479.6 433.346 483.601 437.397 484.821 442.8C486.041 448.203 484.167 453.58 480.375 457.089C482.803 457.847 485.456 458 488.116 457.399C496.179 455.579 501.24 447.568 499.42 439.505C497.6 431.443 489.588 426.381 481.525 428.201V428.201Z" fill="#C63F3B"/>
<path d="M367.295 408.64C368.205 412.671 365.675 416.677 361.643 417.587L345.043 421.335C336.592 423.242 328.68 427.064 321.994 432.574C320.001 434.217 317.546 435.369 314.773 435.804C307.428 436.954 300.233 432.392 298.137 425.259C295.676 416.884 300.813 408.305 309.193 406.414C311.463 405.901 313.729 405.934 315.853 406.427C324.379 408.403 333.213 408.663 341.75 406.736L358.348 402.989C362.379 402.079 366.385 404.609 367.295 408.64Z" fill="#C63F3B"/>
<path d="M407.194 345.493C411.226 344.583 413.756 340.577 412.846 336.546L409.099 319.945C407.191 311.494 407.244 302.708 409.347 294.304C409.975 291.798 409.961 289.086 409.162 286.396C407.045 279.268 399.835 274.73 392.493 275.902C383.873 277.278 378.333 285.601 380.225 293.982C380.737 296.252 381.74 298.284 383.098 299.99C388.545 306.841 392.574 314.706 394.501 323.243L398.248 339.842C399.157 343.872 403.163 346.403 407.194 345.493Z" fill="#FB4C47"/>
<path d="M409.163 286.396C407.046 279.268 399.836 274.73 392.494 275.902C389.427 276.391 386.754 277.763 384.662 279.701C389.287 281.156 393.116 284.817 394.564 289.691C395.363 292.381 395.377 295.094 394.749 297.599C392.646 306.003 392.593 314.79 394.501 323.241L398.248 339.841C399.158 343.872 403.164 346.403 407.195 345.493C411.227 344.583 413.757 340.578 412.847 336.546L409.1 319.945C407.192 311.494 407.245 302.708 409.348 294.304C409.975 291.798 409.962 289.086 409.163 286.396V286.396Z" fill="#C63F3B"/>
<path d="M523.312 359.068C521.035 359.538 518.986 360.503 517.255 361.828C516.949 362.062 516.638 362.291 516.329 362.519C521.548 364.227 525.671 368.762 526.505 374.684C527.218 379.748 525.23 384.7 521.586 387.943C521.876 388.016 522.167 388.086 522.456 388.163C524.948 388.836 527.659 388.872 530.362 388.123C537.523 386.138 542.19 379.017 541.153 371.659C539.937 363.02 531.721 357.331 523.312 359.068V359.068Z" fill="#C63F3B"/>
<g opacity="0.63">
<path d="M551.022 541.292C551.919 543.195 554.188 544.01 556.091 543.113L563.927 539.42C567.916 537.539 572.288 536.596 576.697 536.714C578.011 536.75 579.357 536.443 580.606 535.75C583.914 533.911 585.374 529.828 583.982 526.308C582.347 522.177 577.6 520.342 573.644 522.207C572.572 522.712 571.673 523.435 570.975 524.297C568.172 527.76 564.708 530.63 560.678 532.53L552.843 536.223C550.94 537.119 550.125 539.389 551.022 541.292Z" fill="#FFC700"/>
<path d="M510.709 575.602C509.072 575.014 507.269 575.864 506.681 577.501L504.259 584.241C503.026 587.672 501.022 590.779 498.376 593.288C497.587 594.035 496.979 595.001 496.655 596.137C495.795 599.145 497.329 602.386 500.2 603.629C503.571 605.089 507.419 603.387 508.642 599.984C508.973 599.062 509.076 598.114 508.98 597.202C508.594 593.539 508.942 589.836 510.187 586.37L512.608 579.63C513.196 577.993 512.346 576.19 510.709 575.602V575.602Z" fill="#D09700"/>
<path d="M532.554 514.809C534.266 515.425 536.154 514.535 536.769 512.822L539.303 505.769C540.593 502.179 542.691 498.927 545.459 496.303C546.285 495.52 546.921 494.509 547.261 493.321C548.16 490.173 546.555 486.782 543.55 485.481C540.023 483.953 535.996 485.735 534.717 489.295C534.37 490.26 534.263 491.252 534.363 492.207C534.766 496.04 534.403 499.915 533.1 503.542L530.566 510.594C529.951 512.307 530.841 514.194 532.554 514.809V514.809Z" fill="#D09700"/>
<path d="M533.994 567.007C532.092 567.904 531.276 570.173 532.173 572.076L535.867 579.912C537.747 583.901 538.69 588.273 538.572 592.682C538.537 593.996 538.843 595.342 539.537 596.591C541.375 599.899 545.459 601.359 548.978 599.966C553.11 598.332 554.944 593.584 553.08 589.629C552.575 588.557 551.852 587.658 550.989 586.96C547.527 584.157 544.656 580.693 542.757 576.663L539.064 568.828C538.167 566.925 535.897 566.11 533.994 567.007V567.007Z" fill="#FFC700"/>
<path d="M550.989 586.958C547.527 584.155 544.657 580.691 542.757 576.661L539.064 568.826C538.167 566.924 535.897 566.108 533.994 567.005C532.091 567.902 531.276 570.172 532.173 572.075L535.866 579.909C537.766 583.939 540.636 587.403 544.098 590.206C544.961 590.905 545.684 591.804 546.189 592.875C547.39 595.424 547.054 598.3 545.56 600.461C546.696 600.559 547.866 600.405 548.978 599.965C553.11 598.33 554.945 593.583 553.08 589.627C552.575 588.555 551.852 587.656 550.989 586.958V586.958Z" fill="#D09700"/>
<path d="M490.114 540.581C496.33 537.651 498.994 530.236 496.064 524.02C493.134 517.805 485.72 515.141 479.504 518.071C473.288 521.001 470.624 528.415 473.554 534.631C476.484 540.847 483.898 543.511 490.114 540.581Z" fill="#D09700"/>
<path d="M479.505 518.07C478.303 518.637 477.235 519.373 476.313 520.234C481.53 519.554 486.811 522.255 489.174 527.268C491.537 532.282 490.26 538.074 486.416 541.665C487.666 541.502 488.913 541.147 490.115 540.58C496.331 537.65 498.995 530.236 496.065 524.02C493.135 517.804 485.72 515.14 479.505 518.07V518.07Z" fill="#FFC700"/>
<path d="M539.854 579.44C560.151 569.873 568.848 545.663 559.281 525.366C549.713 505.069 525.503 496.371 505.207 505.939C484.91 515.506 476.212 539.716 485.779 560.013C495.347 580.31 519.557 589.008 539.854 579.44Z" fill="#FFC700"/>
<path d="M505.213 505.939C504.051 506.487 502.929 507.085 501.844 507.725C521.344 500.657 543.377 509.48 552.396 528.614C561.416 547.749 554.2 570.359 536.338 580.902C537.522 580.473 538.698 579.988 539.86 579.44C560.157 569.873 568.855 545.663 559.287 525.366C549.72 505.069 525.51 496.371 505.213 505.939V505.939Z" fill="#D09700"/>
<path d="M528.922 533.036C530.423 532.328 531.066 530.538 530.359 529.037C529.651 527.536 527.861 526.892 526.36 527.6C524.859 528.308 524.215 530.098 524.923 531.599C525.631 533.1 527.421 533.743 528.922 533.036Z" fill="white"/>
<path d="M518.541 568.291C521.332 566.975 522.529 563.646 521.213 560.855C519.897 558.064 516.568 556.868 513.777 558.183C510.985 559.499 509.789 562.828 511.105 565.62C512.421 568.411 515.75 569.607 518.541 568.291Z" fill="white"/>
<path d="M505.275 542.129C509.549 540.114 511.38 535.017 509.366 530.744C507.351 526.471 502.254 524.639 497.981 526.654C493.708 528.668 491.876 533.765 493.891 538.038C495.905 542.312 501.002 544.143 505.275 542.129Z" fill="white"/>
<path d="M563.626 565.05C567.432 563.256 569.063 558.717 567.269 554.911C565.475 551.105 560.935 549.474 557.13 551.268C553.324 553.062 551.693 557.602 553.487 561.408C555.281 565.213 559.82 566.844 563.626 565.05Z" fill="#FFC700"/>
<path d="M557.131 551.269C555.875 551.861 554.858 552.753 554.121 553.817C556.742 554.038 559.177 555.61 560.379 558.16C561.581 560.711 561.244 563.589 559.746 565.751C561.037 565.86 562.372 565.643 563.628 565.051C567.434 563.257 569.064 558.718 567.27 554.912C565.476 551.106 560.937 549.475 557.131 551.269V551.269Z" fill="#D09700"/>
<path d="M498.215 554.152C499.112 556.055 498.297 558.325 496.394 559.222L488.558 562.915C484.569 564.796 481.059 567.568 478.344 571.043C477.535 572.08 476.442 572.923 475.113 573.445C471.589 574.827 467.51 573.354 465.682 570.04C463.535 566.15 465.141 561.321 469.097 559.456C470.169 558.951 471.298 558.717 472.408 558.728C476.863 558.769 481.281 557.924 485.311 556.024L493.146 552.331C495.048 551.434 497.318 552.249 498.215 554.152Z" fill="#D09700"/>
<path d="M511.071 518.372C512.973 517.475 513.789 515.206 512.892 513.303L509.198 505.467C507.318 501.478 506.375 497.106 506.493 492.697C506.528 491.383 506.222 490.037 505.528 488.788C503.69 485.48 499.606 484.02 496.087 485.413C491.955 487.047 490.121 491.795 491.985 495.751C492.49 496.822 493.213 497.721 494.076 498.419C497.539 501.223 500.409 504.686 502.308 508.716L506.001 516.551C506.898 518.454 509.168 519.269 511.071 518.372Z" fill="#FFC700"/>
<path d="M505.526 488.788C503.687 485.48 499.604 484.02 496.085 485.413C494.615 485.994 493.438 486.971 492.612 488.165C495.071 488.377 497.378 489.774 498.635 492.037C499.328 493.285 499.635 494.632 499.599 495.946C499.481 500.354 500.425 504.726 502.305 508.715L505.999 516.551C506.896 518.454 509.165 519.27 511.068 518.373C512.971 517.475 513.787 515.206 512.89 513.303L509.196 505.467C507.316 501.478 506.372 497.106 506.49 492.698C506.526 491.383 506.22 490.037 505.526 488.788V488.788Z" fill="#D09700"/>
</g>
<path d="M616.145 467.915C613.921 466.961 611.344 467.991 610.389 470.215L606.46 479.376C604.459 484.039 601.414 488.188 597.527 491.45C596.369 492.423 595.443 493.714 594.897 495.264C593.451 499.372 595.31 504.002 599.195 505.971C603.755 508.281 609.244 506.239 611.227 501.614C611.765 500.361 611.988 499.053 611.931 497.777C611.702 492.656 612.495 487.541 614.516 482.83L618.445 473.671C619.399 471.447 618.37 468.87 616.145 467.915Z" fill="#1DB776"/>
<path d="M613.407 402.119C615.265 401.376 616.17 399.268 615.427 397.41L612.369 389.757C610.812 385.861 610.167 381.655 610.532 377.476C610.641 376.23 610.427 374.934 609.84 373.709C608.284 370.462 604.49 368.841 601.069 369.962C597.051 371.277 595.037 375.68 596.581 379.543C596.999 380.59 597.634 381.485 598.413 382.198C601.54 385.058 604.067 388.512 605.639 392.448L608.697 400.099C609.44 401.957 611.549 402.862 613.407 402.119V402.119Z" fill="#128E5A"/>
<path d="M640.987 471.14C639.042 471.917 638.096 474.123 638.873 476.068L642.073 484.076C643.702 488.153 644.377 492.554 643.995 496.927C643.882 498.231 644.105 499.587 644.719 500.87C646.348 504.267 650.318 505.963 653.898 504.79C658.102 503.414 660.21 498.806 658.595 494.764C658.157 493.669 657.493 492.732 656.677 491.986C653.405 488.993 650.761 485.379 649.115 481.261L645.915 473.254C645.138 471.309 642.932 470.363 640.987 471.14V471.14Z" fill="#128E5A"/>
<path d="M599.908 427.292C600.862 425.067 599.833 422.49 597.608 421.536L588.447 417.606C583.784 415.606 579.635 412.561 576.373 408.674C575.401 407.515 574.109 406.59 572.559 406.044C568.452 404.597 563.821 406.457 561.853 410.341C559.542 414.902 561.585 420.39 566.209 422.374C567.462 422.911 568.77 423.134 570.046 423.077C575.167 422.849 580.282 423.642 584.993 425.663L594.152 429.592C596.377 430.546 598.954 429.516 599.908 427.292V427.292Z" fill="#1DB776"/>
<path d="M570.048 423.078C575.169 422.849 580.284 423.642 584.995 425.663L594.154 429.592C596.379 430.546 598.956 429.517 599.91 427.292C600.864 425.067 599.835 422.491 597.61 421.536L588.451 417.607C583.74 415.586 578.625 414.794 573.504 415.022C572.228 415.079 570.919 414.856 569.667 414.319C566.687 413.041 564.782 410.308 564.42 407.306C563.366 408.088 562.477 409.113 561.854 410.342C559.544 414.902 561.586 420.391 566.211 422.375C567.464 422.912 568.772 423.135 570.048 423.078V423.078Z" fill="#128E5A"/>
<path d="M657.868 416.562C654.75 423.829 658.114 432.247 665.381 435.364C672.648 438.481 681.067 435.117 684.184 427.85C687.301 420.583 683.937 412.165 676.67 409.048C669.403 405.931 660.985 409.295 657.868 416.562Z" fill="#128E5A"/>
<path d="M684.186 427.853C684.788 426.447 685.146 424.999 685.283 423.554C681.31 428.12 674.701 429.825 668.839 427.31C662.978 424.796 659.658 418.832 660.228 412.806C659.275 413.901 658.472 415.158 657.87 416.564C654.752 423.831 658.116 432.249 665.383 435.366C672.65 438.484 681.069 435.119 684.186 427.853V427.853Z" fill="#1DB776"/>
<path d="M585.372 421.058C575.194 444.786 586.178 472.273 609.906 482.452C633.635 492.63 661.122 481.646 671.3 457.918C681.479 434.189 670.494 406.702 646.766 396.524C623.038 386.345 595.551 397.33 585.372 421.058Z" fill="#1DB776"/>
<path d="M671.309 457.918C671.892 456.56 672.402 455.189 672.847 453.809C661.448 474.777 635.74 483.992 613.371 474.397C591.001 464.801 579.961 439.823 587.298 417.112C586.606 418.386 585.964 419.7 585.381 421.059C575.203 444.787 586.187 472.274 609.915 482.453C633.644 492.631 661.13 481.647 671.309 457.918V457.918Z" fill="#128E5A"/>
<path d="M627.381 458.155C625.313 462.975 627.544 468.559 632.364 470.626C637.184 472.694 642.767 470.462 644.835 465.643C646.902 460.823 644.671 455.239 639.851 453.172C635.031 451.104 629.448 453.336 627.381 458.155Z" fill="#128E5A"/>
<path d="M644.845 465.643C645.468 464.19 645.698 462.667 645.587 461.192C642.933 463.36 639.196 464.015 635.83 462.571C632.463 461.127 630.362 457.967 630.104 454.551C628.959 455.487 628.014 456.703 627.391 458.156C625.323 462.976 627.554 468.559 632.374 470.627C637.194 472.694 642.777 470.463 644.845 465.643V465.643Z" fill="white"/>
<path d="M612.234 414.395C610.835 417.658 612.345 421.438 615.608 422.838C618.871 424.237 622.651 422.727 624.05 419.464C625.45 416.201 623.939 412.421 620.677 411.022C617.414 409.622 613.634 411.132 612.234 414.395Z" fill="white"/>
<path d="M575.877 451.591C573.969 456.041 576.028 461.196 580.478 463.104C584.928 465.013 590.082 462.953 591.991 458.504C593.9 454.054 591.84 448.899 587.39 446.991C582.941 445.082 577.786 447.142 575.877 451.591Z" fill="#1DB776"/>
<path d="M591.995 458.503C592.625 457.035 592.82 455.491 592.643 454.011C590.217 455.821 586.92 456.326 583.938 455.047C580.956 453.768 579.05 451.031 578.69 448.026C577.495 448.917 576.511 450.123 575.881 451.591C573.972 456.041 576.032 461.195 580.482 463.104C584.931 465.012 590.086 462.953 591.995 458.503V458.503Z" fill="#128E5A"/>
<path d="M640.533 411.059C638.309 410.104 637.279 407.528 638.233 405.303L642.163 396.142C644.163 391.479 645.07 386.413 644.756 381.349C644.662 379.839 644.959 378.278 645.706 376.814C647.686 372.935 652.322 371.091 656.426 372.55C661.243 374.262 663.546 379.646 661.562 384.271C661.025 385.524 660.23 386.587 659.266 387.425C655.398 390.789 652.238 394.888 650.217 399.599L646.289 408.759C645.335 410.983 642.758 412.013 640.533 411.059Z" fill="#128E5A"/>
<path d="M656.768 451.684C655.814 453.908 656.844 456.485 659.068 457.439L668.229 461.369C672.892 463.369 677.041 466.415 680.303 470.301C681.276 471.46 682.567 472.386 684.117 472.932C688.225 474.378 692.855 472.519 694.824 468.634C697.134 464.074 695.092 458.585 690.467 456.601C689.214 456.064 687.906 455.841 686.63 455.898C681.509 456.127 676.394 455.334 671.683 453.313L662.524 449.384C660.3 448.429 657.722 449.459 656.768 451.684Z" fill="#1DB776"/>
<path d="M684.116 472.93C688.224 474.376 692.854 472.517 694.823 468.632C695.645 467.01 695.913 465.27 695.713 463.612C693.434 465.305 690.381 465.863 687.572 464.874C686.022 464.328 684.731 463.402 683.758 462.243C680.496 458.357 676.347 455.312 671.684 453.311L662.523 449.382C660.299 448.427 657.722 449.457 656.767 451.682C655.813 453.906 656.843 456.483 659.067 457.438L668.228 461.367C672.891 463.367 677.04 466.413 680.302 470.299C681.275 471.458 682.566 472.384 684.116 472.93V472.93Z" fill="#128E5A"/>
<path d="M611.224 501.62C611.761 500.367 611.984 499.06 611.927 497.784C611.917 497.559 611.911 497.333 611.905 497.107C609.336 499.043 605.775 499.505 602.651 497.922C599.978 496.568 598.265 493.953 597.928 491.116C597.796 491.231 597.664 491.347 597.53 491.46C596.372 492.432 595.447 493.722 594.901 495.272C593.455 499.378 595.314 504.007 599.197 505.974C603.755 508.284 609.241 506.242 611.224 501.62V501.62Z" fill="#128E5A"/>
<defs>
<linearGradient id="paint0_linear" x1="131.679" y1="541.64" x2="156.137" y2="684.253" gradientUnits="userSpaceOnUse">
<stop stop-color="#FFD8D8"/>
<stop offset="1" stop-color="#FFF8F8"/>
</linearGradient>
<linearGradient id="paint1_linear" x1="828.453" y1="314.983" x2="440.061" y2="4.94954" gradientUnits="userSpaceOnUse">
<stop stop-color="#FFF8F8"/>
<stop offset="1" stop-color="#FFCFCF"/>
</linearGradient>
<linearGradient id="paint2_linear" x1="821.063" y1="249.008" x2="675.48" y2="166.765" gradientUnits="userSpaceOnUse">
<stop stop-color="#FFD7D7"/>
<stop offset="1" stop-color="#FFF9F9"/>
</linearGradient>
<linearGradient id="paint3_linear" x1="738.776" y1="675.645" x2="163.886" y2="251.647" gradientUnits="userSpaceOnUse">
<stop stop-color="#FFCFCF"/>
<stop offset="1" stop-color="#FFF8F8"/>
</linearGradient>
</defs>
</svg>
