<svg width="730" height="503" viewBox="0 0 730 503" fill="none" xmlns="http://www.w3.org/2000/svg">
<g opacity="0.67">
<path d="M198.88 226.693L187.646 230.438L198.671 223.508C198.581 222.45 198.47 221.385 198.336 220.31L192.404 221.451L198.018 217.976C196.734 209.695 193.875 199.302 189.953 188.694L168.087 197.133L188.982 186.116C183.495 171.863 176.164 157.506 168.209 147.604L156.456 155.899L165.827 144.793C158.587 136.741 150.942 132.643 143.769 135.811C135.054 139.662 132.556 158.335 135.239 180.851L141.126 180.746L135.37 181.897C136.608 191.751 138.826 202.298 141.938 212.64L164.386 205.063L142.954 215.912C147.694 230.692 154.263 244.837 162.407 255.677L171.258 246.826L164.067 257.812C170.925 266.334 178.828 272.513 187.646 274.844C187.646 274.844 200.125 253.873 198.88 226.693" fill="#03673D"/>
<path d="M188.932 274.844C188.932 274.844 201.41 253.873 200.166 226.693L188.932 230.438L199.957 223.508C199.867 222.45 199.756 221.385 199.622 220.31L193.69 221.451L199.304 217.976C198.02 209.695 195.161 199.302 191.239 188.695L169.373 197.133L190.268 186.117C184.781 171.863 177.45 157.506 169.495 147.604L157.742 155.901L167.113 144.793C159.873 136.741 152.228 132.643 145.055 135.811C145.055 135.811 177.685 213.598 188.298 274.658C188.51 274.718 188.72 274.787 188.932 274.844Z" fill="#04AD66"/>
<path d="M181.915 291.935L173.602 293.875L181.194 289.762C180.413 287.531 179.481 285.204 178.36 282.773C176.051 277.772 172.748 272.05 168.921 266.517L161.443 272.2L166.711 263.42C155.112 247.698 139.864 234.986 132.368 247.354C129.287 252.438 129.084 260.529 131.211 269.626L148.226 269.029L131.823 272.036C133.521 278.243 136.248 284.821 139.842 291.172L145.584 288.588L140.637 292.546C144.424 298.977 149.1 305.121 154.492 310.347L166.2 297.576L156.111 311.87C163.202 318.329 171.441 323.177 180.474 325.065C180.474 325.065 188.696 313.533 181.915 291.935" fill="#10794D"/>
<path d="M179.804 324.909C180.028 324.96 180.251 325.017 180.476 325.064C180.476 325.064 188.698 313.532 181.917 291.935L173.603 293.875L181.196 289.762C180.415 287.531 179.483 285.204 178.361 282.773C176.053 277.772 172.75 272.05 168.923 266.516L161.445 272.2L166.712 263.421C155.779 248.599 141.607 236.464 133.737 245.479C140.04 253.979 166.598 290.797 179.804 324.909Z" fill="#04AD66"/>
<path d="M156.29 315.732C151.647 311.345 143.363 305.958 133.746 301.005C129.581 307.162 124.932 314.116 124.132 315.639C124.017 315.911 123.975 316.004 124.027 315.865C124.045 315.813 124.081 315.736 124.132 315.639C124.805 314.042 128.063 306 130.702 299.474C124.933 296.64 118.792 294.008 112.734 291.859L109.448 307.498L110.956 291.241C92.0656 284.822 74.4551 283.427 72.2199 295.832C71.6021 299.26 72.8067 303.071 75.3858 307.06C82.6245 306.641 93.0958 305.968 93.0958 305.968L77.8317 310.395C83.4351 317.298 92.638 324.556 103.307 331.19L112.458 313.412L104.981 332.214C116.219 339.037 128.904 345.125 140.634 349.384C141.626 344.999 142.351 341.822 142.351 341.822L142.504 350.049C144.762 350.839 146.977 351.555 149.135 352.194L150.103 348.401L150.742 352.657C161.485 355.676 170.619 356.621 175.851 354.44C175.851 354.44 180.002 338.135 156.29 315.732" fill="#007248"/>
<path d="M221.367 198.596C232.685 170.716 248.165 164.897 254.491 165.472C264.981 164.092 265.532 182.379 264.497 191.695H248.625L264.497 194.8C264.221 209.706 260.241 225.624 258.286 231.719L238.619 227.924L258.286 234.48C253.317 253.25 245.864 270.594 242.759 276.919L222.747 267.603L241.724 278.989L239.309 283.13L233.788 282.095L238.619 284.51C230.062 301.9 214.121 309.008 207.22 310.388C201.424 303.487 199.744 290.261 199.629 284.51L209.98 282.095H199.629C198.525 272.158 201.93 254.952 203.77 247.591L211.706 251.041L204.115 245.866L205.15 242.415L222.057 247.591L206.53 237.93C208.186 228.269 216.191 209.292 219.987 201.011L230.683 202.391L221.367 198.596Z" fill="#096B42"/>
<path d="M238.785 285.095C230.05 302.309 214.163 309.61 207.312 311.109C217.589 240.197 244.78 184.573 257.091 165.625C265.57 167.166 265.762 184.038 264.799 192.281L249.062 191.638L264.799 194.529C263.771 211.486 260.517 226.644 259.018 232.104L237.822 227.608L258.055 234.352C253.173 255.42 245.744 271.606 242.639 277.066L223.048 267.431L241.997 278.993L239.427 283.489L233.968 282.204L238.785 285.095Z" fill="#0EA867"/>
<path fill-rule="evenodd" clip-rule="evenodd" d="M196.997 410.218C196.997 410.219 196.997 410.22 196.332 410.175L196.997 410.22C196.974 410.571 196.681 410.843 196.329 410.842C195.978 410.841 195.687 410.566 195.666 410.215C193.303 370.566 171.177 344.777 148.335 328.347C129.11 314.519 109.447 307.363 100.646 304.16C98.9812 303.554 97.705 303.09 96.8942 302.748C96.7401 302.683 96.6231 302.567 96.5547 302.428C87.6637 299.537 79.4937 297.501 72.681 296.078C72.6892 296.014 72.6953 295.949 72.7013 295.884C72.7111 295.779 72.7209 295.674 72.7396 295.57C74.9623 283.607 92.491 284.958 111.294 291.154L109.857 306.207C109.88 306.217 109.904 306.226 109.927 306.235L113.064 291.749C119.094 293.824 125.207 296.365 130.951 299.098C128.871 304.081 126.409 309.973 125.142 312.977C125.355 313.083 125.569 313.189 125.784 313.295C127.587 310.508 131.136 305.326 134.393 300.612C144.086 305.497 152.435 310.81 157.114 315.137C181.011 337.232 176.827 353.312 176.827 353.312C176.674 353.374 176.518 353.433 176.357 353.489C185.968 366.243 193.365 381.886 196.081 400.993C196.189 397.745 196.292 393.699 196.347 388.963C196.504 375.65 196.291 356.891 194.815 335.115C191.862 291.552 183.855 235.957 163.663 187.721C163.521 187.381 163.681 186.991 164.021 186.849C164.361 186.706 164.751 186.866 164.893 187.206C185.167 235.638 193.188 291.399 196.145 335.025C197.624 356.843 197.837 375.637 197.681 388.978C197.602 395.649 197.432 400.957 197.28 404.598C197.205 406.419 197.134 407.823 197.082 408.773C197.056 409.247 197.035 409.609 197.02 409.851C197.016 409.924 197.012 409.987 197.009 410.038L197.003 410.126L196.999 410.196L196.997 410.214L196.997 410.218Z" fill="#128E5A"/>
<path d="M150.869 269.557C150.869 269.557 196.331 332.994 196.331 410.175C203.204 275.373 238.143 201.915 238.143 201.915" stroke="#014D2D" stroke-miterlimit="10" stroke-linecap="round" stroke-linejoin="round"/>
<path d="M211.18 388.829H174.715C174.715 388.829 164.897 466.562 196.453 475.584C228.009 484.606 211.18 388.829 211.18 388.829Z" fill="#F52D29"/>
<path d="M217.59 388.829H183.401C183.401 388.829 175.665 466.561 200.529 475.584C240.071 480.037 217.59 388.829 217.59 388.829Z" fill="#F80700"/>
</g>
<g opacity="0.76">
<path d="M225.348 24.8889H213.554V71.2995H225.348V24.8889Z" fill="#FF1F55"/>
<path d="M239.326 24.8889H227.533V71.2995H239.326V24.8889Z" fill="#FFC702"/>
<path d="M248.043 25.7195L238.053 31.9907L262.756 71.3005L272.746 65.0293L248.043 25.7195Z" fill="#3D99EE"/>
<path d="M340.068 81.5303H212.799C210.085 81.5303 207.481 80.4524 205.561 78.5337C203.642 76.615 202.563 74.0127 202.563 71.2993H350.303C350.303 74.0125 349.225 76.6146 347.305 78.5332C345.386 80.4519 342.783 81.5299 340.068 81.5303V81.5303Z" fill="#6F2A1A"/>
<path d="M342.489 26.6074H286.144V71.299H342.489V26.6074Z" fill="#BDD8F5"/>
<path d="M338.722 30.9973H289.914V66.9003H338.722V30.9973Z" fill="#FB4C47"/>
<path d="M314.317 60.4692C320.681 60.4692 325.839 55.3134 325.839 48.9534C325.839 42.5933 320.681 37.4375 314.317 37.4375C307.954 37.4375 302.796 42.5933 302.796 48.9534C302.796 55.3134 307.954 60.4692 314.317 60.4692Z" fill="#FFC700"/>
<path d="M328.224 66.9002H289.914V49.709C296.527 49.4587 306.296 50.2626 315.525 55.5655C320.499 58.4223 324.824 62.2824 328.224 66.9002V66.9002Z" fill="#1DB776"/>
<path d="M338.721 43.2881V66.9007H308.005C309.973 62.7924 312.503 58.9776 315.523 55.566C320.767 49.6724 328.247 44.5953 338.721 43.2881Z" fill="#11915B"/>
<path d="M232.443 90.4123H223.258L224.527 71.2991H231.174L232.443 90.4123Z" fill="#592A3C"/>
<path d="M329.61 90.4123H320.426L321.695 71.2991H328.342L329.61 90.4123Z" fill="#592A3C"/>
<path d="M522.77 61.2715H391.796V0H522.77V61.2715ZM397.412 55.6598H517.155V5.61331H397.411L397.412 55.6598Z" fill="#925C50"/>
<path d="M517.155 5.61328H397.411V55.6597H517.155V5.61328Z" fill="white"/>
<path d="M424.038 42.6298C434.129 40.2669 440.392 30.1757 438.028 20.0905C435.664 10.0052 425.568 3.745 415.477 6.10787C405.387 8.47074 399.124 18.5619 401.488 28.6472C403.852 38.7324 413.948 44.9926 424.038 42.6298Z" fill="#FFC700"/>
<path d="M397.411 39.8597L433.008 23.9711C435.844 22.705 438.972 22.237 442.054 22.6176C445.137 22.9982 448.057 24.2129 450.499 26.1306L488.118 55.6594H397.413L397.411 39.8597Z" fill="#11915B"/>
<path d="M459.562 33.2454L486.375 24.3853C489.242 23.4378 492.31 23.268 495.264 23.8934C498.218 24.5187 500.954 25.9167 503.19 27.9445L517.154 40.6044V55.6628H488.117L459.562 33.2454Z" fill="#1DB776"/>
</g>
<path opacity="0.89" d="M327.676 147.691C326.455 147.655 325.401 148.596 325.102 149.89C323.207 150.038 321.046 150.088 318.674 149.938C317.348 149.852 316.093 149.714 314.917 149.542C314.923 149.316 314.927 149.087 314.927 148.858C314.927 147.746 314.849 146.652 314.698 145.582C315.295 145.123 316.045 144.639 316.95 144.224C318.522 143.5 319.995 143.243 321.128 143.169C321.686 144.439 322.961 145.177 324.188 144.856C325.567 144.494 326.354 142.928 325.948 141.358C325.542 139.788 324.096 138.806 322.717 139.169C321.46 139.5 320.694 140.829 320.875 142.251C319.882 142.819 318.406 143.433 316.579 143.479C315.674 143.502 314.885 143.381 314.245 143.223C313.839 141.563 313.254 139.971 312.511 138.47C313.298 137.756 314.228 136.998 315.319 136.267C316.897 135.204 318.419 134.444 319.756 133.899C320.627 134.923 322.018 135.264 323.09 134.639C324.321 133.925 324.67 132.202 323.866 130.796C323.06 129.39 321.404 128.833 320.172 129.55C319.099 130.172 318.699 131.554 319.141 132.826C317.994 133.722 316.581 134.668 314.887 135.512C313.734 136.088 312.631 136.526 311.633 136.86C310.818 135.485 309.861 134.203 308.789 133.034C309.202 131.528 309.899 129.769 311.086 128.006C312.199 126.358 313.439 125.155 314.491 124.308C315.649 125.031 317.106 124.918 317.935 123.968C318.878 122.891 318.661 121.15 317.451 120.077C316.243 119.003 314.498 119.005 313.559 120.082C312.725 121.033 312.795 122.498 313.656 123.568C312.976 124.697 311.949 126.098 310.438 127.432C308.773 128.905 307.097 129.786 305.824 130.31C304.376 129.193 302.795 128.244 301.105 127.494C301.351 126.81 301.675 126.122 302.1 125.445C302.441 124.909 302.808 124.437 303.18 124.025C304.468 124.552 305.906 124.173 306.554 123.07C307.284 121.838 306.752 120.165 305.365 119.336C303.98 118.507 302.267 118.833 301.538 120.068C300.901 121.152 301.237 122.576 302.267 123.467C302.052 124.039 301.791 124.633 301.482 125.238C301.128 125.934 300.741 126.574 300.334 127.168C300.164 127.099 299.991 127.032 299.821 126.97C297.807 126.212 295.664 125.734 293.431 125.571C293.064 124.576 292.744 123.472 292.521 122.26C292.065 119.786 292.149 117.633 292.359 116.017C293.673 115.763 294.658 114.725 294.658 113.48C294.658 112.046 293.351 110.883 291.738 110.883C290.128 110.883 288.821 112.046 288.821 113.48C288.821 114.746 289.842 115.799 291.187 116.029C291.479 117.622 291.671 119.853 291.218 122.438C291.018 123.576 290.724 124.614 290.379 125.552C288.238 125.674 286.177 126.09 284.23 126.761C283.959 126.328 283.717 125.874 283.5 125.337C283.069 124.276 282.881 123.28 282.808 122.451C284.066 121.791 284.717 120.407 284.27 119.182C283.784 117.834 282.159 117.193 280.646 117.75C279.133 118.307 278.301 119.85 278.789 121.198C279.21 122.36 280.478 122.995 281.791 122.79C282.174 123.583 282.54 124.497 282.831 125.536C282.982 126.086 283.098 126.624 283.186 127.15C281.42 127.854 279.762 128.773 278.24 129.873C277.438 129.29 276.619 128.613 275.811 127.819C273.948 125.992 272.704 124.118 271.888 122.617C272.793 121.609 272.951 120.167 272.193 119.173C271.324 118.036 269.585 117.916 268.307 118.905C267.03 119.894 266.697 121.618 267.567 122.754C268.333 123.76 269.781 123.969 270.987 123.321C272.168 124.385 273.698 126.063 274.885 128.474C275.426 129.577 275.805 130.65 276.068 131.65C275.824 131.876 275.58 132.109 275.344 132.347C274.153 133.547 273.092 134.876 272.18 136.314C271.644 136.158 271.088 135.97 270.52 135.739C268.665 134.989 267.23 134.032 266.19 133.198C266.632 131.902 266.203 130.502 265.102 129.896C263.854 129.207 262.214 129.801 261.439 131.224C260.665 132.648 261.048 134.36 262.298 135.049C263.397 135.656 264.795 135.268 265.645 134.199C266.908 134.638 268.478 135.344 270.103 136.502C270.587 136.848 271.033 137.204 271.446 137.562C270.16 139.893 269.263 142.471 268.836 145.207C267.724 145.303 266.527 145.348 265.243 145.308C263.41 145.251 261.753 145.035 260.307 144.753C260.273 143.322 259.322 142.124 258.032 141.988C256.617 141.838 255.331 143.025 255.165 144.64C254.995 146.253 256.009 147.683 257.423 147.833C258.684 147.966 259.838 147.039 260.196 145.697C261.682 145.727 263.349 145.861 265.154 146.173C266.403 146.39 267.562 146.666 268.63 146.973C268.579 147.594 268.554 148.223 268.554 148.858C268.554 150.368 268.695 151.844 268.968 153.275C267.741 154.093 266.045 155.021 263.889 155.673C261.999 156.245 260.297 156.44 258.941 156.481C258.455 155.209 257.245 154.416 256.017 154.654C254.62 154.926 253.732 156.438 254.039 158.031C254.344 159.625 255.725 160.696 257.125 160.424C258.333 160.189 259.156 159.027 259.16 157.687C260.549 157.232 262.187 156.806 264.052 156.527C266.196 156.208 268.118 156.163 269.735 156.234C270.385 158.208 271.294 160.063 272.416 161.761C271.888 162.183 271.294 162.6 270.633 162.99C269.36 163.736 268.139 164.2 267.08 164.5C266.361 163.348 265.022 162.806 263.866 163.277C262.547 163.816 261.964 165.472 262.572 166.975C262.951 167.918 263.708 168.581 264.546 168.807C265.041 168.943 265.565 168.926 266.055 168.726C266.203 168.667 266.339 168.593 266.466 168.505C267.432 167.862 267.84 166.529 267.432 165.258C268.434 164.737 269.604 164.222 270.955 163.796C271.82 163.524 272.648 163.325 273.426 163.176C274.136 164.1 274.915 164.967 275.752 165.767C275.832 165.843 275.91 165.92 275.99 165.991C275.424 167.263 274.571 168.81 273.285 170.377C272.027 171.911 270.718 173.029 269.617 173.818C268.512 173.029 267.066 173.046 266.175 173.929C265.163 174.938 265.26 176.691 266.394 177.847C267.524 179 269.267 179.119 270.28 178.111C271.157 177.237 271.202 175.798 270.452 174.68C271.319 173.544 272.45 172.262 273.894 170.997C275.443 169.639 276.973 168.633 278.305 167.892C280.069 169.155 282.018 170.177 284.1 170.909C284.016 171.697 283.875 172.548 283.645 173.441C283.146 175.388 282.395 176.948 281.713 178.097C280.379 177.828 279.059 178.442 278.606 179.619C278.093 180.956 278.895 182.514 280.398 183.1C281.9 183.687 283.536 183.076 284.049 181.737C284.498 180.575 283.948 179.245 282.81 178.535C283.132 177.151 283.639 175.514 284.447 173.756C284.843 172.898 285.264 172.117 285.695 171.404C287.297 171.84 288.968 172.107 290.69 172.181C290.972 173.539 291.199 175.059 291.309 176.72C291.473 179.19 291.341 181.377 291.107 183.184C289.798 183.439 288.821 184.478 288.821 185.718C288.821 187.152 290.128 188.315 291.74 188.315C293.353 188.315 294.658 187.152 294.658 185.718C294.658 184.482 293.685 183.446 292.384 183.186C292.166 181.339 292.046 179.157 292.17 176.72C292.256 175.076 292.441 173.558 292.677 172.186C294.477 172.117 296.224 171.838 297.893 171.373C298.036 171.621 298.179 171.878 298.314 172.143C299.219 173.889 299.707 175.526 299.972 176.836C298.81 177.515 298.221 178.835 298.636 180.012C299.116 181.363 300.732 182.016 302.254 181.473C303.772 180.927 304.613 179.39 304.136 178.039C303.713 176.841 302.389 176.193 301.035 176.441C300.414 175.366 299.692 173.744 299.442 171.666C299.41 171.409 299.387 171.156 299.372 170.909C301.233 170.261 302.982 169.377 304.59 168.295C305.63 169.145 306.725 170.161 307.813 171.366C309.484 173.22 310.699 175.047 311.576 176.6C310.686 177.606 310.53 179.038 311.286 180.027C312.155 181.163 313.892 181.282 315.171 180.293C316.449 179.304 316.784 177.582 315.914 176.443C315.163 175.462 313.761 175.238 312.57 175.836C311.288 174.528 309.867 172.872 308.497 170.837C307.611 169.522 306.88 168.245 306.276 167.046C306.925 166.52 307.545 165.96 308.133 165.367C309.099 164.395 309.981 163.339 310.76 162.21C312.199 162.615 313.864 163.208 315.628 164.099C317.329 164.955 318.745 165.896 319.888 166.772C319.455 168.045 319.867 169.422 320.938 170.037C322.176 170.749 323.824 170.182 324.626 168.774C325.426 167.364 325.07 165.645 323.833 164.933C322.751 164.311 321.353 164.666 320.484 165.71C319.208 165.221 317.661 164.481 316.057 163.344C314.39 162.165 313.134 160.9 312.22 159.808C312.837 158.646 313.357 157.424 313.772 156.151C314.464 156.175 315.192 156.237 315.952 156.351C317.899 156.647 319.522 157.202 320.77 157.755C320.663 159.113 321.425 160.356 322.635 160.668C324.011 161.026 325.457 160.042 325.86 158.469C326.259 156.897 325.466 155.334 324.089 154.977C322.873 154.662 321.608 155.387 321.05 156.637C319.722 156.528 318.025 156.235 316.169 155.51C315.462 155.234 314.811 154.927 314.218 154.605C314.515 153.426 314.723 152.213 314.83 150.969C316.03 150.872 317.308 150.81 318.648 150.807C321.021 150.8 323.172 150.971 325.062 151.224C325.289 152.532 326.289 153.528 327.51 153.566C328.933 153.607 330.126 152.325 330.17 150.702C330.216 149.08 329.101 147.731 327.676 147.691" fill="#FA5752" fill-opacity="0.82"/>
<path opacity="0.93" d="M113.243 83.4678C111.367 83.4124 109.747 84.8655 109.288 86.863C106.377 87.0911 103.055 87.1684 99.4102 86.9367C97.3726 86.8045 95.445 86.5908 93.6371 86.326C93.6468 85.9765 93.6532 85.6234 93.6532 85.2703C93.6532 83.5522 93.5336 81.8639 93.3007 80.2122C94.2192 79.5024 95.3706 78.7556 96.7613 78.1151C99.1773 76.9972 101.441 76.5996 103.181 76.4857C104.038 78.4466 105.998 79.5865 107.884 79.0904C110.002 78.5311 111.212 76.1143 110.588 73.69C109.963 71.266 107.742 69.7501 105.623 70.3094C103.692 70.8206 102.515 72.8735 102.793 75.0694C101.267 75.9451 98.9994 76.8941 96.1921 76.9642C94.8014 77.0008 93.5886 76.813 92.6054 76.5702C91.9812 74.0064 91.082 71.5487 89.9403 69.2314C91.1499 68.1279 92.5795 66.958 94.2548 65.8286C96.6805 64.1881 99.0188 63.0145 101.073 62.1725C102.412 63.7538 104.549 64.28 106.196 63.3159C108.088 62.2127 108.624 59.5528 107.389 57.3827C106.15 55.212 103.605 54.3514 101.713 55.4585C100.063 56.4186 99.449 58.5527 100.128 60.5169C98.3655 61.9002 96.1954 63.3604 93.5918 64.6629C91.8194 65.553 90.1247 66.2298 88.5917 66.7446C87.34 64.622 85.8684 62.6431 84.2222 60.8369C84.8561 58.5121 85.9267 55.7969 87.7508 53.0751C89.4617 50.5293 91.3666 48.6718 92.9838 47.3654C94.7626 48.4804 97.0007 48.3072 98.275 46.8395C99.7239 45.177 99.3908 42.488 97.5311 40.8324C95.6746 39.1735 92.9935 39.1771 91.551 40.8396C90.2702 42.3077 90.377 44.57 91.6998 46.2216C90.6551 47.9653 89.0768 50.1281 86.7546 52.1882C84.1963 54.462 81.6219 55.823 79.6652 56.6323C77.44 54.9067 75.0111 53.4426 72.4141 52.2841C72.7925 51.2284 73.2905 50.1651 73.9438 49.1205C74.4678 48.2929 75.0305 47.564 75.603 46.9282C77.5823 47.7411 79.7913 47.1556 80.7875 45.4526C81.9097 43.5509 81.0915 40.9685 78.9601 39.6883C76.832 38.4081 74.1993 38.912 73.0803 40.8176C72.1003 42.4916 72.6178 44.6911 74.1993 46.0669C73.8694 46.9498 73.4684 47.8661 72.993 48.8001C72.4496 49.8745 71.8545 50.8641 71.2303 51.7801C70.9683 51.6734 70.7032 51.5703 70.4412 51.4751C67.346 50.3052 64.0536 49.5659 60.622 49.3152C60.0593 47.7777 59.5677 46.0737 59.2248 44.2021C58.523 40.3831 58.6524 37.0591 58.9758 34.5628C60.994 34.1717 62.5076 32.5678 62.5076 30.6462C62.5076 28.4319 60.4992 26.6366 58.0217 26.6366C55.5475 26.6366 53.5391 28.4319 53.5391 30.6462C53.5391 32.6012 55.1077 34.227 57.1744 34.5821C57.6239 37.0418 57.9182 40.4858 57.2229 44.4777C56.9156 46.2351 56.4628 47.8367 55.9324 49.2861C52.6432 49.4739 49.4769 50.1167 46.4852 51.1524C46.068 50.4838 45.6961 49.7819 45.3629 48.9539C44.6999 47.3147 44.4121 45.7772 44.2989 44.498C46.2329 43.4789 47.2323 41.3409 46.5467 39.4494C45.7995 37.369 43.3027 36.3797 40.9773 37.2394C38.6519 38.0991 37.3744 40.4822 38.1247 42.5622C38.7716 44.3576 40.7186 45.3371 42.7367 45.0203C43.3254 46.2445 43.8881 47.6567 44.3345 49.2602C44.5673 50.1098 44.7452 50.94 44.881 51.7523C42.1675 52.8404 39.6189 54.2591 37.2806 55.9569C36.0483 55.0566 34.7902 54.011 33.5483 52.7854C30.686 49.9648 28.7746 47.0719 27.5197 44.7542C28.9104 43.1981 29.153 40.9708 27.9886 39.436C26.6529 37.6802 23.9814 37.4947 22.0183 39.022C20.0551 40.549 19.5441 43.2105 20.8798 44.966C22.0571 46.5178 24.2822 46.8405 26.1354 45.8411C27.9498 47.4829 30.3011 50.0738 32.1252 53.7973C32.9564 55.5004 33.5386 57.1566 33.9429 58.7013C33.5677 59.0501 33.1925 59.4101 32.8303 59.7773C30.9997 61.6302 29.3697 63.6818 27.9693 65.9022C27.1445 65.6614 26.2907 65.3711 25.4174 65.0147C22.5681 63.8556 20.3623 62.3783 18.7646 61.0912C19.4438 59.0891 18.784 56.9285 17.0925 55.9922C15.1746 54.928 12.6552 55.8463 11.465 58.0435C10.2748 60.241 10.8634 62.8852 12.7845 63.9492C14.4728 64.8854 16.6203 64.2872 17.927 62.6362C19.8675 63.3149 22.2802 64.404 24.7771 66.1922C25.5209 66.7263 26.2066 67.2757 26.8405 67.8285C24.8644 71.4286 23.4866 75.4077 22.83 79.6323C21.1224 79.7802 19.2821 79.8502 17.3092 79.789C14.4922 79.701 11.9469 79.3669 9.72494 78.932C9.67319 76.7227 8.21133 74.873 6.22875 74.6626C4.05534 74.4315 2.07922 76.2642 1.82372 78.7566C1.56174 81.2483 3.12064 83.456 5.29404 83.687C7.23134 83.8925 9.00371 82.4621 9.55353 80.3889C11.8369 80.4357 14.3984 80.6419 17.1734 81.1249C19.0913 81.4591 20.8733 81.8858 22.5131 82.3593C22.4355 83.3188 22.3967 84.2892 22.3967 85.2703C22.3967 87.6007 22.6133 89.88 23.0338 92.089C21.1482 93.3526 18.5415 94.7863 15.2296 95.7926C12.3253 96.6755 9.70878 96.976 7.62594 97.0404C6.87883 95.0759 5.01914 93.8506 3.13358 94.2185C0.986051 94.6387 -0.378795 96.973 0.0934032 99.4333C0.562367 101.894 2.68404 103.548 4.8348 103.128C6.69125 102.765 7.95581 100.971 7.96228 98.9019C10.0969 98.1996 12.6131 97.5411 15.4786 97.1114C18.7743 96.6189 21.7272 96.5485 24.2111 96.6578C25.2104 99.7062 26.6076 102.571 28.3315 105.193C27.5197 105.844 26.6076 106.488 25.5921 107.09C23.6354 108.241 21.7595 108.958 20.1327 109.421C19.0266 107.642 16.9696 106.806 15.194 107.533C13.1662 108.365 12.2703 110.921 13.205 113.243C13.7871 114.699 14.9515 115.722 16.2387 116.071C16.9987 116.281 17.8041 116.255 18.5576 115.946C18.784 115.854 18.9943 115.74 19.1883 115.604C20.6728 114.612 21.3002 112.554 20.6728 110.591C22.2123 109.787 24.0105 108.991 26.0869 108.335C27.4162 107.914 28.6873 107.607 29.8839 107.377C30.9739 108.804 32.1705 110.142 33.4577 111.378C33.5806 111.495 33.7003 111.613 33.8232 111.723C32.9532 113.688 31.6433 116.075 29.6672 118.496C27.7332 120.864 25.7215 122.59 24.03 123.807C22.332 122.59 20.1101 122.616 18.742 123.98C17.1863 125.537 17.3351 128.244 19.0783 130.028C20.8151 131.809 23.4931 131.992 25.0487 130.436C26.3974 129.086 26.4653 126.865 25.3139 125.139C26.6464 123.385 28.3832 121.405 30.6019 119.452C32.9823 117.355 35.3336 115.803 37.3809 114.659C40.0911 116.608 43.086 118.186 46.2847 119.316C46.1553 120.534 45.9386 121.847 45.5861 123.226C44.8196 126.232 43.665 128.641 42.6171 130.414C40.5666 129.999 38.5387 130.948 37.8434 132.765C37.0542 134.829 38.2864 137.234 40.5957 138.139C42.9049 139.045 45.4179 138.103 46.2071 136.035C46.896 134.24 46.0518 132.188 44.3021 131.092C44.797 128.954 45.5764 126.427 46.8183 123.712C47.4264 122.388 48.0732 121.181 48.7362 120.081C51.1975 120.754 53.7655 121.166 56.4111 121.28C56.8444 123.377 57.1938 125.724 57.3619 128.288C57.6142 132.103 57.4105 135.48 57.0515 138.269C55.0398 138.663 53.5391 140.267 53.5391 142.182C53.5391 144.396 55.5475 146.192 58.025 146.192C60.5024 146.192 62.5076 144.396 62.5076 142.182C62.5076 140.274 61.0134 138.673 59.0146 138.272C58.6783 135.421 58.4939 132.051 58.6847 128.288C58.8174 125.75 59.102 123.407 59.4642 121.288C62.2295 121.181 64.9139 120.751 67.4786 120.033C67.6985 120.416 67.9185 120.813 68.1255 121.221C69.5162 123.918 70.2665 126.445 70.674 128.469C68.8887 129.517 67.9831 131.555 68.6203 133.372C69.3577 135.458 71.8416 136.466 74.1799 135.627C76.5118 134.785 77.8055 132.412 77.0714 130.326C76.4213 128.476 74.3869 127.475 72.3073 127.858C71.3532 126.199 70.2439 123.694 69.859 120.485C69.8105 120.088 69.7749 119.698 69.7523 119.316C72.6113 118.315 75.299 116.951 77.7699 115.28C79.3676 116.594 81.0494 118.161 82.7215 120.022C85.2895 122.884 87.1557 125.706 88.5044 128.104C87.1363 129.657 86.8969 131.867 88.058 133.394C89.3937 135.149 92.062 135.333 94.0284 133.806C95.9916 132.279 96.5058 129.62 95.1701 127.861C94.0155 126.346 91.8615 126 90.0309 126.924C88.0612 124.904 85.8781 122.347 83.7727 119.206C82.411 117.175 81.2888 115.204 80.3605 113.353C81.3567 112.54 82.3108 111.675 83.2131 110.76C84.6976 109.259 86.0528 107.629 87.2494 105.886C89.4617 106.511 92.02 107.427 94.7302 108.802C97.3435 110.123 99.5201 111.576 101.276 112.93C100.61 114.894 101.244 117.02 102.89 117.969C104.792 119.07 107.324 118.194 108.557 116.02C109.786 113.842 109.239 111.19 107.337 110.09C105.675 109.13 103.527 109.678 102.192 111.289C100.232 110.535 97.8545 109.391 95.39 107.636C92.8285 105.815 90.8977 103.862 89.494 102.177C90.4416 100.382 91.2405 98.4951 91.8777 96.5306C92.9417 96.5675 94.0607 96.6631 95.2283 96.8395C98.22 97.296 100.714 98.1531 102.631 99.0066C102.467 101.103 103.637 103.023 105.497 103.505C107.612 104.057 109.834 102.538 110.452 100.11C111.066 97.6818 109.847 95.269 107.732 94.7172C105.862 94.2312 103.919 95.3501 103.062 97.2809C101.021 97.1118 98.414 96.6595 95.5614 95.5409C94.4747 95.1145 93.4754 94.6397 92.5633 94.1432C93.0193 92.3223 93.3395 90.4495 93.5045 88.5298C95.348 88.3789 97.3112 88.2834 99.3714 88.2794C103.016 88.2683 106.322 88.533 109.226 88.9231C109.575 90.943 111.112 92.4804 112.987 92.5393C115.174 92.6018 117.008 90.6226 117.076 88.1174C117.147 85.6123 115.433 83.5303 113.243 83.4678Z" fill="#FA5752" fill-opacity="0.9"/>
<path d="M648.139 38.7879C647.017 38.7543 646.049 39.6352 645.774 40.8462C644.034 40.9844 642.048 41.0313 639.868 40.8908C638.65 40.8106 637.498 40.6811 636.417 40.5206C636.423 40.3087 636.426 40.0947 636.426 39.8806C636.426 38.8391 636.355 37.8156 636.216 36.8143C636.765 36.384 637.453 35.9313 638.285 35.543C639.729 34.8653 641.083 34.6243 642.123 34.5552C642.636 35.744 643.807 36.435 644.935 36.1342C646.201 35.7952 646.925 34.3301 646.551 32.8604C646.178 31.3909 644.85 30.472 643.583 30.811C642.429 31.1209 641.725 32.3654 641.891 33.6966C640.978 34.2275 639.623 34.8028 637.944 34.8453C637.113 34.8675 636.388 34.7536 635.8 34.6064C635.427 33.0522 634.889 31.5623 634.207 30.1576C634.93 29.4886 635.784 28.7793 636.786 28.0947C638.236 27.1002 639.634 26.3888 640.862 25.8783C641.663 26.8369 642.941 27.1559 643.925 26.5715C645.057 25.9027 645.378 24.2902 644.639 22.9747C643.898 21.6588 642.376 21.137 641.245 21.8082C640.259 22.3902 639.892 23.6839 640.298 24.8746C639.244 25.7132 637.946 26.5985 636.39 27.388C635.33 27.9277 634.317 28.3379 633.4 28.65C632.652 27.3632 631.772 26.1636 630.788 25.0687C631.167 23.6593 631.807 22.0133 632.897 20.3633C633.92 18.82 635.059 17.694 636.026 16.902C637.09 17.5779 638.428 17.473 639.19 16.5832C640.056 15.5754 639.857 13.9452 638.745 12.9415C637.635 11.9359 636.032 11.9381 635.17 12.9459C634.404 13.8359 634.468 15.2074 635.259 16.2086C634.634 17.2656 633.69 18.5768 632.302 19.8256C630.772 21.2041 629.233 22.0292 628.063 22.5198C626.733 21.4737 625.281 20.5861 623.728 19.8838C623.954 19.2438 624.252 18.5992 624.643 17.966C624.956 17.4642 625.292 17.0224 625.635 16.6369C626.818 17.1297 628.139 16.7748 628.734 15.7424C629.405 14.5896 628.916 13.0241 627.642 12.248C626.369 11.4719 624.795 11.7774 624.126 12.9326C623.54 13.9474 623.85 15.2808 624.795 16.1148C624.598 16.65 624.358 17.2055 624.074 17.7717C623.749 18.423 623.393 19.023 623.02 19.5783C622.864 19.5136 622.705 19.4511 622.548 19.3934C620.698 18.6841 618.729 18.236 616.678 18.084C616.341 17.152 616.047 16.119 615.842 14.9844C615.423 12.6692 615.5 10.6541 615.693 9.14081C616.9 8.90374 617.805 7.93144 617.805 6.7665C617.805 5.4242 616.604 4.33583 615.123 4.33583C613.644 4.33583 612.443 5.4242 612.443 6.7665C612.443 7.95167 613.381 8.93727 614.616 9.15252C614.885 10.6436 615.061 12.7315 614.645 15.1514C614.462 16.2168 614.191 17.1877 613.874 18.0663C611.907 18.1802 610.014 18.5698 608.225 19.1977C607.976 18.7924 607.754 18.3669 607.554 17.865C607.158 16.8712 606.986 15.9392 606.918 15.1637C608.075 14.5459 608.672 13.2499 608.262 12.1032C607.816 10.842 606.323 10.2423 604.932 10.7634C603.542 11.2846 602.778 12.7293 603.227 13.9902C603.614 15.0786 604.778 15.6724 605.984 15.4803C606.336 16.2225 606.673 17.0786 606.94 18.0507C607.079 18.5657 607.185 19.069 607.266 19.5614C605.644 20.221 604.12 21.0811 602.722 22.1103C601.985 21.5645 601.233 20.9307 600.491 20.1877C598.779 18.4778 597.637 16.724 596.886 15.319C597.718 14.3757 597.863 13.0255 597.167 12.095C596.368 11.0307 594.771 10.9182 593.597 11.8441C592.423 12.7697 592.118 14.3832 592.916 15.4474C593.62 16.3882 594.951 16.5838 596.059 15.9779C597.143 16.9732 598.549 18.5439 599.64 20.8011C600.137 21.8335 600.485 22.8376 600.727 23.774C600.502 23.9855 600.278 24.2037 600.061 24.4263C598.967 25.5496 597.992 26.7933 597.155 28.1393C596.662 27.9933 596.152 27.8174 595.629 27.6013C593.926 26.8986 592.607 26.0031 591.652 25.2228C592.058 24.0091 591.663 22.6993 590.652 22.1317C589.505 21.4866 587.999 22.0432 587.287 23.3752C586.576 24.7074 586.928 26.3104 588.076 26.9554C589.086 27.5229 590.37 27.1603 591.151 26.1594C592.311 26.5709 593.754 27.2311 595.247 28.3151C595.691 28.6389 596.101 28.972 596.48 29.3071C595.299 31.4895 594.475 33.9017 594.082 36.4627C593.061 36.5524 591.961 36.5949 590.782 36.5578C589.097 36.5044 587.576 36.3019 586.247 36.0382C586.216 34.6989 585.342 33.5776 584.157 33.45C582.857 33.31 581.676 34.4209 581.523 35.9319C581.366 37.4424 582.299 38.7807 583.598 38.9208C584.756 39.0454 585.816 38.1782 586.145 36.9214C587.51 36.9498 589.041 37.0748 590.7 37.3676C591.847 37.5702 592.913 37.8289 593.893 38.1159C593.847 38.6976 593.823 39.2858 593.823 39.8806C593.823 41.2933 593.953 42.6751 594.204 44.0142C593.077 44.7802 591.518 45.6494 589.538 46.2594C587.802 46.7947 586.237 46.9768 584.992 47.0159C584.545 45.8249 583.434 45.0822 582.306 45.3052C581.022 45.5599 580.206 46.975 580.489 48.4665C580.769 49.9582 582.037 50.9608 583.323 50.7061C584.433 50.4863 585.189 49.3985 585.193 48.1443C586.469 47.7186 587.974 47.3194 589.687 47.0589C591.658 46.7603 593.423 46.7177 594.908 46.7839C595.506 48.6319 596.341 50.3684 597.372 51.9579C596.886 52.3529 596.341 52.7432 595.734 53.1078C594.564 53.8061 593.442 54.2406 592.47 54.5213C591.808 53.4427 590.579 52.936 589.517 53.3768C588.305 53.8809 587.769 55.4307 588.328 56.8379C588.676 57.7209 589.372 58.3409 590.142 58.5528C590.596 58.6799 591.077 58.6643 591.528 58.4768C591.663 58.4212 591.789 58.352 591.905 58.2695C592.793 57.6678 593.168 56.4205 592.793 55.2304C593.713 54.7431 594.788 54.2606 596.03 53.8627C596.824 53.6073 597.584 53.4212 598.3 53.2824C598.952 54.1471 599.667 54.9584 600.437 55.7075C600.51 55.7785 600.582 55.8499 600.655 55.9168C600.135 57.1077 599.352 58.555 598.17 60.0224C597.014 61.4584 595.811 62.5045 594.8 63.2425C593.785 62.5045 592.456 62.52 591.638 63.3472C590.708 64.2908 590.797 65.9321 591.839 67.0137C592.878 68.0929 594.479 68.2044 595.409 67.2611C596.215 66.4427 596.256 65.0958 595.568 64.0497C596.364 62.9862 597.403 61.7863 598.729 60.6021C600.152 59.3311 601.558 58.3899 602.782 57.6965C604.403 58.8783 606.193 59.835 608.106 60.5198C608.028 61.2578 607.899 62.0539 607.688 62.8902C607.23 64.7122 606.539 66.1729 605.913 67.2478C604.687 66.9958 603.474 67.5709 603.059 68.6726C602.587 69.9238 603.324 71.3822 604.704 71.9307C606.085 72.4799 607.587 71.9087 608.059 70.6553C608.471 69.5671 607.966 68.3226 606.92 67.6582C607.216 66.3624 607.682 64.8304 608.425 63.1848C608.788 62.3819 609.175 61.6504 609.571 60.9834C611.043 61.3915 612.578 61.6415 614.16 61.7105C614.419 62.9816 614.628 64.4045 614.729 65.9588C614.879 68.2713 614.758 70.3184 614.543 72.0091C613.34 72.2484 612.443 73.2207 612.443 74.3816C612.443 75.7235 613.644 76.8125 615.125 76.8125C616.606 76.8125 617.805 75.7235 617.805 74.3816C617.805 73.2246 616.912 72.2543 615.717 72.0111C615.516 70.2827 615.405 68.2401 615.519 65.9588C615.599 64.4199 615.769 62.9997 615.985 61.7151C617.639 61.6504 619.244 61.3893 620.777 60.9547C620.909 61.1864 621.04 61.4272 621.164 61.6748C621.995 63.3096 622.444 64.8417 622.688 66.0681C621.62 66.7036 621.079 67.939 621.46 69.0406C621.901 70.3051 623.386 70.9164 624.784 70.4077C626.178 69.8971 626.951 68.4585 626.512 67.194C626.124 66.0727 624.907 65.466 623.664 65.698C623.094 64.6921 622.43 63.1735 622.2 61.2286C622.171 60.988 622.15 60.7515 622.136 60.5198C623.846 59.9131 625.453 59.0858 626.93 58.0733C627.885 58.8694 628.891 59.8195 629.891 60.9479C631.426 62.6828 632.542 64.3934 633.348 65.8471C632.53 66.7885 632.387 68.1286 633.081 69.0541C633.88 70.1177 635.475 70.2294 636.651 69.3039C637.825 68.3782 638.132 66.7661 637.333 65.6999C636.643 64.7814 635.355 64.5717 634.261 65.1316C633.083 63.9071 631.778 62.3573 630.519 60.4527C629.705 59.2217 629.034 58.0267 628.479 56.9048C629.075 56.412 629.645 55.8878 630.185 55.3327C631.072 54.4227 631.882 53.4347 632.598 52.3779C633.92 52.7568 635.45 53.3121 637.07 54.1462C638.633 54.9469 639.934 55.8275 640.984 56.6482C640.586 57.8392 640.965 59.1281 641.949 59.7034C643.086 60.3704 644.6 59.8395 645.337 58.5216C646.072 57.2016 645.745 55.5934 644.608 54.9268C643.614 54.3447 642.33 54.677 641.531 55.6537C640.36 55.1964 638.938 54.5031 637.465 53.4393C635.933 52.3355 634.779 51.1513 633.94 50.1298C634.506 49.0416 634.984 47.8977 635.365 46.7068C636.001 46.7292 636.67 46.7871 637.368 46.894C639.157 47.1708 640.648 47.6904 641.794 48.2078C641.696 49.4787 642.396 50.6428 643.508 50.9348C644.772 51.2693 646.101 50.3484 646.47 48.8766C646.837 47.4047 646.108 45.942 644.844 45.6075C643.726 45.3129 642.564 45.9912 642.052 47.1617C640.831 47.0591 639.273 46.7849 637.567 46.1068C636.918 45.8483 636.32 45.5605 635.775 45.2595C636.047 44.1557 636.239 43.0203 636.338 41.8566C637.44 41.7651 638.613 41.7072 639.845 41.7048C642.025 41.698 644.001 41.8585 645.737 42.095C645.946 43.3195 646.865 44.2515 647.986 44.2872C649.293 44.3251 650.39 43.1253 650.43 41.6066C650.473 40.0879 649.448 38.8258 648.139 38.7879" fill="#FA5752" fill-opacity="0.75"/>
<path d="M723.934 258.619C721.398 258.544 719.212 260.532 718.592 263.264C714.666 263.576 710.181 263.681 705.257 263.365C702.519 263.183 699.915 262.891 697.481 262.529C697.494 262.051 697.501 261.568 697.501 261.085C697.501 258.736 697.332 256.426 697.022 254.166C698.263 253.195 699.814 252.174 701.696 251.298C704.954 249.769 708.002 249.225 710.356 249.069C711.51 251.751 714.16 253.311 716.696 252.632C719.556 251.867 721.195 248.561 720.345 245.245C719.502 241.929 716.508 239.856 713.648 240.62C711.044 241.32 709.453 244.127 709.83 247.132C707.773 248.329 704.711 249.627 700.92 249.723C699.052 249.773 697.413 249.517 696.084 249.185C695.241 245.677 694.034 242.316 692.489 239.146C694.122 237.637 696.051 236.036 698.31 234.491C701.581 232.247 704.738 230.642 707.51 229.49C709.318 231.654 712.198 232.373 714.423 231.055C716.98 229.545 717.695 225.907 716.029 222.938C714.363 219.97 710.93 218.792 708.373 220.306C706.154 221.62 705.318 224.538 706.235 227.226C703.854 229.117 700.927 231.115 697.413 232.896C695.025 234.114 692.739 235.04 690.668 235.744C688.975 232.841 686.999 230.134 684.773 227.663C685.63 224.483 687.073 220.769 689.535 217.046C691.849 213.564 694.412 211.022 696.59 209.236C698.991 210.761 702.013 210.524 703.733 208.516C705.689 206.242 705.244 202.564 702.728 200.3C700.226 198.031 696.611 198.035 694.661 200.31C692.941 202.318 693.076 205.412 694.864 207.671C693.454 210.057 691.323 213.015 688.193 215.833C684.74 218.943 681.273 220.805 678.629 221.912C675.621 219.552 672.343 217.549 668.842 215.964C669.348 214.519 670.023 213.066 670.906 211.637C671.614 210.504 672.377 209.508 673.145 208.637C675.81 209.749 678.798 208.95 680.14 206.62C681.651 204.018 680.544 200.485 677.671 198.735C674.798 196.984 671.25 197.673 669.739 200.279C668.417 202.569 669.112 205.578 671.25 207.46C670.805 208.668 670.265 209.921 669.618 211.198C668.883 212.668 668.087 214.022 667.244 215.274C666.886 215.128 666.536 214.988 666.178 214.857C662.01 213.257 657.565 212.246 652.931 211.903C652.169 209.8 651.508 207.469 651.043 204.909C650.099 199.685 650.274 195.138 650.712 191.724C653.437 191.188 655.474 188.995 655.474 186.366C655.474 183.337 652.77 180.882 649.431 180.882C646.086 180.882 643.374 183.337 643.374 186.366C643.374 189.04 645.485 191.264 648.278 191.749C648.885 195.115 649.283 199.825 648.352 205.286C647.934 207.69 647.32 209.88 646.605 211.863C642.16 212.12 637.891 212.999 633.857 214.416C633.297 213.502 632.792 212.541 632.34 211.409C631.449 209.165 631.065 207.063 630.91 205.314C633.52 203.919 634.862 200.995 633.945 198.408C632.933 195.562 629.568 194.208 626.425 195.385C623.288 196.561 621.562 199.82 622.58 202.666C623.457 205.121 626.081 206.461 628.799 206.028C629.595 207.703 630.357 209.634 630.95 211.828C631.274 212.99 631.51 214.126 631.692 215.237C628.03 216.725 624.597 218.666 621.44 220.989C619.781 219.756 618.081 218.326 616.402 216.65C612.537 212.792 609.961 208.834 608.268 205.664C610.143 203.536 610.473 200.489 608.902 198.39C607.101 195.987 603.492 195.734 600.842 197.823C598.198 199.912 597.51 203.553 599.304 205.954C600.902 208.076 603.897 208.518 606.406 207.151C608.848 209.397 612.024 212.94 614.48 218.034C615.606 220.364 616.388 222.629 616.941 224.742C616.436 225.219 615.923 225.712 615.431 226.214C612.969 228.748 610.763 231.555 608.875 234.592C607.762 234.263 606.608 233.865 605.428 233.378C601.59 231.793 598.616 229.772 596.458 228.011C597.375 225.272 596.478 222.318 594.198 221.036C591.615 219.58 588.215 220.836 586.61 223.843C584.998 226.848 585.794 230.465 588.391 231.921C590.664 233.201 593.564 232.383 595.324 230.125C597.941 231.053 601.206 232.543 604.571 234.989C605.576 235.719 606.494 236.471 607.35 237.226C604.686 242.151 602.825 247.595 601.941 253.373C599.641 253.575 597.159 253.672 594.495 253.587C590.691 253.467 587.258 253.01 584.256 252.415C584.189 249.393 582.219 246.863 579.548 246.575C576.608 246.259 573.944 248.766 573.593 252.175C573.249 255.584 575.346 258.604 578.28 258.919C580.897 259.201 583.285 257.244 584.034 254.408C587.109 254.471 590.563 254.754 594.306 255.415C596.903 255.872 599.297 256.455 601.516 257.103C601.408 258.416 601.361 259.743 601.361 261.085C601.361 264.273 601.651 267.39 602.218 270.412C599.668 272.141 596.161 274.102 591.689 275.479C587.77 276.687 584.243 277.098 581.43 277.186C580.418 274.499 577.909 272.822 575.367 273.325C572.473 273.9 570.632 277.093 571.266 280.458C571.9 283.824 574.766 286.087 577.66 285.512C580.169 285.016 581.875 282.562 581.882 279.732C584.762 278.771 588.161 277.87 592.026 277.283C596.464 276.609 600.45 276.512 603.809 276.662C605.152 280.832 607.04 284.75 609.367 288.336C608.268 289.228 607.047 290.108 605.664 290.931C603.027 292.507 600.498 293.487 598.299 294.121C596.815 291.686 594.036 290.543 591.635 291.538C588.903 292.676 587.696 296.173 588.951 299.348C589.74 301.341 591.311 302.74 593.051 303.218C594.077 303.504 595.163 303.47 596.181 303.047C596.478 302.921 596.768 302.765 597.031 302.578C599.027 301.221 599.877 298.406 599.034 295.721C601.111 294.621 603.54 293.532 606.332 292.634C608.133 292.059 609.846 291.638 611.458 291.325C612.928 293.276 614.547 295.107 616.28 296.797C616.442 296.958 616.611 297.119 616.773 297.269C615.599 299.957 613.832 303.223 611.168 306.533C608.558 309.774 605.846 312.134 603.56 313.8C601.273 312.134 598.272 312.17 596.431 314.036C594.326 316.165 594.529 319.868 596.882 322.309C599.223 324.744 602.838 324.996 604.936 322.867C606.764 321.02 606.851 317.982 605.3 315.622C607.094 313.221 609.434 310.514 612.422 307.842C615.64 304.974 618.81 302.85 621.575 301.285C625.231 303.952 629.271 306.111 633.581 307.656C633.412 309.321 633.122 311.117 632.643 313.005C631.604 317.116 630.053 320.412 628.644 322.837C625.871 322.268 623.133 323.567 622.196 326.053C621.137 328.876 622.803 332.166 625.919 333.404C629.028 334.642 632.414 333.354 633.486 330.526C634.41 328.07 633.277 325.263 630.91 323.763C631.578 320.839 632.636 317.382 634.309 313.668C635.132 311.858 636.002 310.207 636.892 308.702C640.218 309.623 643.678 310.187 647.252 310.343C647.832 313.212 648.305 316.421 648.534 319.929C648.878 325.146 648.601 329.766 648.116 333.58C645.404 334.119 643.374 336.312 643.374 338.935C643.374 341.964 646.079 344.419 649.431 344.419C652.77 344.419 655.474 341.964 655.474 338.935C655.474 336.323 653.458 334.134 650.76 333.585C650.308 329.685 650.065 325.076 650.321 319.929C650.497 316.456 650.881 313.251 651.367 310.353C655.103 310.207 658.725 309.619 662.185 308.637C662.482 309.16 662.772 309.704 663.055 310.263C664.937 313.951 665.949 317.408 666.495 320.175C664.087 321.609 662.86 324.397 663.73 326.883C664.715 329.736 668.073 331.115 671.223 329.967C674.366 328.815 676.12 325.569 675.128 322.716C674.252 320.185 671.506 318.816 668.701 319.34C667.412 317.07 665.915 313.643 665.396 309.256C665.328 308.712 665.281 308.179 665.254 307.656C669.105 306.287 672.734 304.42 676.073 302.136C678.224 303.932 680.491 306.075 682.743 308.622C686.21 312.536 688.733 316.396 690.554 319.677C688.706 321.8 688.389 324.825 689.947 326.913C691.754 329.313 695.356 329.565 698.007 327.476C700.651 325.389 701.339 321.75 699.545 319.345C697.986 317.272 695.079 316.798 692.611 318.062C689.953 315.299 687.006 311.802 684.166 307.505C682.332 304.727 680.814 302.03 679.567 299.499C680.909 298.387 682.19 297.204 683.418 295.951C685.414 293.898 687.242 291.669 688.861 289.284C691.849 290.14 695.295 291.393 698.951 293.274C702.478 295.082 705.419 297.069 707.787 298.92C706.89 301.608 707.739 304.516 709.965 305.814C712.528 307.319 715.948 306.121 717.607 303.147C719.266 300.168 718.524 296.54 715.961 295.035C713.722 293.723 710.815 294.473 709.021 296.676C706.377 295.644 703.166 294.08 699.841 291.679C696.388 289.189 693.778 286.516 691.889 284.212C693.164 281.757 694.243 279.175 695.106 276.488C696.536 276.538 698.054 276.669 699.619 276.911C703.659 277.535 707.024 278.707 709.614 279.874C709.392 282.743 710.97 285.369 713.472 286.029C716.332 286.784 719.327 284.705 720.163 281.385C720.993 278.063 719.354 274.762 716.487 274.007C713.978 273.343 711.355 274.873 710.188 277.514C707.443 277.283 703.915 276.664 700.064 275.135C698.607 274.551 697.258 273.902 696.03 273.222C696.644 270.732 697.076 268.17 697.298 265.543C699.787 265.337 702.431 265.206 705.217 265.201C710.127 265.186 714.592 265.548 718.511 266.082C718.983 268.844 721.054 270.948 723.583 271.029C726.537 271.114 729.012 268.406 729.1 264.98C729.194 261.554 726.881 258.705 723.934 258.619" fill="#FA5752" fill-opacity="0.92"/>
<path d="M551.534 177.66V432.941" stroke="#925D51" stroke-width="5.81" stroke-miterlimit="10"/>
<path d="M501.736 176.752C501.736 176.752 545.183 195.172 600.884 174.585L570.804 106.324L526.247 105.24L501.736 176.752Z" fill="#AC6352"/>
<path d="M582.597 133.084C565.09 152.911 536.658 161.261 506.825 161.905L501.736 176.752C501.736 176.752 545.183 195.172 600.886 174.585L582.597 133.084Z" fill="#984B39"/>
<rect x="165.211" y="472.196" width="449.966" height="10.493" rx="5.24651" fill="#925D51"/>
<path fill-rule="evenodd" clip-rule="evenodd" d="M390.586 243.853C390.085 243.775 389.577 243.737 389.063 243.737H274.709H274.61C266.711 243.737 260.324 243.737 260.324 272.75V428.267C260.324 424.358 262.344 425.453 265.516 427.175C268.009 428.527 271.213 430.266 274.709 430.266H389.063C390.158 430.266 391.225 430.095 392.251 429.819H504.286C509.146 429.819 513.601 428.085 517.066 426.737C521.475 425.021 524.282 423.928 524.282 427.825V272.778C524.282 243.853 515.404 243.853 504.424 243.853H504.286H390.586Z" fill="#F5C827"/>
<g opacity="0.699997">
<g opacity="0.699997">
<path d="M269.517 324.744V427.983C269.517 420.563 275.3 430.108 282.433 430.108H385.117C390.315 430.108 394.793 425.047 396.842 425.167V427.983C396.842 426.571 397.051 425.776 397.435 425.41C397.823 425.776 398.034 426.571 398.034 427.983V425.166C400.069 425.066 404.497 430.108 409.637 430.108H511.352C518.418 430.108 524.147 420.563 524.147 427.983V262.696C524.147 261.042 524.127 259.495 524.095 258.013L269.517 324.744Z" fill="#DCB21D"/>
</g>
</g>
<path d="M280.931 401.478C280.931 411.956 274.941 420.449 267.552 420.449H238.118C230.728 420.449 224.737 411.956 224.737 401.478V333.179C224.737 322.701 230.728 314.207 238.118 314.207H267.552C274.941 314.207 280.931 322.701 280.931 333.179V401.478Z" fill="#EBAFB2"/>
<path d="M293.169 409.045C293.169 420.441 284.478 429.679 273.757 429.679H231.049C220.328 429.679 211.636 420.441 211.636 409.045V334.76C211.636 323.364 220.328 314.126 231.049 314.126H273.757C284.478 314.126 293.169 323.364 293.169 334.76V409.045Z" fill="#CAA41E"/>
<path d="M592.885 409.221C592.885 420.653 584.314 429.92 573.741 429.92H531.625C521.052 429.92 512.481 420.653 512.481 409.221V334.704C512.481 323.272 521.052 314.005 531.625 314.005H573.741C584.314 314.005 592.885 323.272 592.885 334.704V409.221Z" fill="#CAA41E"/>
<path d="M243.311 496.441C243.311 500.063 240.947 503 238.032 503C235.116 503 232.753 500.063 232.753 496.441V473.779C232.753 470.156 235.116 467.219 238.032 467.219C240.947 467.219 243.311 470.156 243.311 473.779V496.441Z" fill="#925D51"/>
<path d="M571.2 495.268C571.2 498.89 568.836 501.827 565.92 501.827C563.005 501.827 560.642 498.89 560.642 495.268V472.606C560.642 468.983 563.005 466.046 565.92 466.046C568.836 466.046 571.2 468.983 571.2 472.606V495.268Z" fill="#925D51"/>
<path d="M580.035 314.126H565.232C557.8 314.126 551.775 322.624 551.775 333.107V428.012H251.008V333.107C251.008 322.624 244.983 314.126 237.551 314.126H222.748C215.316 314.126 209.291 322.624 209.291 333.107V463.127C209.291 468.614 210.952 473.541 213.59 477.007C216.046 480.721 219.537 483.057 223.422 483.057L580.035 482.108C587.468 482.108 593.492 473.61 593.492 463.127V333.107C593.492 322.624 587.468 314.126 580.035 314.126Z" fill="#F5C827"/>
<path d="M327.664 324.097H272.894C270.811 324.097 269.121 326.068 269.121 328.499V392.397C269.121 394.828 270.811 396.798 272.894 396.798H327.664C329.747 396.798 331.437 394.828 331.437 392.397V328.499C331.437 326.068 329.747 324.097 327.664 324.097Z" fill="white"/>
<path d="M539.609 331.043L489.803 322.35C487.908 322.019 486.032 323.696 485.613 326.096L474.593 389.173C474.174 391.573 475.37 393.786 477.265 394.117L527.071 402.81C528.966 403.14 530.842 401.463 531.261 399.063L542.281 335.986C542.7 333.587 541.504 331.373 539.609 331.043Z" fill="white"/>
<path fill-rule="evenodd" clip-rule="evenodd" d="M533.95 442.511C544.063 442.511 552.261 433.363 552.261 422.078V403.689C552.261 392.404 544.063 383.256 533.95 383.256H392.531C391.515 382.853 390.452 382.639 389.357 382.639H263.669C256.476 382.639 250.645 391.882 250.645 403.285V421.865C250.645 433.268 256.476 442.511 263.669 442.511H359.967C359.977 442.511 359.988 442.511 359.998 442.511H533.95Z" fill="#FFE792"/>
<path d="M357.884 213.104C356.008 212.953 354.26 212.097 352.976 210.721C349.621 207.121 344.815 198.752 351.698 183.888C364.511 156.207 411.37 160.36 422.547 180.474C430.499 194.783 438.41 197.622 434.142 201.927C430.023 206.082 381.219 214.988 357.884 213.104Z" fill="#FF504A"/>
<path d="M440.476 379.408C440.425 379.415 440.371 379.422 440.32 379.429C430.186 380.905 419.909 382.261 409.603 383.058C409.013 383.101 408.421 383.147 407.829 383.184C396.923 383.959 385.988 384.076 375.166 383.011C371.616 382.662 368.076 382.18 364.573 381.539C356.742 380.109 351.464 372.708 352.732 364.851C353.927 357.475 354.706 350.486 355.22 343.917C355.297 342.941 355.371 341.976 355.432 341.02C355.952 333.352 356.12 326.29 356.176 319.875C356.178 319.33 356.183 318.79 356.185 318.257C356.185 318.015 356.19 317.775 356.19 317.539C356.192 317.173 356.192 316.81 356.192 316.452C356.197 316.207 356.197 315.965 356.197 315.73C356.197 315.229 356.199 314.741 356.197 314.254C356.204 312.754 356.199 311.296 356.204 309.883V309.507C356.206 304.612 356.226 300.229 356.423 296.387C356.43 296.212 356.437 296.041 356.451 295.869C356.495 295.071 356.535 294.28 356.574 293.5C356.608 292.743 356.646 291.994 356.673 291.253C356.754 289.173 356.809 287.167 356.842 285.253C356.862 283.642 356.862 282.099 356.838 280.635C356.807 279.01 356.749 277.488 356.657 276.078C356.622 275.611 356.59 275.129 356.553 274.635C356.495 273.885 356.432 273.108 356.368 272.309C356.329 271.824 356.287 271.335 356.238 270.838C356.217 270.621 356.199 270.4 356.178 270.178C356.176 270.122 356.168 270.069 356.165 270.019C356.137 269.711 356.108 269.405 356.081 269.093C356.051 268.79 356.02 268.487 355.991 268.181C355.942 267.647 355.889 267.103 355.83 266.554C355.578 263.993 355.285 261.304 354.987 258.549C354.889 257.685 354.794 256.809 354.697 255.931C354.543 254.571 354.387 253.196 354.236 251.829C354.133 250.945 354.033 250.061 353.934 249.179C352.422 235.891 351 223.169 351.505 219.131C352.381 212.14 386.24 193.687 386.24 193.687L406.564 193.049C406.564 193.049 435.092 204.54 440.354 211.477C440.383 211.511 440.406 211.546 440.432 211.578C441.626 213.212 442.377 215.483 442.807 218.289C443.192 220.756 443.329 223.634 443.301 226.862C443.288 229.159 443.188 231.636 443.039 234.262C442.883 237.046 442.669 240 442.435 243.094C442.368 243.994 442.297 244.906 442.226 245.828C442.153 246.766 442.084 247.712 442.012 248.67C441.966 249.289 441.92 249.913 441.874 250.54C441.75 252.193 441.629 253.876 441.519 255.582C441.484 256.132 441.445 256.688 441.41 257.246C441.386 257.597 441.366 257.954 441.347 258.307C441.325 258.669 441.304 259.029 441.284 259.393V259.4C441.265 259.735 441.244 260.066 441.228 260.399C441.204 260.762 441.187 261.126 441.17 261.492C441.135 262.161 441.1 262.831 441.073 263.507C441.045 264.065 441.022 264.628 441.001 265.19C440.993 265.289 440.989 265.393 440.989 265.495C440.97 265.858 440.956 266.222 440.947 266.582L440.941 266.772L440.936 266.863C440.922 267.337 440.906 267.82 440.893 268.299C440.874 268.874 440.86 269.447 440.846 270.019C440.84 270.283 440.837 270.555 440.833 270.823C440.826 271.06 440.823 271.305 440.819 271.546C440.819 271.668 440.816 271.786 440.816 271.911C440.809 272.242 440.804 272.573 440.801 272.913C440.796 273.478 440.795 274.049 440.795 274.635V275.561C440.796 277.181 440.814 278.873 440.846 280.635C440.857 281.362 440.874 282.099 440.89 282.847C440.908 283.64 440.929 284.441 440.949 285.253C441.001 286.959 441.056 288.701 441.126 290.476C441.133 290.735 441.141 290.992 441.153 291.253C441.158 291.359 441.16 291.464 441.165 291.57C441.186 292.148 441.208 292.729 441.236 293.317C441.272 294.162 441.311 295.016 441.345 295.869C441.384 296.793 441.448 297.772 441.529 298.804C441.629 300.095 441.757 301.464 441.913 302.911C441.947 303.249 441.986 303.592 442.027 303.936C442.091 304.49 442.153 305.056 442.231 305.63C442.273 305.99 442.316 306.348 442.364 306.715C442.394 306.946 442.423 307.178 442.455 307.411C442.567 308.28 442.688 309.175 442.817 310.084C442.831 310.185 442.845 310.286 442.858 310.387C442.924 310.848 442.996 311.311 443.059 311.782C443.19 312.68 443.331 313.596 443.474 314.524C443.516 314.785 443.555 315.05 443.597 315.313C443.844 316.894 444.11 318.515 444.388 320.172C444.437 320.461 444.49 320.758 444.539 321.054C444.65 321.706 444.764 322.364 444.878 323.026C445.279 325.333 445.703 327.692 446.146 330.09C446.663 332.862 447.202 335.682 447.76 338.524C448.217 340.861 448.691 343.212 449.169 345.562C450.288 351.06 451.452 356.556 452.601 361.859C454.393 370.115 448.836 378.189 440.476 379.408Z" fill="white"/>
<path d="M442.809 218.289C427.961 221.471 414.186 222.379 403.307 222.379C401.33 222.379 399.449 222.35 397.674 222.299C380.866 221.808 369.933 219.371 369.475 219.27L370.266 215.771L371.056 212.273H371.058C371.272 212.322 381.996 214.681 398.075 215.135C408.934 215.44 423.941 214.897 440.356 211.477C440.383 211.511 440.408 211.545 440.433 211.578C441.626 213.212 442.379 215.482 442.809 218.289Z" fill="#1DB776" fill-opacity="0.56"/>
<path d="M443.3 226.862C443.286 229.159 443.186 231.636 443.038 234.262C428.516 237.348 414.977 238.258 404.079 238.258C401.38 238.258 398.843 238.202 396.493 238.109C379.695 237.452 368.791 234.907 368.335 234.799L369.986 227.817C370.094 227.843 380.813 230.333 396.964 230.948C408.698 231.398 425.288 230.902 443.3 226.862Z" fill="#1DB776" fill-opacity="0.56"/>
<path d="M442.436 243.094C442.369 243.994 442.298 244.906 442.228 245.828C442.154 246.766 442.085 247.712 442.013 248.67C441.967 249.288 441.921 249.913 441.874 250.54C428.193 253.305 415.398 254.152 404.864 254.152C401.422 254.152 398.227 254.062 395.316 253.921C378.531 253.095 367.654 250.441 367.198 250.33L368.919 243.365C369.025 243.39 379.719 245.986 395.858 246.764C407.631 247.33 424.305 246.997 442.436 243.094Z" fill="#1DB776" fill-opacity="0.56"/>
<path d="M441.286 259.393V259.4C441.267 259.736 441.247 260.066 441.23 260.399C441.207 260.763 441.19 261.126 441.171 261.491C441.137 262.161 441.103 262.831 441.075 263.507C441.048 264.064 441.024 264.628 441.004 265.189C440.996 265.288 440.991 265.393 440.991 265.495C440.972 265.857 440.959 266.222 440.95 266.582L440.943 266.772C427.994 269.273 415.849 270.067 405.648 270.067C401.456 270.067 397.595 269.935 394.137 269.729C377.365 268.737 366.514 265.973 366.061 265.857L367.851 258.911H367.854C367.951 258.937 370.661 259.619 375.354 260.413C380.046 261.207 386.719 262.112 394.75 262.58C406.501 263.264 423.147 263.098 441.286 259.393Z" fill="#1DB776" fill-opacity="0.56"/>
<path d="M366.783 274.459L365.855 277.922L366.785 274.459H366.783ZM440.849 280.634C440.817 278.873 440.799 277.18 440.797 275.56C422.394 279.197 405.514 279.207 393.645 278.395C377.593 277.3 366.98 274.509 366.785 274.459L365.855 277.922L364.925 281.386C365.376 281.506 376.196 284.379 392.958 285.538C396.948 285.816 401.475 286.002 406.431 286.002C416.509 286.002 428.335 285.228 440.892 282.847C440.877 282.099 440.861 281.361 440.849 280.634Z" fill="#1DB776" fill-opacity="0.56"/>
<path d="M441.531 298.803C429.093 301.17 417.334 301.957 407.211 301.957C401.484 301.957 396.283 301.704 391.778 301.349C375.029 300.017 364.238 297.039 363.786 296.914L364.752 293.46L365.714 290.006H365.715C365.887 290.054 376.477 292.953 392.536 294.213C404.707 295.166 422.164 295.308 441.167 291.569C441.188 292.149 441.211 292.73 441.237 293.316C441.274 294.161 441.313 295.015 441.348 295.869C441.387 296.792 441.451 297.771 441.531 298.803Z" fill="#1DB776" fill-opacity="0.56"/>
<path d="M443.476 314.524C430.671 317.078 418.504 317.93 407.984 317.93C401.48 317.93 395.609 317.604 390.599 317.157C373.861 315.66 363.099 312.573 362.647 312.443L364.647 305.555V305.553C364.75 305.583 375.33 308.605 391.428 310.028C404.089 311.15 422.496 311.449 442.457 307.411C442.568 308.281 442.69 309.174 442.818 310.084C442.832 310.185 442.846 310.285 442.861 310.386C442.925 310.847 442.997 311.31 443.061 311.781C443.192 312.68 443.333 313.596 443.476 314.524Z" fill="#1DB776" fill-opacity="0.56"/>
<path d="M446.147 330.089C432.711 332.965 419.871 333.92 408.746 333.92C401.466 333.92 394.92 333.512 389.417 332.965C372.69 331.299 361.957 328.106 361.508 327.97L363.577 321.103C363.68 321.132 374.231 324.261 390.317 325.846C403.707 327.165 423.534 327.629 444.88 323.025C445.28 325.332 445.703 327.692 446.147 330.089Z" fill="#1DB776" fill-opacity="0.56"/>
<path d="M449.169 345.563C434.974 348.846 421.334 349.933 409.502 349.933C401.44 349.933 394.22 349.429 388.237 348.772C371.524 346.939 360.817 343.637 360.371 343.498L361.441 340.074L362.507 336.65L362.509 336.652C362.675 336.702 373.185 339.921 389.209 341.663C403.407 343.205 424.869 343.858 447.76 338.523C448.217 340.861 448.691 343.211 449.169 345.563Z" fill="#1DB776" fill-opacity="0.56"/>
<path d="M394.512 369.758C395.199 340.184 390.135 305.773 390.178 276.19C390.217 249.666 392.155 223.333 392.133 196.809C385.806 197.284 383.088 198.365 383.088 198.365C383.088 198.365 377.037 203.527 357.348 209.943C338.782 215.993 342.233 284.566 343.362 322.947C344.489 361.329 344.041 385.663 380.539 390.327C383.968 390.765 387.335 391.152 390.632 391.476C390.688 382.699 394.308 378.557 394.512 369.758Z" fill="#FB4C47"/>
<path d="M354.917 291.778C354.525 291.778 354.171 291.503 354.086 291.103C353.988 290.644 354.281 290.192 354.74 290.093C355.206 289.993 366.161 287.499 369.938 274.382C370.066 273.929 370.539 273.67 370.991 273.799C371.442 273.928 371.704 274.401 371.573 274.852C367.506 288.982 355.599 291.652 355.094 291.759C355.035 291.772 354.975 291.778 354.917 291.778Z" fill="#B63A37"/>
<path d="M386.78 363.932C386.426 363.932 386.129 363.657 386.109 363.299C383.171 310.341 380.834 258.575 384.457 207.48C384.485 207.11 384.807 206.833 385.175 206.858C385.546 206.884 385.824 207.205 385.798 207.575C382.178 258.591 384.514 310.312 387.451 363.223C387.471 363.594 387.187 363.911 386.817 363.931C386.804 363.932 386.793 363.932 386.78 363.932Z" fill="#B63A37"/>
<path d="M457.863 236.804C458.743 209.482 445.584 202.271 419.322 198.332C419.22 198.317 419.12 198.302 419.017 198.287C418.595 202.801 418.75 207.385 419.044 211.891C419.516 219.098 420.352 226.263 420.642 233.481C421.855 263.603 424.803 284.063 422.383 323.598C420.563 353.312 425.313 368.908 426.145 391.424C441.053 389.147 452.786 383.08 460.011 370.767C473.565 347.668 456.984 264.125 457.863 236.804Z" fill="#FB4C47"/>
<path d="M454.779 290.856C454.715 290.856 454.653 290.851 454.588 290.835C454.413 290.795 436.952 286.51 434.001 261.116C433.946 260.65 434.281 260.227 434.749 260.174C435.219 260.116 435.638 260.454 435.691 260.92C438.506 285.133 454.804 289.139 454.969 289.175C455.427 289.28 455.713 289.737 455.608 290.196C455.519 290.589 455.168 290.856 454.779 290.856Z" fill="#B63A37"/>
<path d="M428.148 359.074C427.825 359.074 427.54 358.841 427.486 358.511C426.255 351.035 426.727 330.976 427.186 311.579C427.533 296.823 427.862 282.886 427.478 274.49C426.181 246.064 422.297 206.364 422.258 205.967C422.221 205.598 422.491 205.27 422.86 205.233C423.226 205.198 423.558 205.466 423.594 205.835C423.633 206.233 427.52 245.967 428.82 274.427C429.205 282.871 428.876 296.831 428.528 311.611C428.072 330.946 427.6 350.94 428.812 358.293C428.872 358.658 428.624 359.004 428.258 359.065C428.221 359.07 428.185 359.074 428.148 359.074Z" fill="#B63A37"/>
<path d="M404.272 135.67L391.359 140.36C391.359 140.36 387.485 145.702 382.406 144.6C380.369 144.157 378.139 142.679 375.885 139.407C368.013 127.97 387.001 112.124 398.413 114.787C404.011 116.092 405.528 121.144 405.619 125.952C405.714 130.944 404.272 135.67 404.272 135.67Z" fill="#002014"/>
<path d="M404.272 135.67L391.358 140.36C391.358 140.36 387.485 145.702 382.406 144.6C382.406 138.677 390.715 127.846 405.618 125.952C405.714 130.944 404.272 135.67 404.272 135.67Z" fill="#FFD339"/>
<path d="M404.057 112.822C403.824 112.822 403.571 112.849 403.296 112.903C402.627 113.038 402.193 113.363 401.933 113.927C400.773 116.439 403.219 122.421 404.968 125.956C406.048 122.035 407.343 115.481 405.513 113.416C405.161 113.019 404.682 112.822 404.057 112.822ZM405.172 128.906C404.881 128.906 404.608 128.749 404.465 128.49C403.846 127.381 398.483 117.536 400.463 113.249C400.939 112.218 401.809 111.549 402.979 111.315C404.973 110.918 406.118 111.655 406.726 112.341C409.904 115.93 406.357 127.089 405.942 128.35C405.841 128.655 405.57 128.872 405.249 128.902C405.223 128.905 405.198 128.906 405.172 128.906Z" fill="#FFD339"/>
<path d="M414.976 116.806C414.9 116.806 414.822 116.811 414.744 116.823C412.007 117.187 408.7 122.992 406.952 126.664C410.587 125.133 416.351 122.21 417.117 119.553C417.289 118.954 417.173 118.425 416.755 117.886C416.192 117.161 415.609 116.806 414.976 116.806ZM405.398 128.958C405.18 128.958 404.967 128.87 404.813 128.708C404.59 128.474 404.526 128.133 404.65 127.836C405.161 126.612 409.777 115.851 414.53 115.217C415.44 115.096 416.787 115.287 418.034 116.891C418.766 117.834 418.988 118.909 418.673 120C417.366 124.537 406.867 128.474 405.675 128.909C405.584 128.942 405.491 128.958 405.398 128.958Z" fill="#FFD339"/>
<path d="M381.43 146.282C378.609 145.86 375.438 144.357 373.447 140.204C368.745 130.401 379.99 122.128 380.104 122.046C380.334 121.879 380.654 121.932 380.821 122.161C380.987 122.391 380.935 122.712 380.705 122.878C380.598 122.956 370.043 130.733 374.372 139.76C378.235 147.813 386.739 144.98 387.099 144.854C387.369 144.762 387.66 144.905 387.753 145.172C387.844 145.439 387.703 145.732 387.435 145.825C387.384 145.842 384.633 146.76 381.43 146.282Z" fill="#002014"/>
<path d="M418.844 147.493C418.844 147.493 423.884 168.656 416.883 182.354C409.884 196.052 402.851 199.783 412.902 204.038C422.954 208.292 434.39 200.188 442.064 204.403C451.329 209.492 440.94 166.785 436.31 148.711C431.571 130.219 409.064 128.149 409.064 128.149L418.844 147.493Z" fill="#002014"/>
<path d="M432.166 162.699C432.166 162.699 441.171 142.074 424.287 132.365C407.401 122.656 390.345 129.989 385.801 141.167C381.257 152.345 388.215 159.698 388.215 159.698L432.166 162.699Z" fill="#002014"/>
<path d="M403.227 206.249C408.1 207.602 410.05 205.442 411.546 203.835L412.554 195.097L413.143 190L413.265 189.25L411.025 189.001L394.491 184.232L392.255 194.73L391.192 199.708C393.317 201.714 396.141 204.281 403.227 206.249Z" fill="#FBB990"/>
<path d="M412.552 195.096C407.429 197.407 397.324 196.357 392.254 194.73C392.236 194.728 392.223 194.722 392.205 194.716L394.49 184.232L411.023 189.001L413.264 189.249L413.142 190L412.552 195.096Z" fill="#181818"/>
<path d="M426.053 162.827C426.053 162.827 435.87 159.973 433.944 168.647C431.822 178.196 424.006 175.486 422.661 174.867L426.053 162.827Z" fill="#FB9476"/>
<path d="M418.999 178.689C418.456 182.322 420.97 185.72 424.603 186.263C428.238 186.806 431.635 184.292 432.179 180.657C432.642 177.558 430.876 174.636 428.094 173.505C428.089 173.511 428.085 173.518 428.08 173.528C427.612 173.651 427.514 174.011 427.471 174.404C429.938 175.281 431.525 177.814 431.124 180.5C430.668 183.551 427.815 185.664 424.761 185.208C421.711 184.752 419.597 181.897 420.053 178.846C420.258 177.468 420.953 176.283 421.935 175.44C422.189 175.224 422.463 175.028 422.751 174.858C422.494 174.626 422.251 174.357 422.035 174.048C421.77 174.213 421.511 174.4 421.273 174.605C420.088 175.61 419.245 177.033 418.999 178.689Z" fill="white"/>
<path d="M427.15 172.032C427.131 172.03 427.113 172.025 427.094 172.02C426.81 171.946 426.638 171.655 426.712 171.37C427.804 167.16 430.904 165.702 431.034 165.642C431.302 165.52 431.619 165.637 431.741 165.906C431.863 166.173 431.746 166.489 431.48 166.611C431.363 166.666 428.703 167.942 427.744 171.638C427.674 171.905 427.416 172.072 427.15 172.032Z" fill="#FA7764"/>
<path d="M430.663 170.26C430.512 170.238 430.372 170.152 430.287 170.011C430.272 169.988 429.616 168.946 428.677 168.935C428.384 168.934 428.147 168.691 428.149 168.396C428.154 168.102 428.394 167.866 428.689 167.87C430.219 167.885 431.158 169.392 431.197 169.455C431.35 169.708 431.27 170.035 431.019 170.188C430.908 170.255 430.782 170.278 430.663 170.26Z" fill="#FA7764"/>
<path d="M431.436 161.637C430.826 165.086 429.885 168.438 428.716 171.581C428.189 173.006 427.609 174.385 426.996 175.712C422.67 185.061 416.451 191.798 411.484 192.381C403.621 193.306 394.694 189.464 390.317 179.209C389.602 177.533 388.853 175.509 388.495 173.125C388.446 172.794 388.399 172.454 388.359 172.108C387.076 161.453 389.779 146.264 389.779 146.264C396.224 136.641 410.081 139.206 418.12 140.529C426.164 141.854 434.236 145.851 431.436 161.637Z" fill="#FFC29C"/>
<path d="M409.309 186.875C407.602 186.62 406.593 185.846 406.55 185.813C406.318 185.632 406.275 185.297 406.457 185.065C406.637 184.833 406.97 184.79 407.203 184.971C407.22 184.984 408.124 185.658 409.631 185.843C411.167 186.03 412.197 185.675 412.206 185.672C412.483 185.574 412.788 185.719 412.887 185.995C412.986 186.27 412.843 186.575 412.568 186.674C412.517 186.693 411.306 187.121 409.502 186.9C409.436 186.893 409.373 186.884 409.309 186.875Z" fill="#FB9476"/>
<path d="M379.377 289.138C379.036 289.138 378.718 288.92 378.607 288.577C377.449 285.011 376.65 280.987 376.616 280.818C376.53 280.378 376.815 279.953 377.254 279.866C377.691 279.78 378.119 280.065 378.205 280.504C378.213 280.546 379.02 284.604 380.148 288.077C380.286 288.503 380.052 288.96 379.627 289.098C379.545 289.125 379.46 289.138 379.377 289.138Z" fill="#108A57"/>
<path d="M383.702 287.686C383.364 287.686 383.049 287.474 382.935 287.136C381.73 283.586 380.878 279.576 380.843 279.408C380.75 278.969 381.03 278.539 381.468 278.447C381.905 278.354 382.334 278.635 382.427 279.072C382.436 279.113 383.296 283.159 384.469 286.615C384.613 287.039 384.385 287.499 383.962 287.643C383.875 287.672 383.788 287.686 383.702 287.686Z" fill="#108A57"/>
<path d="M388.03 286.235C387.696 286.235 387.384 286.028 387.266 285.695C386.015 282.162 385.111 278.165 385.073 277.996C384.975 277.56 385.248 277.127 385.685 277.029C386.12 276.931 386.555 277.205 386.653 277.642C386.662 277.682 387.575 281.714 388.793 285.155C388.943 285.576 388.721 286.038 388.301 286.188C388.211 286.22 388.119 286.235 388.03 286.235Z" fill="#108A57"/>
<path d="M392.353 284.784C392.023 284.784 391.714 284.582 391.593 284.254C390.295 280.739 389.338 276.754 389.298 276.586C389.193 276.151 389.462 275.714 389.898 275.61C390.332 275.507 390.768 275.775 390.873 276.21C390.883 276.25 391.849 280.27 393.113 283.693C393.267 284.113 393.053 284.579 392.633 284.734C392.541 284.768 392.446 284.784 392.353 284.784Z" fill="#108A57"/>
<path d="M396.68 283.333C396.355 283.333 396.047 283.135 395.923 282.813C394.579 279.314 393.568 275.343 393.527 275.175C393.416 274.742 393.679 274.301 394.113 274.192C394.546 274.082 394.987 274.345 395.096 274.778C395.107 274.817 396.126 278.825 397.435 282.232C397.595 282.649 397.388 283.118 396.97 283.279C396.874 283.315 396.776 283.333 396.68 283.333Z" fill="#108A57"/>
<path d="M401.003 281.882C400.682 281.882 400.378 281.689 400.252 281.372C398.86 277.89 397.798 273.931 397.753 273.763C397.638 273.332 397.894 272.888 398.327 272.773C398.759 272.657 399.202 272.914 399.318 273.346C399.328 273.386 400.401 277.381 401.755 280.771C401.921 281.187 401.719 281.658 401.304 281.824C401.205 281.863 401.104 281.882 401.003 281.882Z" fill="#108A57"/>
<path d="M405.329 280.431C405.01 280.431 404.71 280.242 404.58 279.931C403.143 276.466 402.028 272.52 401.98 272.353C401.859 271.923 402.11 271.476 402.541 271.354C402.971 271.233 403.419 271.484 403.539 271.915C403.551 271.955 404.676 275.937 406.077 279.31C406.248 279.723 406.052 280.197 405.638 280.368C405.537 280.411 405.432 280.431 405.329 280.431Z" fill="#108A57"/>
<path d="M428.633 194.094C428.468 196.206 428.076 198.315 427.356 200.286C427.173 200.79 426.967 201.284 426.736 201.767V201.769C425.576 204.225 423.82 206.388 421.24 207.97C421.24 207.97 408.659 213.317 393.838 206.754H393.836C392.995 206.381 392.145 205.967 391.289 205.513C390.541 205.118 389.791 204.69 389.04 204.229C382.603 200.286 380.051 194.972 379.353 189.911C379.291 189.459 379.243 189.013 379.208 188.564C378.935 184.995 379.511 181.633 380.2 179.071C380.248 178.901 380.293 178.734 380.339 178.572C381.085 175.962 381.902 174.3 381.902 174.3C381.902 174.3 385.233 172.853 389.604 172.188C391.266 171.936 393.08 171.797 394.917 171.895C397.004 172.003 399.123 172.418 401.091 173.316C415.143 179.727 422.26 182.59 426.338 177.087C426.338 177.087 427.046 179.134 427.691 182.219C427.783 182.657 427.872 183.113 427.96 183.589C428.198 184.896 428.411 186.34 428.551 187.861C428.736 189.853 428.8 191.972 428.633 194.094Z" fill="#0CAD69"/>
<path d="M427.961 183.588C427.773 183.878 427.563 184.172 427.332 184.464C425.551 186.713 422.093 189.302 415.6 189.302C415.202 189.302 414.794 189.293 414.374 189.272C408.078 188.971 403.17 186.372 398.422 183.859C392.755 180.861 387.401 178.026 380.296 179.523L380.201 179.07L380.107 178.618C380.186 178.603 380.265 178.586 380.341 178.572C387.653 177.115 393.097 179.995 398.854 183.043C403.512 185.506 408.33 188.057 414.417 188.346C419.934 188.612 424.025 187.123 426.579 183.924C427.037 183.35 427.402 182.77 427.692 182.218C427.785 182.655 427.872 183.112 427.961 183.588Z" fill="#108E59"/>
<path d="M427.354 200.286C427.171 200.79 426.965 201.284 426.734 201.767V201.769C424.38 203.12 421.56 204.046 418.298 204.536C416.443 204.817 414.446 204.955 412.315 204.955C409.541 204.955 406.54 204.719 403.338 204.248C393.73 202.827 385.517 199.726 385.433 199.693L385.764 198.828C385.845 198.86 393.978 201.93 403.489 203.334C411.055 204.446 420.859 204.68 427.354 200.286Z" fill="#108E59"/>
<path d="M405.141 274.416L376.654 283.719C376.654 283.719 376.277 282.059 375.694 279.236C375.564 278.607 375.423 277.918 375.276 277.177C374.873 275.173 374.41 272.782 373.921 270.115C373.798 269.439 373.674 268.747 373.55 268.037C373.154 265.805 372.748 263.419 372.355 260.923C372.247 260.232 372.137 259.533 372.031 258.825C371.678 256.492 371.335 254.087 371.023 251.645C370.932 250.936 370.842 250.226 370.756 249.512C370.464 247.096 370.205 244.659 369.99 242.243C369.923 241.52 369.863 240.798 369.808 240.078C369.611 237.56 369.467 235.078 369.396 232.678C369.374 231.939 369.358 231.209 369.35 230.487C369.317 227.798 369.384 225.235 369.576 222.868C369.638 222.091 369.715 221.34 369.806 220.612C369.868 220.084 369.942 219.568 370.02 219.066C370.392 216.722 370.908 214.595 371.531 212.665C371.791 211.855 372.071 211.081 372.367 210.34C377.64 197.095 387.997 194.485 387.997 194.485C395.668 195.246 399.039 203.442 399.039 203.442C397.431 204.975 396.27 207.08 395.473 209.606C395.267 210.261 395.084 210.944 394.928 211.652C394.501 213.549 394.242 215.632 394.122 217.848C394.083 218.536 394.059 219.237 394.048 219.947C394.013 222.018 394.085 224.184 394.244 226.409C394.293 227.104 394.35 227.803 394.415 228.506C394.614 230.649 394.885 232.836 395.212 235.031C395.316 235.731 395.425 236.427 395.538 237.125C395.894 239.31 396.299 241.496 396.738 243.653C396.877 244.347 397.024 245.036 397.17 245.724C397.643 247.943 398.147 250.12 398.663 252.222C398.831 252.906 398.999 253.581 399.171 254.248C399.741 256.504 400.323 258.657 400.883 260.656C401.075 261.343 401.267 262.014 401.454 262.663C402.146 265.061 402.794 267.187 403.348 268.951C403.576 269.678 403.787 270.341 403.979 270.939C404.694 273.146 405.141 274.416 405.141 274.416Z" fill="#0CAD69"/>
<path d="M395.47 209.606C395.264 210.261 395.082 210.943 394.925 211.651C389.883 211.029 380.724 210.451 371.529 212.666C371.788 211.855 372.068 211.08 372.364 210.34C376.934 209.351 381.324 209.023 384.946 208.986C389.223 208.94 392.902 209.273 395.47 209.606Z" fill="#108E59"/>
<path d="M394.12 217.848C394.081 218.535 394.057 219.236 394.045 219.947C388.028 219.689 378.576 219.931 369.574 222.867C369.636 222.092 369.713 221.34 369.803 220.611C375.771 218.777 381.72 218.079 386.391 217.86C389.302 217.724 391.933 217.753 394.12 217.848Z" fill="#108E59"/>
<path d="M394.413 228.506C387.99 228.614 378.345 229.418 369.393 232.679C369.372 231.94 369.355 231.209 369.346 230.486C375.936 228.177 382.672 227.164 387.834 226.734C390.183 226.537 392.349 226.444 394.241 226.41C394.29 227.104 394.348 227.803 394.413 228.506Z" fill="#108E59"/>
<path d="M395.538 237.126C388.904 237.572 379.028 238.821 369.99 242.243C369.924 241.519 369.864 240.798 369.808 240.078C378.899 236.711 388.59 235.476 395.212 235.031C395.317 235.73 395.425 236.427 395.538 237.126Z" fill="#108E59"/>
<path d="M397.167 245.724C390.426 246.487 380.25 248.137 371.02 251.645C370.929 250.937 370.84 250.227 370.754 249.512C380.028 246.043 390.01 244.412 396.736 243.653C396.875 244.348 397.021 245.037 397.167 245.724Z" fill="#108E59"/>
<path d="M399.17 254.248C392.411 255.315 381.871 257.379 372.354 260.924C372.245 260.232 372.137 259.533 372.03 258.825C381.515 255.343 391.898 253.296 398.663 252.221C398.83 252.907 398.998 253.582 399.17 254.248Z" fill="#108E59"/>
<path d="M401.458 262.664C394.773 264.025 383.809 266.542 373.924 270.114C373.801 269.439 373.676 268.748 373.552 268.037C383.393 264.512 394.197 262.023 400.886 260.655C401.078 261.342 401.27 262.014 401.458 262.664Z" fill="#108E59"/>
<path d="M403.978 270.938C397.504 272.568 386.046 275.623 375.694 279.236C375.563 278.607 375.423 277.918 375.274 277.176C385.566 273.6 396.868 270.585 403.347 268.951C403.576 269.678 403.786 270.341 403.978 270.938Z" fill="#108E59"/>
<path d="M393.838 206.754H393.836C393.625 206.742 393.408 206.717 393.183 206.675C392.498 206.545 391.869 206.139 391.287 205.513C386.39 200.231 385.128 179.383 385.128 179.383C385.128 179.383 386.964 174.846 389.604 172.189C391.265 171.937 393.079 171.798 394.917 171.896C395.298 175.811 396.615 188.292 398.146 191.726C399.908 195.67 399.683 207.066 393.838 206.754Z" fill="#128E5A"/>
<path d="M428.633 194.094C421.476 199.647 405.857 196.45 391.595 192.248C386.722 190.812 382.662 190.141 379.353 189.911C379.293 189.46 379.243 189.013 379.209 188.565C385.408 188.952 393.714 190.695 404.003 193.032C419.262 196.497 426.212 190.649 428.553 187.862C428.738 189.854 428.801 191.974 428.633 194.094Z" fill="#108E59"/>
<path d="M418.292 165.843C418.056 167.348 418.544 168.676 419.383 168.808C420.225 168.941 421.099 167.825 421.335 166.318C421.428 165.725 421.408 165.162 421.299 164.686C422.796 164.985 423.438 164.125 423.438 164.125C422.444 164.109 421.178 163.697 420.581 163.483C420.37 163.404 420.24 163.353 420.24 163.353C419.401 163.22 418.528 164.333 418.292 165.843Z" fill="#181818"/>
<path d="M420.241 163.353C420.241 163.353 420.37 163.403 420.582 163.482C420.477 163.416 420.364 163.371 420.241 163.353Z" fill="#181818"/>
<path d="M428.718 171.581C428.19 173.006 427.612 174.385 426.998 175.712C426.322 175.718 425.596 175.671 424.848 175.565C421.506 175.092 418.95 173.629 419.14 172.298C419.33 170.968 422.192 170.274 425.531 170.745C426.722 170.913 427.814 171.208 428.718 171.581Z" fill="#FD9B7E"/>
<path d="M404.186 169.685C403.995 171.031 401.104 171.732 397.728 171.253C394.351 170.774 391.769 169.296 391.961 167.951C392.151 166.607 395.043 165.905 398.418 166.383C401.795 166.862 404.377 168.34 404.186 169.685Z" fill="#FD9B7E"/>
<path d="M390.248 161.18C390.431 159.906 389.889 158.643 388.85 157.887C386.273 156.012 382.822 154.951 381.113 158.358C377.939 164.682 383.706 173.157 388.694 172.041L390.248 161.18Z" fill="#FBB990"/>
<path d="M391.294 171.626C391.197 171.715 391.102 171.801 391.004 171.88C390.718 172.117 390.426 172.318 390.128 172.486C389.581 172.796 389.027 172.997 388.497 173.125C388.446 172.792 388.4 172.454 388.363 172.108C388.742 172.017 389.132 171.885 389.517 171.691C389.83 171.543 390.142 171.356 390.439 171.124C390.556 171.031 390.677 170.929 390.789 170.825C390.975 170.643 391.241 170.683 391.38 170.909C391.519 171.131 391.485 171.456 391.294 171.626Z" fill="#FB9476"/>
<path d="M386.466 167.644C386.205 167.606 386.006 167.376 386.013 167.105C386.116 162.835 383.408 160.556 383.381 160.533C383.154 160.346 383.12 160.011 383.306 159.784C383.493 159.556 383.827 159.521 384.056 159.708C384.183 159.812 387.195 162.319 387.079 167.13C387.072 167.424 386.827 167.657 386.533 167.649C386.51 167.649 386.489 167.647 386.466 167.644Z" fill="#FB9476"/>
<path d="M383.063 164.653C382.94 164.635 382.825 164.574 382.739 164.474C382.547 164.252 382.57 163.917 382.793 163.724C382.855 163.67 384.353 162.394 386.034 162.839C386.318 162.915 386.487 163.207 386.412 163.492C386.335 163.776 386.042 163.943 385.759 163.87C384.628 163.571 383.501 164.521 383.489 164.531C383.366 164.636 383.21 164.676 383.063 164.653Z" fill="#FB9476"/>
<path d="M414.396 171.544H414.399H414.396ZM411.72 174.234C411.505 174.203 411.314 174.04 411.27 173.789C411.229 173.553 411.367 173.322 411.584 173.219C412.895 172.597 414.159 171.797 414.379 171.459C414.198 170.487 413.478 166.625 413.215 165.211C413.161 164.921 413.352 164.646 413.642 164.591C413.93 164.537 414.208 164.727 414.263 165.016C414.535 166.476 415.292 170.542 415.443 171.347C415.496 171.625 415.654 172.47 412.027 174.188C411.928 174.236 411.82 174.25 411.72 174.234" fill="#FB9476"/>
<path d="M404.952 163.85C404.737 165.359 403.882 166.485 403.041 166.368C402.198 166.249 401.688 164.926 401.902 163.415C401.987 162.821 402.171 162.288 402.413 161.865C400.895 161.714 400.532 160.703 400.532 160.703C401.486 160.979 402.819 160.955 403.452 160.925C403.677 160.91 403.815 160.899 403.815 160.899C404.656 161.018 405.168 162.337 404.952 163.85Z" fill="#181818"/>
<path d="M403.819 160.899C403.819 160.899 403.681 160.911 403.455 160.924C403.575 160.892 403.696 160.88 403.819 160.899Z" fill="#181818"/>
<path d="M425.991 163.433C425.686 162.803 425.285 162.175 424.853 161.61C424.417 161.041 423.927 160.524 423.403 160.069C422.882 159.607 422.309 159.229 421.717 158.926C421.132 158.603 420.494 158.426 419.878 158.267L419.814 158.252C419.144 158.08 418.741 157.397 418.913 156.728C419.084 156.057 419.767 155.653 420.436 155.825C420.514 155.845 420.593 155.875 420.662 155.908C421.441 156.278 422.196 156.684 422.841 157.226C423.493 157.749 424.077 158.339 424.564 158.986C425.058 159.627 425.477 160.307 425.824 161.015C426.169 161.728 426.448 162.443 426.646 163.221C426.693 163.406 426.582 163.594 426.397 163.641C426.236 163.682 426.072 163.602 426.003 163.457L425.991 163.433Z" fill="#111111"/>
<path d="M397.278 158.863C397.815 158.129 398.411 157.491 399.074 156.888C399.736 156.29 400.463 155.751 401.25 155.286C402.031 154.812 402.889 154.439 403.789 154.166C404.689 153.866 405.645 153.757 406.61 153.694C407.3 153.65 407.894 154.173 407.939 154.862C407.983 155.551 407.461 156.146 406.772 156.191C406.703 156.195 406.635 156.193 406.569 156.187L406.489 156.179C405.751 156.102 404.987 156.04 404.223 156.157C403.459 156.246 402.687 156.426 401.941 156.716C401.193 156.997 400.461 157.357 399.763 157.793C399.073 158.228 398.394 158.74 397.813 159.297L397.794 159.315C397.658 159.447 397.44 159.441 397.308 159.305C397.19 159.182 397.182 158.995 397.278 158.863Z" fill="#111111"/>
<path d="M396.673 145.067C396.673 145.067 406.558 158.557 429.651 157.897C442.076 157.543 431.285 138.142 412.765 137.051C394.244 135.961 396.673 145.067 396.673 145.067Z" fill="#002014"/>
<path d="M429.711 155.786C429.711 155.786 431.098 166.075 428.717 171.581C428.717 171.581 433.182 162.372 431.79 156.551C430.397 150.73 429.711 155.786 429.711 155.786Z" fill="#181818"/>
<path d="M402.866 145.107C402.866 145.107 391.858 163.871 394.552 179.018C397.242 194.164 401.174 206.222 390.317 207.353C379.573 208.473 372.447 204.253 362.826 208.057H362.824C362.724 208.099 362.625 208.138 362.522 208.18C362.27 208.284 362.044 208.346 361.835 208.374C360.169 208.589 359.85 206.414 360.475 202.703C360.697 201.391 361.035 199.89 361.472 198.232C363.499 190.557 367.667 179.575 372.195 169.022C375.751 160.734 379.529 152.708 382.669 146.757C383.813 144.589 384.873 142.699 385.805 141.166C395.742 124.867 417.871 129.463 417.871 129.463L402.866 145.107Z" fill="#002014"/>
<path d="M383.33 147.47C383.228 147.655 377.623 157.963 372.193 169.021C367.762 178.043 363.449 187.567 362.331 192.503C361.85 194.63 361.585 196.538 361.47 198.232C361.104 203.649 362.275 206.876 362.821 208.057C362.722 208.098 362.622 208.138 362.52 208.179C362.268 208.284 362.041 208.346 361.832 208.374C361.4 207.418 360.73 205.546 360.473 202.702C360.233 200.074 360.348 196.612 361.328 192.276C363.846 181.151 381.671 148.367 382.427 146.977C382.482 146.875 382.568 146.802 382.667 146.757C382.809 146.692 382.977 146.692 383.123 146.773C383.373 146.908 383.466 147.22 383.33 147.47Z" fill="#002014"/>
<g opacity="0.399994">
<g opacity="0.399994">
<g opacity="0.399994">
<g opacity="0.399994">
<g opacity="0.399994">
<g opacity="0.399994">
<path opacity="0.399994" d="M415.929 157.926C415.929 157.926 403.939 154.284 400.523 167.467C397.107 180.649 408.927 186.568 416.424 185.119C423.923 183.669 428.856 160.162 415.929 157.926Z" fill="#FFC29C"/>
</g>
</g>
</g>
</g>
</g>
</g>
<path d="M403.97 156.526C399.485 156.526 395.838 160.174 395.838 164.659C395.838 169.143 399.485 172.792 403.97 172.792C408.455 172.792 412.103 169.143 412.103 164.659C412.103 160.174 408.455 156.526 403.97 156.526ZM403.97 173.911C398.868 173.911 394.717 169.761 394.717 164.659C394.717 159.557 398.868 155.406 403.97 155.406C409.073 155.406 413.223 159.557 413.223 164.659C413.223 169.761 409.073 173.911 403.97 173.911Z" fill="white"/>
<path d="M424.468 160.683C419.983 160.683 416.336 164.331 416.336 168.815C416.336 173.3 419.983 176.949 424.468 176.949C428.953 176.949 432.601 173.3 432.601 168.815C432.601 164.331 428.953 160.683 424.468 160.683ZM424.468 178.068C419.366 178.068 415.215 173.918 415.215 168.815C415.215 163.714 419.366 159.563 424.468 159.563C429.571 159.563 433.721 163.714 433.721 168.815C433.721 173.918 429.571 178.068 424.468 178.068Z" fill="white"/>
<path d="M415.743 166.413C414.757 164.893 412.94 165.536 412.862 165.564L412.478 164.513C413.42 164.169 415.508 163.996 416.682 165.802L415.743 166.413Z" fill="white"/>
<path d="M430.456 378.93C427.868 380.788 424.341 386.34 418.215 388.288C383.414 399.361 350.938 377.87 350.938 377.87C349.01 368.339 350.203 357.51 353.414 353.545C352.404 352.138 353.072 350.454 353.072 350.454L337.747 322.044C338.118 322.277 361.786 337.239 379.325 347.839H379.332C384.386 350.891 388.93 353.582 392.26 355.452C397.341 358.304 403.826 358.583 410.181 357.708C422.567 355.996 434.449 349.893 434.449 349.893C434.449 349.893 464.085 332.418 471.564 333.021C477.38 333.488 456.337 365.554 430.456 378.93Z" fill="#108E59"/>
<path d="M364.911 407.676C364.911 407.676 363.038 408.027 359.993 408.651C359.126 408.829 358.165 409.026 357.127 409.246C355.749 409.537 354.234 409.862 352.617 410.222C351.696 410.425 350.742 410.64 349.76 410.863C337.56 413.642 321.404 417.869 314.899 422.002C314.443 422.291 314 422.579 313.574 422.868C303.662 429.532 301.634 435.287 299.795 434.12C297.876 432.904 297.446 427.913 300.577 424.632C302.745 422.359 304.263 419.042 307.174 415.457C307.961 414.488 308.849 413.498 309.88 412.504C314.433 408.116 321.72 403.582 325.789 400.096C326.052 399.872 326.3 399.65 326.535 399.435C329.884 396.346 331.191 389.989 337.303 388.057C340.289 387.114 343.869 387.482 347.322 388.392C347.935 388.554 348.546 388.734 349.145 388.925C350.044 389.212 350.923 389.528 351.77 389.854C352.94 390.313 354.05 390.794 355.062 391.267C356.031 391.719 356.915 392.162 357.676 392.56C359.513 393.523 360.648 394.238 360.648 394.238L364.911 407.676Z" fill="white"/>
<path d="M347.318 388.392C343.706 393.12 335.387 402.157 325.786 400.097C326.048 399.872 326.297 399.652 326.532 399.435C329.881 396.346 331.189 389.989 337.299 388.056C340.286 387.114 343.865 387.483 347.318 388.392Z" fill="#80D7B2"/>
<path d="M313.574 422.867C303.661 429.532 301.634 435.287 299.796 434.12C297.875 432.904 297.447 427.913 300.577 424.632C302.746 422.358 304.263 419.043 307.173 415.458C309.626 417.198 312.234 419.665 313.574 422.867Z" fill="#80D7B2"/>
<path d="M359.991 408.651C359.123 408.828 358.163 409.026 357.124 409.246C355.319 405.95 354.413 401.93 354.469 397.345C354.497 395.027 354.763 392.922 355.059 391.267C356.03 391.719 356.912 392.162 357.673 392.56C357.458 393.954 357.284 395.613 357.264 397.4C357.223 401.013 357.818 405.151 359.991 408.651Z" fill="#80D7B2"/>
<path d="M351.768 389.854C350.921 389.528 350.042 389.212 349.143 388.925C348.56 390.618 347.725 393.47 347.348 396.824C346.736 402.26 347.566 407.034 349.758 410.863C350.739 410.64 351.694 410.425 352.615 410.222C347.978 403.119 350.528 393.494 351.768 389.854Z" fill="#80D7B2"/>
<path d="M511.198 356.099C498.134 372.054 468.76 388.374 437.344 397.844C426.436 401.132 417.071 403.6 409.079 405.45C402.785 406.91 397.34 407.982 392.667 408.765C374.623 411.792 367.991 410.531 367.991 410.531C367.991 410.531 356.857 406.951 361.63 388.864C361.63 388.864 382.737 384.013 399.092 375.929C402.426 374.282 405.565 372.498 408.285 370.593C408.922 370.147 409.556 369.693 410.183 369.232C425.383 358.098 438.38 342.974 472.634 329.304C472.634 329.304 490.549 318.424 504.951 323.302C507.098 324.028 509.132 325.076 510.97 326.523C521.405 334.735 520.019 345.334 511.198 356.099Z" fill="#0CAD69"/>
<path d="M447.215 392.956L440.406 393.892L399.097 375.929C402.431 374.281 405.569 372.498 408.29 370.593C408.926 370.147 409.561 369.693 410.188 369.232L447.215 392.956Z" fill="#108E59"/>
<path d="M409.083 405.449C402.789 406.909 397.344 407.981 392.671 408.765C379.525 405.195 363.786 398.534 363.786 398.534L364.81 390.37L409.083 405.449Z" fill="#108E59"/>
<path d="M511.197 356.1C500.415 341.608 502.557 329.473 504.95 323.302C507.099 324.029 509.131 325.077 510.97 326.523C521.404 334.735 520.018 345.334 511.197 356.1Z" fill="#108E59"/>
<path d="M363.426 394.259C374.412 392.107 397.004 382.886 423.862 369.591C443.949 359.648 467.173 346.835 470.698 342.199C472.602 339.695 473.144 337.603 472.308 335.982C471.058 333.556 467.18 333.146 465.407 333.088C464.95 333.073 464.575 333.444 464.589 333.902C464.602 334.317 464.931 334.652 465.347 334.666C467.089 334.728 470.11 335.156 470.906 336.705C471.568 337.993 470.475 339.884 469.441 341.243C466.598 344.983 447.135 356.309 423.162 368.176C402.519 378.395 375.905 390.207 363.123 392.71L363.426 394.259Z" fill="#108E59"/>
<path d="M365.799 386.611C366.616 396.26 368.731 405.09 373.868 412.01C373.868 412.01 369.085 415.156 364.946 412.577C361.785 410.607 356.179 395.352 358.9 387.451C361.672 386.087 364.031 385.67 365.799 386.611Z" fill="#108E59"/>
<path d="M441.448 411.571C441.448 411.571 443.294 412.042 446.291 412.866C447.144 413.099 448.091 413.361 449.112 413.647C450.468 414.028 451.959 414.452 453.548 414.916C454.454 415.18 455.393 415.455 456.357 415.742C468.35 419.314 484.194 424.589 490.415 429.137C490.852 429.457 491.275 429.773 491.681 430.089C501.136 437.387 502.784 443.261 504.694 442.219C506.689 441.131 507.443 436.179 504.535 432.7C502.519 430.289 501.222 426.881 498.552 423.112C497.83 422.094 497.009 421.048 496.045 419.989C491.789 415.312 484.814 410.312 480.982 406.567C480.734 406.326 480.5 406.089 480.281 405.857C477.141 402.556 476.252 396.128 470.28 393.799C467.361 392.664 463.766 392.796 460.261 393.479C459.637 393.6 459.016 393.739 458.405 393.891C457.489 394.12 456.592 394.377 455.725 394.648C454.528 395.028 453.39 395.437 452.349 395.841C451.351 396.23 450.441 396.614 449.656 396.963C447.76 397.801 446.58 398.44 446.58 398.44L441.448 411.571Z" fill="white"/>
<path d="M460.261 393.479C463.556 398.434 471.267 407.994 480.982 406.566C480.735 406.326 480.501 406.089 480.281 405.858C477.141 402.556 476.252 396.128 470.28 393.799C467.362 392.665 463.767 392.797 460.261 393.479Z" fill="#80D7B2"/>
<path d="M491.68 430.089C501.134 437.387 502.783 443.262 504.692 442.219C506.688 441.131 507.442 436.178 504.533 432.699C502.517 430.289 501.221 426.881 498.551 423.112C495.989 424.688 493.226 426.981 491.68 430.089Z" fill="#80D7B2"/>
<path d="M446.292 412.866C447.145 413.099 448.091 413.36 449.113 413.647C451.129 410.476 452.296 406.524 452.542 401.944C452.664 399.631 452.537 397.512 452.349 395.842C451.352 396.229 450.441 396.614 449.655 396.962C449.781 398.367 449.845 400.032 449.748 401.818C449.553 405.426 448.688 409.515 446.292 412.866Z" fill="#80D7B2"/>
<path d="M453.549 414.916C454.455 415.18 455.393 415.455 456.358 415.742C458.795 412.065 459.936 407.356 459.681 401.891C459.523 398.52 458.876 395.619 458.405 393.891C457.49 394.12 456.593 394.377 455.726 394.648C456.725 398.359 458.64 408.13 453.549 414.916Z" fill="#80D7B2"/>
<path d="M444.942 393.267C448.521 411.629 437.178 414.472 437.178 414.472C437.178 414.472 420.276 416.551 368.804 397.276C339.127 386.164 311.764 368.797 299.123 352.513C289.841 340.558 288.497 329.181 300.001 321.291C302.652 319.473 305.623 318.432 308.715 317.946C322.958 315.711 339.782 325.296 339.782 325.296C374.444 341.835 365.768 347.518 394.673 365.931C411.205 376.461 444.942 393.267 444.942 393.267Z" fill="#0CAD69"/>
<path d="M308.715 317.946C309.267 324.155 310.212 344.915 299.123 352.513C289.841 340.558 288.496 329.181 300.002 321.291C302.653 319.473 305.623 318.432 308.715 317.946Z" fill="#108E59"/>
<path d="M442.802 398.533C431.979 395.668 410.038 384.988 384.108 369.965C364.715 358.729 342.379 344.424 339.165 339.568C337.429 336.944 337.024 334.821 337.963 333.259C339.37 330.919 343.267 330.765 345.04 330.823C345.497 330.838 345.846 331.233 345.803 331.688C345.763 332.101 345.411 332.413 344.997 332.401C343.253 332.35 340.212 332.578 339.316 334.073C338.57 335.314 339.539 337.272 340.481 338.697C343.073 342.613 361.754 355.19 384.9 368.6C404.83 380.147 430.614 393.674 443.206 397.007L442.802 398.533Z" fill="#108E59"/>
<path d="M440.93 390.746C439.484 400.322 436.795 408.993 431.217 415.562C431.217 415.562 435.784 419.014 440.082 416.712C443.364 414.954 449.957 400.098 447.76 392.036C445.082 390.493 442.757 389.924 440.93 390.746Z" fill="#108E59"/>
<path d="M492.827 317.608C488.984 322.526 483.683 325.276 479.475 328.09C469.353 334.858 448.818 339.137 450.361 315.822C451.907 292.51 469.543 301.957 456.567 261.01C451.029 243.54 447.214 207.527 447.214 207.527C447.214 207.527 476.203 227.836 493.355 277.922C494.692 281.824 495.703 285.385 496.434 288.641C499.751 303.428 497.255 311.951 492.827 317.608Z" fill="#FB4C47"/>
<path d="M492.825 317.608C486.537 306.379 491.752 295.279 496.432 288.64C499.749 303.428 497.253 311.951 492.825 317.608Z" fill="#B63A37"/>
<path d="M450.294 319.995C449.973 319.995 449.685 319.772 449.616 319.446C449.574 319.247 448.6 314.502 450.534 308.195C452.312 302.404 456.996 294.166 469.219 287.803C469.561 287.625 469.979 287.758 470.156 288.097C470.333 288.438 470.2 288.857 469.861 289.034C458.101 295.157 453.595 303.015 451.885 308.529C450.03 314.508 450.964 319.111 450.973 319.157C451.054 319.532 450.813 319.901 450.439 319.98C450.389 319.99 450.341 319.995 450.294 319.995Z" fill="#B63A37"/>
<path d="M460.826 294.59C460.732 294.6 460.633 294.589 460.537 294.557C460.172 294.435 459.977 294.041 460.1 293.679C462.35 286.98 463.792 284.112 463.853 283.993C464.026 283.652 464.443 283.515 464.786 283.689C465.127 283.863 465.264 284.28 465.091 284.621C465.075 284.649 463.628 287.536 461.416 294.12C461.325 294.388 461.09 294.565 460.826 294.59Z" fill="#B63A37"/>
<path d="M461.61 291.539C461.227 291.539 460.916 291.228 460.916 290.845C460.916 277.199 442.681 246.302 442.496 245.991C442.301 245.661 442.409 245.235 442.739 245.039C443.069 244.843 443.494 244.953 443.691 245.282C444.451 246.564 462.304 276.821 462.304 290.845C462.304 291.228 461.994 291.539 461.61 291.539Z" fill="#B63A37"/>
<path d="M448.703 256.471C448.558 256.471 448.412 256.426 448.287 256.333C445.927 254.57 439.956 253.01 439.896 252.995C439.525 252.899 439.303 252.52 439.399 252.15C439.495 251.778 439.874 251.555 440.244 251.652C440.5 251.717 446.54 253.294 449.119 255.221C449.425 255.451 449.489 255.886 449.259 256.193C449.122 256.375 448.914 256.471 448.703 256.471Z" fill="#B63A37"/>
<path d="M440.204 353.927C440.317 355.159 440.423 356.447 440.574 357.486C440.858 359.45 441.305 360.524 442.282 358.657C442.499 358.236 442.674 357.699 442.818 357.082C443.659 353.479 443.382 347.138 443.771 345.756C444.21 344.186 446.042 339.72 446.203 339.468C446.12 339.654 445.294 342.385 445.199 344.069C445.108 345.649 445.199 347.569 445.199 351.46C445.199 353.156 445.261 354.91 445.476 356.186V356.19C445.751 357.839 446.284 358.679 447.272 357.535C447.759 356.972 448.07 355.984 448.273 354.814C448.805 351.775 448.614 347.485 448.895 346.08C449.272 344.198 450.8 341.156 450.897 340.965C450.318 342.902 450.318 342.711 449.996 345.256C449.769 347.033 449.354 351.764 449.794 353.883C449.98 354.797 450.33 355.228 450.921 354.728C451.843 353.947 452.484 352.801 452.937 351.491C453.446 350.021 453.714 348.34 453.885 346.729C454.208 343.68 455.441 341.801 455.441 341.801C454.757 345.104 454.382 348.298 454.585 349.947C454.725 351.113 455.153 351.507 455.959 350.62C457.53 348.892 459.117 343.182 459.666 341.034C459.685 340.968 459.7 340.902 459.716 340.84C459.736 340.774 459.747 340.716 459.764 340.661C459.837 340.374 459.876 340.21 459.876 340.21L459.879 340.206C460.335 338.417 460.747 336.627 461.35 335.025C462.245 332.644 463.575 330.672 466.135 329.723C471.943 327.564 470.16 316.518 462.019 315.855C459.647 315.661 457.299 316.447 455.438 317.929C454.253 318.873 452.581 320.191 450.889 321.484L450.886 321.487C450.723 321.694 445.429 328.252 443.771 332.336C442.088 336.483 440.66 343.034 440.336 344.913C440.009 346.792 439.882 350.359 440.204 353.927Z" fill="#FAB893"/>
<path d="M312.235 323.057C316.102 328.098 321.436 330.92 325.67 333.805C335.854 340.745 356.516 345.132 354.963 321.224C353.408 297.32 335.664 307.007 348.72 265.019C354.291 247.105 354.963 211.404 354.963 211.404C354.963 211.404 328.963 231.001 311.704 282.361C310.359 286.361 309.342 290.013 308.608 293.352C305.27 308.516 307.782 317.255 312.235 323.057Z" fill="#FB4C47"/>
<path d="M312.396 324.038C318.684 312.808 313.469 301.709 308.79 295.071C305.473 309.858 307.969 318.381 312.396 324.038Z" fill="#B63A37"/>
<path d="M354.927 326.425C355.247 326.425 355.536 326.202 355.604 325.876C355.647 325.677 356.621 320.932 354.685 314.625C352.909 308.834 348.225 300.596 336 294.232C335.66 294.055 335.242 294.188 335.064 294.527C334.887 294.867 335.019 295.286 335.36 295.464C347.12 301.585 351.626 309.445 353.336 314.959C355.19 320.937 354.257 325.541 354.247 325.587C354.168 325.962 354.407 326.329 354.782 326.409C354.83 326.42 354.879 326.425 354.927 326.425Z" fill="#B63A37"/>
<path d="M344.397 301.02C344.493 301.029 344.59 301.019 344.687 300.987C345.05 300.864 345.245 300.471 345.124 300.108C342.873 293.409 341.431 290.542 341.371 290.423C341.197 290.081 340.78 289.944 340.437 290.119C340.096 290.292 339.959 290.709 340.132 291.052C340.146 291.079 341.596 293.965 343.808 300.55C343.898 300.817 344.133 300.994 344.397 301.02Z" fill="#B63A37"/>
<path d="M343.611 297.969C343.995 297.969 344.305 297.658 344.305 297.275C344.305 283.629 362.541 252.731 362.725 252.42C362.922 252.091 362.812 251.664 362.482 251.468C362.154 251.273 361.727 251.382 361.532 251.712C360.771 252.993 342.917 283.251 342.917 297.275C342.917 297.658 343.228 297.969 343.611 297.969Z" fill="#B63A37"/>
<path d="M356.519 262.901C356.664 262.901 356.809 262.857 356.934 262.762C359.294 260.999 365.265 259.44 365.325 259.425C365.696 259.329 365.92 258.95 365.823 258.579C365.726 258.208 365.347 257.985 364.977 258.081C364.721 258.146 358.681 259.724 356.102 261.651C355.796 261.88 355.734 262.316 355.962 262.623C356.099 262.805 356.307 262.901 356.519 262.901Z" fill="#B63A37"/>
<path d="M365.018 360.356C364.905 361.589 364.8 362.877 364.65 363.915C364.364 365.879 363.917 366.954 362.941 365.087C362.723 364.665 362.548 364.129 362.404 363.511C361.564 359.908 361.84 353.567 361.451 352.187C361.012 350.615 359.18 346.15 359.021 345.898C359.102 346.084 359.928 348.815 360.023 350.5C360.114 352.078 360.023 354 360.023 357.89C360.023 359.586 359.962 361.341 359.747 362.616V362.62C359.472 364.269 358.938 365.109 357.95 363.965C357.464 363.402 357.153 362.414 356.951 361.243C356.418 358.204 356.608 353.914 356.329 352.509C355.95 350.627 354.422 347.585 354.325 347.395C354.904 349.332 354.904 349.141 355.227 351.686C355.453 353.463 355.869 358.193 355.43 360.313C355.243 361.227 354.892 361.659 354.301 361.158C353.38 360.376 352.738 359.232 352.286 357.922C351.776 356.451 351.509 354.77 351.337 353.16C351.014 350.11 349.782 348.231 349.782 348.231C350.466 351.534 350.84 354.728 350.637 356.376C350.497 357.544 350.069 357.936 349.263 357.049C347.692 355.323 346.105 349.611 345.557 347.465C345.537 347.399 345.522 347.332 345.506 347.27C345.486 347.203 345.476 347.145 345.459 347.091C345.386 346.804 345.347 346.64 345.347 346.64L345.343 346.635C344.888 344.847 344.476 343.057 343.872 341.455C342.978 339.074 341.648 337.102 339.088 336.152C333.279 333.994 335.062 322.948 343.203 322.284C345.576 322.09 347.924 322.876 349.785 324.358C350.97 325.303 352.641 326.621 354.333 327.914L354.336 327.917C354.5 328.124 359.795 334.682 361.451 338.767C363.136 342.914 364.564 349.464 364.886 351.343C365.213 353.221 365.341 356.79 365.018 360.356Z" fill="#FAB893"/>
</svg>
